<svg width="160" height="48" viewBox="0 0 160 48" fill="none" xmlns="http://www.w3.org/2000/svg">
<g clip-path="url(#clip0)">
<rect x="0.355469" width="159.552" height="48" rx="8" fill="white"/>
<path d="M52.3682 11.146H55.6242C56.2256 11.146 56.7462 11.2487 57.1862 11.454C57.6262 11.6593 57.9856 11.9417 58.2642 12.301C58.5429 12.653 58.7482 13.0673 58.8802 13.544C59.0196 14.0207 59.0892 14.5303 59.0892 15.073C59.0892 15.6157 59.0196 16.1253 58.8802 16.602C58.7482 17.0787 58.5429 17.4967 58.2642 17.856C57.9856 18.208 57.6262 18.4867 57.1862 18.692C56.7462 18.8973 56.2256 19 55.6242 19H52.3682V11.146ZM53.7432 17.878H55.0962C55.6316 17.878 56.0679 17.8083 56.4052 17.669C56.7499 17.5223 57.0176 17.3243 57.2082 17.075C57.4062 16.8183 57.5382 16.5213 57.6042 16.184C57.6776 15.8393 57.7142 15.469 57.7142 15.073C57.7142 14.677 57.6776 14.3103 57.6042 13.973C57.5382 13.6283 57.4062 13.3313 57.2082 13.082C57.0176 12.8253 56.7499 12.6273 56.4052 12.488C56.0679 12.3413 55.6316 12.268 55.0962 12.268H53.7432V17.878ZM62.7377 19.154C62.283 19.154 61.876 19.0807 61.5167 18.934C61.1647 18.78 60.864 18.571 60.6147 18.307C60.3727 18.043 60.1857 17.7277 60.0537 17.361C59.929 16.9943 59.8667 16.591 59.8667 16.151C59.8667 15.7183 59.929 15.3187 60.0537 14.952C60.1857 14.5853 60.3727 14.27 60.6147 14.006C60.864 13.742 61.1647 13.5367 61.5167 13.39C61.876 13.236 62.283 13.159 62.7377 13.159C63.1924 13.159 63.5957 13.236 63.9477 13.39C64.307 13.5367 64.6077 13.742 64.8497 14.006C65.099 14.27 65.286 14.5853 65.4107 14.952C65.5427 15.3187 65.6087 15.7183 65.6087 16.151C65.6087 16.591 65.5427 16.9943 65.4107 17.361C65.286 17.7277 65.099 18.043 64.8497 18.307C64.6077 18.571 64.307 18.78 63.9477 18.934C63.5957 19.0807 63.1924 19.154 62.7377 19.154ZM62.7377 18.164C63.0164 18.164 63.2584 18.1053 63.4637 17.988C63.669 17.8707 63.8377 17.7167 63.9697 17.526C64.1017 17.3353 64.197 17.1227 64.2557 16.888C64.3217 16.646 64.3547 16.4003 64.3547 16.151C64.3547 15.909 64.3217 15.667 64.2557 15.425C64.197 15.183 64.1017 14.9703 63.9697 14.787C63.8377 14.5963 63.669 14.4423 63.4637 14.325C63.2584 14.2077 63.0164 14.149 62.7377 14.149C62.459 14.149 62.217 14.2077 62.0117 14.325C61.8064 14.4423 61.6377 14.5963 61.5057 14.787C61.3737 14.9703 61.2747 15.183 61.2087 15.425C61.15 15.667 61.1207 15.909 61.1207 16.151C61.1207 16.4003 61.15 16.646 61.2087 16.888C61.2747 17.1227 61.3737 17.3353 61.5057 17.526C61.6377 17.7167 61.8064 17.8707 62.0117 17.988C62.217 18.1053 62.459 18.164 62.7377 18.164ZM66.1342 13.313H67.4652L68.5762 17.559H68.5982L69.6652 13.313H70.9302L71.9532 17.559H71.9752L73.1302 13.313H74.4062L72.6242 19H71.3372L70.2812 14.776H70.2592L69.2142 19H67.8942L66.1342 13.313ZM75.2127 13.313H76.4007V14.149L76.4227 14.171C76.6134 13.8557 76.8627 13.61 77.1707 13.434C77.4787 13.2507 77.8197 13.159 78.1937 13.159C78.8171 13.159 79.3084 13.3203 79.6677 13.643C80.0271 13.9657 80.2067 14.4497 80.2067 15.095V19H78.9527V15.425C78.9381 14.9777 78.8427 14.655 78.6667 14.457C78.4907 14.2517 78.2157 14.149 77.8417 14.149C77.6291 14.149 77.4384 14.1893 77.2697 14.27C77.1011 14.3433 76.9581 14.4497 76.8407 14.589C76.7234 14.721 76.6317 14.8787 76.5657 15.062C76.4997 15.2453 76.4667 15.4397 76.4667 15.645V19H75.2127V13.313ZM81.5621 11.146H82.8161V19H81.5621V11.146ZM86.7895 19.154C86.3348 19.154 85.9278 19.0807 85.5685 18.934C85.2165 18.78 84.9158 18.571 84.6665 18.307C84.4245 18.043 84.2375 17.7277 84.1055 17.361C83.9808 16.9943 83.9185 16.591 83.9185 16.151C83.9185 15.7183 83.9808 15.3187 84.1055 14.952C84.2375 14.5853 84.4245 14.27 84.6665 14.006C84.9158 13.742 85.2165 13.5367 85.5685 13.39C85.9278 13.236 86.3348 13.159 86.7895 13.159C87.2441 13.159 87.6475 13.236 87.9995 13.39C88.3588 13.5367 88.6595 13.742 88.9015 14.006C89.1508 14.27 89.3378 14.5853 89.4625 14.952C89.5945 15.3187 89.6605 15.7183 89.6605 16.151C89.6605 16.591 89.5945 16.9943 89.4625 17.361C89.3378 17.7277 89.1508 18.043 88.9015 18.307C88.6595 18.571 88.3588 18.78 87.9995 18.934C87.6475 19.0807 87.2441 19.154 86.7895 19.154ZM86.7895 18.164C87.0681 18.164 87.3101 18.1053 87.5155 17.988C87.7208 17.8707 87.8895 17.7167 88.0215 17.526C88.1535 17.3353 88.2488 17.1227 88.3075 16.888C88.3735 16.646 88.4065 16.4003 88.4065 16.151C88.4065 15.909 88.3735 15.667 88.3075 15.425C88.2488 15.183 88.1535 14.9703 88.0215 14.787C87.8895 14.5963 87.7208 14.4423 87.5155 14.325C87.3101 14.2077 87.0681 14.149 86.7895 14.149C86.5108 14.149 86.2688 14.2077 86.0635 14.325C85.8581 14.4423 85.6895 14.5963 85.5575 14.787C85.4255 14.9703 85.3265 15.183 85.2605 15.425C85.2018 15.667 85.1725 15.909 85.1725 16.151C85.1725 16.4003 85.2018 16.646 85.2605 16.888C85.3265 17.1227 85.4255 17.3353 85.5575 17.526C85.6895 17.7167 85.8581 17.8707 86.0635 17.988C86.2688 18.1053 86.5108 18.164 86.7895 18.164ZM95.466 17.735C95.466 17.889 95.4843 17.999 95.521 18.065C95.565 18.131 95.6456 18.164 95.763 18.164C95.7996 18.164 95.8436 18.164 95.895 18.164C95.9463 18.164 96.005 18.1567 96.071 18.142V19.011C96.027 19.0257 95.9683 19.0403 95.895 19.055C95.829 19.077 95.7593 19.0953 95.686 19.11C95.6126 19.1247 95.5393 19.1357 95.466 19.143C95.3926 19.1503 95.3303 19.154 95.279 19.154C95.0223 19.154 94.8096 19.1027 94.641 19C94.4723 18.8973 94.3623 18.7177 94.311 18.461C94.0616 18.703 93.7536 18.879 93.387 18.989C93.0276 19.099 92.6793 19.154 92.342 19.154C92.0853 19.154 91.8396 19.1173 91.605 19.044C91.3703 18.978 91.1613 18.879 90.978 18.747C90.802 18.6077 90.659 18.4353 90.549 18.23C90.4463 18.0173 90.395 17.7717 90.395 17.493C90.395 17.141 90.4573 16.855 90.582 16.635C90.714 16.415 90.8826 16.2427 91.088 16.118C91.3006 15.9933 91.5353 15.9053 91.792 15.854C92.056 15.7953 92.32 15.7513 92.584 15.722C92.8113 15.678 93.0276 15.6487 93.233 15.634C93.4383 15.612 93.618 15.579 93.772 15.535C93.9333 15.491 94.058 15.425 94.146 15.337C94.2413 15.2417 94.289 15.1023 94.289 14.919C94.289 14.7577 94.2486 14.6257 94.168 14.523C94.0946 14.4203 93.9993 14.3433 93.882 14.292C93.772 14.2333 93.6473 14.1967 93.508 14.182C93.3686 14.16 93.2366 14.149 93.112 14.149C92.76 14.149 92.4703 14.2223 92.243 14.369C92.0156 14.5157 91.8873 14.743 91.858 15.051H90.604C90.626 14.6843 90.714 14.38 90.868 14.138C91.022 13.896 91.2163 13.7017 91.451 13.555C91.693 13.4083 91.9643 13.3057 92.265 13.247C92.5656 13.1883 92.8736 13.159 93.189 13.159C93.4676 13.159 93.7426 13.1883 94.014 13.247C94.2853 13.3057 94.5273 13.401 94.74 13.533C94.96 13.665 95.136 13.8373 95.268 14.05C95.4 14.2553 95.466 14.5083 95.466 14.809V17.735ZM94.212 16.151C94.0213 16.2757 93.7866 16.3527 93.508 16.382C93.2293 16.404 92.9506 16.4407 92.672 16.492C92.54 16.514 92.4116 16.547 92.287 16.591C92.1623 16.6277 92.0523 16.6827 91.957 16.756C91.8616 16.822 91.7846 16.9137 91.726 17.031C91.6746 17.141 91.649 17.2767 91.649 17.438C91.649 17.5773 91.6893 17.6947 91.77 17.79C91.8506 17.8853 91.946 17.9623 92.056 18.021C92.1733 18.0723 92.298 18.109 92.43 18.131C92.5693 18.153 92.694 18.164 92.804 18.164C92.9433 18.164 93.0936 18.1457 93.255 18.109C93.4163 18.0723 93.5666 18.01 93.706 17.922C93.8526 17.834 93.9736 17.724 94.069 17.592C94.1643 17.4527 94.212 17.284 94.212 17.086V16.151ZM102.172 19H100.984V18.23H100.962C100.794 18.56 100.548 18.7983 100.225 18.945C99.9026 19.0843 99.5616 19.154 99.2023 19.154C98.7549 19.154 98.3626 19.077 98.0253 18.923C97.6953 18.7617 97.4203 18.5453 97.2003 18.274C96.9803 18.0027 96.8153 17.6837 96.7053 17.317C96.5953 16.943 96.5403 16.5433 96.5403 16.118C96.5403 15.6047 96.6099 15.161 96.7493 14.787C96.8886 14.413 97.0719 14.105 97.2993 13.863C97.5339 13.621 97.7979 13.445 98.0913 13.335C98.3919 13.2177 98.6963 13.159 99.0043 13.159C99.1803 13.159 99.3599 13.1773 99.5433 13.214C99.7266 13.2433 99.9026 13.2947 100.071 13.368C100.24 13.4413 100.394 13.5367 100.533 13.654C100.68 13.764 100.801 13.896 100.896 14.05H100.918V11.146H102.172V19ZM97.7943 16.217C97.7943 16.459 97.8236 16.6973 97.8823 16.932C97.9483 17.1667 98.0436 17.3757 98.1683 17.559C98.3003 17.7423 98.4653 17.889 98.6633 17.999C98.8613 18.109 99.0959 18.164 99.3673 18.164C99.6459 18.164 99.8843 18.1053 100.082 17.988C100.288 17.8707 100.453 17.7167 100.577 17.526C100.709 17.3353 100.805 17.1227 100.863 16.888C100.929 16.646 100.962 16.4003 100.962 16.151C100.962 15.5203 100.819 15.029 100.533 14.677C100.255 14.325 99.8733 14.149 99.3893 14.149C99.0959 14.149 98.8466 14.2113 98.6413 14.336C98.4433 14.4533 98.2783 14.611 98.1463 14.809C98.0216 14.9997 97.9299 15.2197 97.8713 15.469C97.8199 15.711 97.7943 15.9603 97.7943 16.217ZM109.208 19.154C108.754 19.154 108.347 19.0807 107.987 18.934C107.635 18.78 107.335 18.571 107.085 18.307C106.843 18.043 106.656 17.7277 106.524 17.361C106.4 16.9943 106.337 16.591 106.337 16.151C106.337 15.7183 106.4 15.3187 106.524 14.952C106.656 14.5853 106.843 14.27 107.085 14.006C107.335 13.742 107.635 13.5367 107.987 13.39C108.347 13.236 108.754 13.159 109.208 13.159C109.663 13.159 110.066 13.236 110.418 13.39C110.778 13.5367 111.078 13.742 111.32 14.006C111.57 14.27 111.757 14.5853 111.881 14.952C112.013 15.3187 112.079 15.7183 112.079 16.151C112.079 16.591 112.013 16.9943 111.881 17.361C111.757 17.7277 111.57 18.043 111.32 18.307C111.078 18.571 110.778 18.78 110.418 18.934C110.066 19.0807 109.663 19.154 109.208 19.154ZM109.208 18.164C109.487 18.164 109.729 18.1053 109.934 17.988C110.14 17.8707 110.308 17.7167 110.44 17.526C110.572 17.3353 110.668 17.1227 110.726 16.888C110.792 16.646 110.825 16.4003 110.825 16.151C110.825 15.909 110.792 15.667 110.726 15.425C110.668 15.183 110.572 14.9703 110.44 14.787C110.308 14.5963 110.14 14.4423 109.934 14.325C109.729 14.2077 109.487 14.149 109.208 14.149C108.93 14.149 108.688 14.2077 108.482 14.325C108.277 14.4423 108.108 14.5963 107.976 14.787C107.844 14.9703 107.745 15.183 107.679 15.425C107.621 15.667 107.591 15.909 107.591 16.151C107.591 16.4003 107.621 16.646 107.679 16.888C107.745 17.1227 107.844 17.3353 107.976 17.526C108.108 17.7167 108.277 17.8707 108.482 17.988C108.688 18.1053 108.93 18.164 109.208 18.164ZM113.122 13.313H114.31V14.149L114.332 14.171C114.523 13.8557 114.772 13.61 115.08 13.434C115.388 13.2507 115.729 13.159 116.103 13.159C116.726 13.159 117.218 13.3203 117.577 13.643C117.936 13.9657 118.116 14.4497 118.116 15.095V19H116.862V15.425C116.847 14.9777 116.752 14.655 116.576 14.457C116.4 14.2517 116.125 14.149 115.751 14.149C115.538 14.149 115.348 14.1893 115.179 14.27C115.01 14.3433 114.867 14.4497 114.75 14.589C114.633 14.721 114.541 14.8787 114.475 15.062C114.409 15.2453 114.376 15.4397 114.376 15.645V19H113.122V13.313ZM121.928 13.313H122.874V11.608H124.128V13.313H125.261V14.248H124.128V17.284C124.128 17.416 124.132 17.5297 124.139 17.625C124.154 17.7203 124.179 17.801 124.216 17.867C124.26 17.933 124.322 17.9843 124.403 18.021C124.484 18.0503 124.594 18.065 124.733 18.065C124.821 18.065 124.909 18.065 124.997 18.065C125.085 18.0577 125.173 18.043 125.261 18.021V18.989C125.122 19.0037 124.986 19.0183 124.854 19.033C124.722 19.0477 124.586 19.055 124.447 19.055C124.117 19.055 123.849 19.0257 123.644 18.967C123.446 18.901 123.288 18.8093 123.171 18.692C123.061 18.5673 122.984 18.4133 122.94 18.23C122.903 18.0467 122.881 17.8377 122.874 17.603V14.248H121.928V13.313ZM126.163 11.146H127.417V14.061H127.439C127.593 13.8043 127.82 13.5917 128.121 13.423C128.429 13.247 128.77 13.159 129.144 13.159C129.767 13.159 130.259 13.3203 130.618 13.643C130.977 13.9657 131.157 14.4497 131.157 15.095V19H129.903V15.425C129.888 14.9777 129.793 14.655 129.617 14.457C129.441 14.2517 129.166 14.149 128.792 14.149C128.579 14.149 128.389 14.1893 128.22 14.27C128.051 14.3433 127.908 14.4497 127.791 14.589C127.674 14.721 127.582 14.8787 127.516 15.062C127.45 15.2453 127.417 15.4397 127.417 15.645V19H126.163V11.146ZM136.384 15.656C136.37 15.458 136.326 15.2673 136.252 15.084C136.186 14.9007 136.091 14.743 135.966 14.611C135.849 14.4717 135.702 14.3617 135.526 14.281C135.358 14.193 135.167 14.149 134.954 14.149C134.734 14.149 134.533 14.1893 134.349 14.27C134.173 14.3433 134.019 14.4497 133.887 14.589C133.763 14.721 133.66 14.8787 133.579 15.062C133.506 15.2453 133.466 15.4433 133.458 15.656H136.384ZM133.458 16.481C133.458 16.701 133.488 16.9137 133.546 17.119C133.612 17.3243 133.708 17.504 133.832 17.658C133.957 17.812 134.115 17.9367 134.305 18.032C134.496 18.12 134.723 18.164 134.987 18.164C135.354 18.164 135.647 18.087 135.867 17.933C136.095 17.7717 136.263 17.5333 136.373 17.218H137.561C137.495 17.526 137.382 17.801 137.22 18.043C137.059 18.285 136.865 18.4903 136.637 18.659C136.41 18.8203 136.153 18.9413 135.867 19.022C135.589 19.11 135.295 19.154 134.987 19.154C134.54 19.154 134.144 19.0807 133.799 18.934C133.455 18.7873 133.161 18.582 132.919 18.318C132.685 18.054 132.505 17.7387 132.38 17.372C132.263 17.0053 132.204 16.602 132.204 16.162C132.204 15.7587 132.267 15.3773 132.391 15.018C132.523 14.6513 132.707 14.3323 132.941 14.061C133.183 13.7823 133.473 13.5623 133.81 13.401C134.148 13.2397 134.529 13.159 134.954 13.159C135.402 13.159 135.801 13.2543 136.153 13.445C136.513 13.6283 136.81 13.874 137.044 14.182C137.279 14.49 137.448 14.8457 137.55 15.249C137.66 15.645 137.69 16.0557 137.638 16.481H133.458Z" fill="#502314"/>
<path d="M56.3382 24.148H58.7322L63.6822 37H61.2702L60.0642 33.598H54.9342L53.7282 37H51.4062L56.3382 24.148ZM55.5462 31.888H59.4702L57.5442 26.362H57.4902L55.5462 31.888ZM64.6721 27.694H66.6161V28.954H66.6521C66.9401 28.414 67.3421 28.03 67.8581 27.802C68.3741 27.562 68.9321 27.442 69.5321 27.442C70.2641 27.442 70.9001 27.574 71.4401 27.838C71.9921 28.09 72.4481 28.444 72.8081 28.9C73.1681 29.344 73.4381 29.866 73.6181 30.466C73.7981 31.066 73.8881 31.708 73.8881 32.392C73.8881 33.016 73.8041 33.622 73.6361 34.21C73.4801 34.798 73.2341 35.32 72.8981 35.776C72.5741 36.22 72.1601 36.58 71.6561 36.856C71.1521 37.12 70.5581 37.252 69.8741 37.252C69.5741 37.252 69.2741 37.222 68.9741 37.162C68.6741 37.114 68.3861 37.03 68.1101 36.91C67.8341 36.79 67.5761 36.64 67.3361 36.46C67.1081 36.268 66.9161 36.046 66.7601 35.794H66.7241V40.438H64.6721V27.694ZM71.8361 32.356C71.8361 31.936 71.7821 31.528 71.6741 31.132C71.5661 30.736 71.4041 30.388 71.1881 30.088C70.9721 29.776 70.7021 29.53 70.3781 29.35C70.0541 29.158 69.6821 29.062 69.2621 29.062C68.3981 29.062 67.7441 29.362 67.3001 29.962C66.8681 30.562 66.6521 31.36 66.6521 32.356C66.6521 32.824 66.7061 33.262 66.8141 33.67C66.9341 34.066 67.1081 34.408 67.3361 34.696C67.5641 34.984 67.8341 35.212 68.1461 35.38C68.4701 35.548 68.8421 35.632 69.2621 35.632C69.7301 35.632 70.1261 35.536 70.4501 35.344C70.7741 35.152 71.0381 34.906 71.2421 34.606C71.4581 34.294 71.6081 33.946 71.6921 33.562C71.7881 33.166 71.8361 32.764 71.8361 32.356ZM75.676 27.694H77.62V28.954H77.656C77.944 28.414 78.346 28.03 78.862 27.802C79.378 27.562 79.936 27.442 80.536 27.442C81.268 27.442 81.904 27.574 82.444 27.838C82.996 28.09 83.452 28.444 83.812 28.9C84.172 29.344 84.442 29.866 84.622 30.466C84.802 31.066 84.892 31.708 84.892 32.392C84.892 33.016 84.808 33.622 84.64 34.21C84.484 34.798 84.238 35.32 83.902 35.776C83.578 36.22 83.164 36.58 82.66 36.856C82.156 37.12 81.562 37.252 80.878 37.252C80.578 37.252 80.278 37.222 79.978 37.162C79.678 37.114 79.39 37.03 79.114 36.91C78.838 36.79 78.58 36.64 78.34 36.46C78.112 36.268 77.92 36.046 77.764 35.794H77.728V40.438H75.676V27.694ZM82.84 32.356C82.84 31.936 82.786 31.528 82.678 31.132C82.57 30.736 82.408 30.388 82.192 30.088C81.976 29.776 81.706 29.53 81.382 29.35C81.058 29.158 80.686 29.062 80.266 29.062C79.402 29.062 78.748 29.362 78.304 29.962C77.872 30.562 77.656 31.36 77.656 32.356C77.656 32.824 77.71 33.262 77.818 33.67C77.938 34.066 78.112 34.408 78.34 34.696C78.568 34.984 78.838 35.212 79.15 35.38C79.474 35.548 79.846 35.632 80.266 35.632C80.734 35.632 81.13 35.536 81.454 35.344C81.778 35.152 82.042 34.906 82.246 34.606C82.462 34.294 82.612 33.946 82.696 33.562C82.792 33.166 82.84 32.764 82.84 32.356ZM93.3997 32.716C93.3997 33.208 93.4837 33.628 93.6517 33.976C93.8197 34.324 94.0537 34.612 94.3537 34.84C94.6537 35.056 94.9957 35.218 95.3797 35.326C95.7757 35.422 96.2017 35.47 96.6577 35.47C97.1497 35.47 97.5697 35.416 97.9177 35.308C98.2657 35.188 98.5477 35.038 98.7637 34.858C98.9797 34.678 99.1357 34.474 99.2317 34.246C99.3277 34.006 99.3757 33.766 99.3757 33.526C99.3757 33.034 99.2617 32.674 99.0337 32.446C98.8177 32.206 98.5777 32.038 98.3137 31.942C97.8577 31.774 97.3237 31.618 96.7117 31.474C96.1117 31.318 95.3677 31.12 94.4797 30.88C93.9277 30.736 93.4657 30.55 93.0937 30.322C92.7337 30.082 92.4457 29.818 92.2297 29.53C92.0137 29.242 91.8577 28.936 91.7617 28.612C91.6777 28.288 91.6357 27.958 91.6357 27.622C91.6357 26.974 91.7677 26.416 92.0317 25.948C92.3077 25.468 92.6677 25.072 93.1117 24.76C93.5557 24.448 94.0597 24.22 94.6237 24.076C95.1877 23.92 95.7577 23.842 96.3337 23.842C97.0057 23.842 97.6357 23.932 98.2237 24.112C98.8237 24.28 99.3457 24.538 99.7897 24.886C100.246 25.234 100.606 25.666 100.87 26.182C101.134 26.686 101.266 27.274 101.266 27.946H99.0157C98.9557 27.118 98.6737 26.536 98.1697 26.2C97.6657 25.852 97.0237 25.678 96.2437 25.678C95.9797 25.678 95.7097 25.708 95.4337 25.768C95.1577 25.816 94.9057 25.906 94.6777 26.038C94.4497 26.158 94.2577 26.326 94.1017 26.542C93.9577 26.758 93.8857 27.028 93.8857 27.352C93.8857 27.808 94.0237 28.168 94.2997 28.432C94.5877 28.684 94.9597 28.876 95.4157 29.008C95.4637 29.02 95.6497 29.074 95.9737 29.17C96.3097 29.254 96.6817 29.35 97.0897 29.458C97.4977 29.566 97.8937 29.674 98.2777 29.782C98.6737 29.878 98.9557 29.95 99.1237 29.998C99.5437 30.13 99.9097 30.31 100.222 30.538C100.534 30.766 100.792 31.03 100.996 31.33C101.212 31.618 101.368 31.93 101.464 32.266C101.572 32.602 101.626 32.938 101.626 33.274C101.626 33.994 101.476 34.612 101.176 35.128C100.888 35.632 100.504 36.046 100.024 36.37C99.5437 36.694 98.9977 36.928 98.3857 37.072C97.7737 37.228 97.1497 37.306 96.5137 37.306C95.7817 37.306 95.0917 37.216 94.4437 37.036C93.7957 36.856 93.2317 36.58 92.7517 36.208C92.2717 35.836 91.8877 35.362 91.5997 34.786C91.3117 34.198 91.1617 33.508 91.1497 32.716H93.3997ZM102.372 27.694H103.92V24.904H105.972V27.694H107.826V29.224H105.972V34.192C105.972 34.408 105.978 34.594 105.99 34.75C106.014 34.906 106.056 35.038 106.116 35.146C106.188 35.254 106.29 35.338 106.422 35.398C106.554 35.446 106.734 35.47 106.962 35.47C107.106 35.47 107.25 35.47 107.394 35.47C107.538 35.458 107.682 35.434 107.826 35.398V36.982C107.598 37.006 107.376 37.03 107.16 37.054C106.944 37.078 106.722 37.09 106.494 37.09C105.954 37.09 105.516 37.042 105.18 36.946C104.856 36.838 104.598 36.688 104.406 36.496C104.226 36.292 104.1 36.04 104.028 35.74C103.968 35.44 103.932 35.098 103.92 34.714V29.224H102.372V27.694ZM113.568 37.252C112.824 37.252 112.158 37.132 111.57 36.892C110.994 36.64 110.502 36.298 110.094 35.866C109.698 35.434 109.392 34.918 109.176 34.318C108.972 33.718 108.87 33.058 108.87 32.338C108.87 31.63 108.972 30.976 109.176 30.376C109.392 29.776 109.698 29.26 110.094 28.828C110.502 28.396 110.994 28.06 111.57 27.82C112.158 27.568 112.824 27.442 113.568 27.442C114.312 27.442 114.972 27.568 115.548 27.82C116.136 28.06 116.628 28.396 117.024 28.828C117.432 29.26 117.738 29.776 117.942 30.376C118.158 30.976 118.266 31.63 118.266 32.338C118.266 33.058 118.158 33.718 117.942 34.318C117.738 34.918 117.432 35.434 117.024 35.866C116.628 36.298 116.136 36.64 115.548 36.892C114.972 37.132 114.312 37.252 113.568 37.252ZM113.568 35.632C114.024 35.632 114.42 35.536 114.756 35.344C115.092 35.152 115.368 34.9 115.584 34.588C115.8 34.276 115.956 33.928 116.052 33.544C116.16 33.148 116.214 32.746 116.214 32.338C116.214 31.942 116.16 31.546 116.052 31.15C115.956 30.754 115.8 30.406 115.584 30.106C115.368 29.794 115.092 29.542 114.756 29.35C114.42 29.158 114.024 29.062 113.568 29.062C113.112 29.062 112.716 29.158 112.38 29.35C112.044 29.542 111.768 29.794 111.552 30.106C111.336 30.406 111.174 30.754 111.066 31.15C110.97 31.546 110.922 31.942 110.922 32.338C110.922 32.746 110.97 33.148 111.066 33.544C111.174 33.928 111.336 34.276 111.552 34.588C111.768 34.9 112.044 35.152 112.38 35.344C112.716 35.536 113.112 35.632 113.568 35.632ZM119.972 27.694H121.898V29.494H121.934C121.994 29.242 122.108 28.996 122.276 28.756C122.456 28.516 122.666 28.3 122.906 28.108C123.158 27.904 123.434 27.742 123.734 27.622C124.034 27.502 124.34 27.442 124.652 27.442C124.892 27.442 125.054 27.448 125.138 27.46C125.234 27.472 125.33 27.484 125.426 27.496V29.476C125.282 29.452 125.132 29.434 124.976 29.422C124.832 29.398 124.688 29.386 124.544 29.386C124.196 29.386 123.866 29.458 123.554 29.602C123.254 29.734 122.99 29.938 122.762 30.214C122.534 30.478 122.354 30.808 122.222 31.204C122.09 31.6 122.024 32.056 122.024 32.572V37H119.972V27.694ZM132.373 31.528C132.349 31.204 132.277 30.892 132.157 30.592C132.049 30.292 131.893 30.034 131.689 29.818C131.497 29.59 131.257 29.41 130.969 29.278C130.693 29.134 130.381 29.062 130.033 29.062C129.673 29.062 129.343 29.128 129.043 29.26C128.755 29.38 128.503 29.554 128.287 29.782C128.083 29.998 127.915 30.256 127.783 30.556C127.663 30.856 127.597 31.18 127.585 31.528H132.373ZM127.585 32.878C127.585 33.238 127.633 33.586 127.729 33.922C127.837 34.258 127.993 34.552 128.197 34.804C128.401 35.056 128.659 35.26 128.971 35.416C129.283 35.56 129.655 35.632 130.087 35.632C130.687 35.632 131.167 35.506 131.527 35.254C131.899 34.99 132.175 34.6 132.355 34.084H134.299C134.191 34.588 134.005 35.038 133.741 35.434C133.477 35.83 133.159 36.166 132.787 36.442C132.415 36.706 131.995 36.904 131.527 37.036C131.071 37.18 130.591 37.252 130.087 37.252C129.355 37.252 128.707 37.132 128.143 36.892C127.579 36.652 127.099 36.316 126.703 35.884C126.319 35.452 126.025 34.936 125.821 34.336C125.629 33.736 125.533 33.076 125.533 32.356C125.533 31.696 125.635 31.072 125.839 30.484C126.055 29.884 126.355 29.362 126.739 28.918C127.135 28.462 127.609 28.102 128.161 27.838C128.713 27.574 129.337 27.442 130.033 27.442C130.765 27.442 131.419 27.598 131.995 27.91C132.583 28.21 133.069 28.612 133.453 29.116C133.837 29.62 134.113 30.202 134.281 30.862C134.461 31.51 134.509 32.182 134.425 32.878H127.585Z" fill="#502314"/>
<path fill-rule="evenodd" clip-rule="evenodd" d="M31.8215 8C30.2102 8.06542 28.2578 9.03905 27.1023 10.348C26.0636 11.5105 25.1568 13.3658 25.4013 15.1447C27.2002 15.2809 29.0333 14.2607 30.1531 12.9511C31.2706 11.639 32.0273 9.81826 31.8215 8ZM31.366 38.9586C33.5492 38.9193 34.9319 37.0411 36.2687 35.1513C37.7334 33.0813 38.3802 31.0743 38.4766 30.775C38.482 30.7584 38.4857 30.747 38.4877 30.7412C38.4867 30.7408 38.484 30.7397 38.4796 30.738C38.2696 30.6554 34.2288 29.0662 34.1886 24.4725C34.1491 20.679 37.2765 18.7919 37.6209 18.5842C37.6328 18.577 37.6414 18.5718 37.6464 18.5686C35.764 15.9057 32.8329 15.5406 31.7885 15.4989C30.2629 15.3497 28.7829 15.9137 27.5737 16.3746C26.8052 16.6675 26.1461 16.9187 25.6541 16.9187C25.1066 16.9187 24.4294 16.6587 23.6694 16.367C22.6747 15.9851 21.5382 15.5488 20.3648 15.5697C17.6471 15.609 15.1392 17.0997 13.7396 19.4556C10.9133 24.1996 13.0148 31.2291 15.7682 35.0757C17.116 36.9569 18.7186 39.0743 20.8262 38.998C21.7673 38.9615 22.437 38.6856 23.1296 38.4003C23.9301 38.0706 24.7611 37.7283 26.0769 37.7283C27.3301 37.7283 28.1227 38.06 28.885 38.3791C29.6142 38.6843 30.3157 38.9779 31.366 38.9586Z" fill="#502314"/>
</g>
<defs>
<clipPath id="clip0">
<rect width="159.552" height="48" fill="white" transform="translate(0.355469)"/>
</clipPath>
</defs>
</svg>