<svg width="1440" height="533" viewBox="0 0 1440 533" fill="none" xmlns="http://www.w3.org/2000/svg">
<path fill-rule="evenodd" clip-rule="evenodd" d="M0 533V10.2919C1.52376 10.3242 3.05043 10.3359 4.59462 10.3359C6.86274 10.3359 9.17465 10.3124 11.5654 10.2919C13.9999 10.2743 16.4431 10.2655 18.8952 10.2655C25.4894 10.2655 32.1332 10.3212 38.7916 10.377C45.4646 10.4297 52.1522 10.4855 58.8223 10.4855C70.0578 10.4855 81.2466 10.33 92.234 9.76086C94.3532 9.64642 96.4783 9.60834 98.6063 9.60834C100.743 9.60834 102.883 9.64935 105.02 9.68457C107.165 9.72272 109.305 9.76379 111.444 9.76379C113.339 9.76379 115.233 9.73151 117.125 9.64642C124.052 9.33252 130.5 8.31744 137.766 8.29395C138.058 8.29395 138.347 8.29102 138.636 8.29102C142.293 8.29102 145.782 8.4201 149.395 8.49347C149.769 8.4964 150.137 8.49933 150.496 8.49933C152.475 8.49933 154.261 8.42303 156.025 8.34967C157.779 8.27631 159.51 8.20007 161.384 8.20007C162.852 8.20007 164.408 8.24701 166.127 8.37317C169.753 8.64307 172.958 8.77509 176.09 8.77509C179.625 8.77509 183.067 8.60492 186.903 8.28223C192.282 8.22357 197.645 8.03577 203.007 7.80695C206.206 7.96246 209.455 8.18243 213.125 8.25287C216.887 8.31738 220.451 8.17957 224.197 8.49347C226.932 8.72522 229.807 9.49097 232.498 9.64941C233.117 9.6817 233.727 9.70221 234.323 9.70221C238.801 9.70221 242.704 8.76923 246.962 8.34674C249.858 8.0592 252.661 7.95068 255.41 7.95068C263.201 7.95068 270.595 8.82208 278.655 8.92474C278.745 8.92767 278.833 8.92767 278.921 8.92767C279.461 8.92767 279.957 8.90717 280.421 8.87195C284.116 9.0509 287.832 9.18585 291.578 9.23572C292.194 9.24158 292.804 9.24451 293.42 9.24451C306.701 9.24451 319.583 7.62799 332.716 6.95026C333.122 6.92975 333.525 6.90918 333.933 6.88867H335.159C338.54 6.88867 341.879 6.85931 344.906 6.62756C345.616 6.62463 346.325 6.62164 347.034 6.62164C350.917 6.62164 354.796 6.67157 358.678 6.72437C362.572 6.77716 366.466 6.82703 370.366 6.82703C371.052 6.82703 371.741 6.82703 372.43 6.8241C384.909 6.76544 397.502 6.59235 410.025 6.59235C419.211 6.59235 428.36 6.68622 437.403 6.9884C437.634 6.99719 437.864 7.00598 438.092 7.01477C440.372 7.39032 442.593 7.70428 445.465 7.75415C445.711 7.75708 445.947 7.76001 446.178 7.76001C448.542 7.76001 450.244 7.56342 452.214 7.34924C456.753 7.41675 461.354 7.45197 465.972 7.45197C478.947 7.45197 492.051 7.17322 504.276 6.59235C513.532 6.14935 522.812 5.86768 532.098 5.73273C535.344 5.85596 538.671 5.90582 542.04 5.90582C546.681 5.90582 551.402 5.81195 556.095 5.70337C571.99 5.88818 587.832 6.46912 603.51 7.37274C613.21 7.92725 622.881 8.12085 632.575 8.12085C642.182 8.12085 651.806 7.93018 661.506 7.72186C682.815 7.26123 704.341 7.73944 725.562 6.45148C729.999 6.18158 734.293 6.0965 738.529 6.0965C742.251 6.0965 745.932 6.164 749.636 6.22852C753.343 6.29602 757.071 6.36053 760.883 6.36053C762.41 6.36053 763.957 6.35181 765.516 6.32538C788.162 5.92639 810.755 5.25446 833.384 4.81146C833.551 4.8056 833.72 4.80267 833.889 4.79974C836.753 5.02856 839.613 5.25446 842.483 5.45691C843.718 5.54492 844.713 5.586 845.571 5.586C848.131 5.586 849.509 5.23688 852.703 4.7851C853.438 4.68243 854.174 4.59735 854.909 4.52692C863.456 4.45941 872.024 4.44183 880.591 4.44183C885.965 4.44183 891.342 4.45062 896.716 4.45648C902.102 4.46234 907.488 4.47119 912.865 4.47119C917.658 4.47119 922.442 4.46527 927.218 4.45062C960.235 4.32153 993.259 4.22473 1026.28 4.16608C1033.61 4.16315 1040.93 4.14551 1048.25 4.14551C1057.2 4.13379 1066.15 4.11621 1075.12 4.08392C1083.01 4.0575 1091.3 3.52356 1099.18 3.52356C1100.81 3.52356 1102.42 3.547 1104.01 3.60272C1119.02 4.14551 1134.14 6.36938 1149.31 6.36938C1154.93 6.36938 1160.57 6.06427 1166.21 5.24866C1171.38 4.51227 1175.29 3.13629 1180.87 2.70795C1183.11 2.54657 1185.38 2.48199 1187.66 2.48199C1193.5 2.48199 1199.42 2.90454 1205 3.22137C1219.24 4.02234 1232.51 5.45398 1246.87 5.45398C1249.98 5.45398 1253.14 5.38361 1256.37 5.22809C1269.41 4.59436 1282.13 3.4502 1295.37 3.0365C1310.35 2.5788 1325.12 1.98328 1340.15 1.71924C1342.06 1.92169 1343.99 2.07715 1345.98 2.10944C1346.17 2.11237 1346.36 2.1153 1346.54 2.1153C1348.57 2.1153 1350.5 1.93927 1352.43 1.76324C1356.83 1.86298 1361.23 2.03021 1365.63 2.20331C1372.5 2.46735 1379.36 2.73431 1386.18 2.73431C1394.05 2.73431 1401.86 2.37933 1409.54 1.25861C1412.48 0.836121 1415.41 0.410767 1418.34 0.0264282C1421.18 0.00592041 1424.03 0 1426.9 0H1428.9C1432.6 0.00292969 1436.3 0.00585938 1440 0.00878906L1439.73 533H0Z" fill="#502314"/>
</svg>