<svg width="183" height="21" viewBox="0 0 183 21" fill="none" xmlns="http://www.w3.org/2000/svg">
<path fill-rule="evenodd" clip-rule="evenodd" d="M71 8.42073V16.6213C71 17.8626 70.3412 18.8995 69.0246 19.739C67.7051 20.5775 65.5421 21 62.5356 21C59.5276 21 57.0199 20.0341 55.0119 18.0985C53.0055 16.1698 52 13.6399 52 10.5128C52 7.39022 53 4.85788 54.9966 2.9173C56.9962 0.972762 59.3962 0 62.1993 0C64.9994 0 67.1357 0.440235 68.5965 1.31725C70.0597 2.19723 70.8039 3.02439 70.8237 3.79086C70.8425 4.56275 70.5896 5.24482 70.0647 5.84989C69.5397 6.45694 69.0246 6.7585 68.5224 6.7585C68.0182 6.7585 67.2878 6.51025 66.3332 6.03349C65.3801 5.54637 64.0966 5.28973 62.4906 5.27542C60.8822 5.25123 59.6925 5.74773 58.9172 6.74665C58.1439 7.75445 57.7557 9.00705 57.7557 10.5212C57.7557 12.0344 58.1849 13.2766 59.0446 14.2612C59.9034 15.2384 61.0407 15.7152 62.4635 15.6994C63.8783 15.6767 64.7687 15.4709 65.1287 15.0697V13.4479H64.1988C62.4027 13.4479 61.5035 12.6114 61.5035 10.9343V8.42073H71ZM16 15.069C16 19.021 13.8531 21 9.56318 21H0V1H9.10648C13.1958 1 15.2377 2.58199 15.2377 5.76404C15.2377 7.85872 14.4218 9.30937 12.7841 10.1233C14.927 11.1296 16 12.7834 16 15.069ZM9.56318 6.94956C9.56318 5.6659 8.9079 5.02725 7.58882 5.02725H6.01063V8.87823H7.65135C8.92841 8.87823 9.56318 8.23518 9.56318 6.94956ZM9.98937 14.7409C9.98937 13.3015 9.25255 12.5822 7.7694 12.5822H6.01063V16.9049H7.83193C9.27056 16.9049 9.98937 16.1857 9.98937 14.7409ZM33 15.4715C33 17.3425 32.1873 18.7339 30.559 19.6372C28.9286 20.5443 27.0803 21 25.0015 21C22.9252 21 21.0748 20.5443 19.444 19.6372C17.8167 18.7339 17 17.3425 17 15.4715V1H19.9792C21.9648 1 22.9564 1.85038 22.9564 3.55697V14.6192C22.9564 15.7358 23.6402 16.2962 25.0015 16.2962C26.3647 16.2962 27.0476 15.7358 27.0476 14.6192V1H30.0238C32.0124 1 33 1.85038 33 3.55697V15.4715ZM49.9598 16.0307L47.2933 12.4123C49.2881 11.2931 50.2834 9.45389 50.2834 6.89406C50.2834 5.46358 49.7421 4.12232 48.6536 2.87126C47.5695 1.6168 46.2063 1 44.5672 1H35V20.8623H37.9305C39.8864 20.8623 40.865 20.0055 40.865 18.2962V13.3254L45.4995 19.6214C46.2795 20.518 47.0458 20.9739 47.7946 20.9986C48.5487 21.0219 49.2584 20.7586 49.9368 20.2116C50.6124 19.6612 50.9643 19.0415 50.9985 18.3505C51.0263 17.658 50.6797 16.887 49.9598 16.0307ZM40.865 9.52856V4.99952H42.5514C44.2124 4.99952 45.0407 5.75355 45.0407 7.26307C45.0407 8.77162 44.2124 9.52856 42.5514 9.52856H40.865ZM73 1V21H82.7808C84.2623 21 85 20.2139 85 18.6446V16.2867H78.7122V13.3264H82.2024C83.6839 13.3264 84.4244 12.5339 84.4244 10.9543V8.57989H78.7122V5.70447H82.7808C84.2623 5.70447 85 4.92422 85 3.35297V1H73ZM99.2961 12.4123L101.96 16.0307C102.683 16.887 103.029 17.658 102.998 18.3505C102.967 19.0415 102.615 19.6612 101.938 20.2116C101.259 20.7586 100.547 21.0219 99.7944 20.9986C99.0486 20.9739 98.2812 20.518 97.5002 19.6214L92.8664 13.3254V18.2962C92.8664 20.0055 91.8867 20.8623 89.9298 20.8623H87V1H96.5679C98.208 1 99.5733 1.6168 100.655 2.87126C101.742 4.12232 102.285 5.46358 102.285 6.89406C102.285 9.45389 101.288 11.2931 99.2961 12.4123ZM92.8664 4.99952V9.52856H94.5539C96.214 9.52856 97.0409 8.77162 97.0409 7.26307C97.0409 5.75355 96.214 4.99952 94.5539 4.99952H92.8664ZM128.028 16.213L123.33 10.9783L128.028 5.77286C128.71 5.03731 129.027 4.32525 128.978 3.63812C128.929 2.94716 128.573 2.31998 127.915 1.73834C127.255 1.16774 126.533 0.922234 125.746 1.02149C124.957 1.11691 124.229 1.56812 123.567 2.37128L117.887 8.51992V1.21137H112V20.8306H114.943C116.908 20.8306 117.887 19.9896 117.887 18.3032V13.466L123.567 19.639C124.221 20.4384 124.948 20.8781 125.746 20.9807C126.542 21.0737 127.271 20.8306 127.929 20.2519C128.589 19.6683 128.942 19.0368 128.995 18.3641C129.046 17.6832 128.723 16.9711 128.028 16.213ZM136 18.4161C136 20.1372 135.002 21 133.001 21H130V3.57513C130 1.85642 130.998 1 133.001 1H136V18.4161ZM150.116 3.57674V9.91393L143.645 2.20959C143.1 1.38491 142.199 0.990883 140.943 1.00016L138 1.01041V21H140.943C142.903 21 143.882 20.1372 143.882 18.4161V12.0457L150.475 19.8687C151.11 20.6211 151.97 21 153.057 21C155.019 21 156 20.1372 156 18.4161V1.00016H153.057C151.098 1.00016 150.116 1.85658 150.116 3.57674ZM177 8.42073V16.6213C177 17.8626 176.344 18.8995 175.023 19.739C173.704 20.5775 171.539 21 168.536 21C165.528 21 163.02 20.0341 161.011 18.0985C159.004 16.1698 158 13.6399 158 10.5128C158 7.39022 158.999 4.85788 160.994 2.9173C162.998 0.972762 165.395 0 168.198 0C171.001 0 173.133 0.440235 174.597 1.31725C176.059 2.19723 176.798 3.02439 176.824 3.79086C176.842 4.56275 176.59 5.24482 176.065 5.84989C175.539 6.45694 175.024 6.7585 174.523 6.7585C174.017 6.7585 173.288 6.51025 172.334 6.03349C171.379 5.54637 170.098 5.28973 168.489 5.27542C166.879 5.25123 165.691 5.74773 164.916 6.74665C164.141 7.75445 163.754 9.00705 163.754 10.5212C163.754 12.0344 164.182 13.2766 165.044 14.2612C165.901 15.2384 167.04 15.7152 168.462 15.6994C169.88 15.6767 170.768 15.4709 171.127 15.0697V13.4479H170.199C168.399 13.4479 167.496 12.6114 167.496 10.9343V8.42073H177ZM180.505 5C179.139 5 178 3.93017 178 2.49148C178 1.06983 179.139 0 180.505 0C181.862 0 183 1.06983 183 2.49148C183 3.93017 181.862 5 180.505 5ZM180.505 0.371514C179.336 0.371514 178.452 1.29019 178.452 2.49148C178.452 3.71301 179.336 4.63062 180.505 4.63062C181.655 4.63062 182.545 3.71301 182.545 2.49148C182.545 1.29019 181.655 0.371514 180.505 0.371514ZM180.031 3.98978H179.462V1.04162H180.562C181.296 1.04162 181.711 1.26783 181.711 1.91346C181.711 2.45689 181.373 2.66234 180.938 2.70066L181.72 3.98978H181.119L180.4 2.72674H180.031V3.98978ZM180.525 1.49617H180.031V2.27432H180.553C180.881 2.27432 181.128 2.22855 181.128 1.86715C181.128 1.5446 180.798 1.49617 180.525 1.49617Z" fill="#F5EBDC"/>
</svg>