<?xml version="1.0" encoding="UTF-8"?>
<svg id="Ebene_1" xmlns="http://www.w3.org/2000/svg" version="1.1" viewBox="0 0 340 102">
  <!-- Generator: Adobe Illustrator 29.0.0, SVG Export Plug-In . SVG Version: 2.1.0 Build 186)  -->
  <defs>
    <style>
      .st0 {
        fill: #fa0;
      }

      .st1 {
        fill: #502314;
      }
    </style>
  </defs>
  <g>
    <path class="st1" d="M1.3,97.2c0-1.7.2-4,.3-7.1.3-5.3.5-11.3.5-21.9,0-6.8,0-12.7,0-15.2,0-2.3,0-3.8,0-8.9,0-8.1-.2-14-1.1-18.9-.5-2.8-.7-6.3-.7-9.7,0-5.1.5-8,2.1-9.8,2-2.3,3-3.2,5-4.1.7-.3,1.3-.4,1.8-.4,1.3,0,1.9,0,1.8,6-.2,14-.4,28.1-.4,41.9,0,11.5.2,23.2.8,34.8.1,2.8.4,5.4.4,7,0,3.3-.6,4.6-1.6,5.3-2.9,1.8-4.3,2.8-7.2,4.7-1,.7-1.7,0-1.7-3.5Z"/>
    <path class="st1" d="M12.7,48.7c-.1-9.9-1.2-47,10.3-47.5,10.4-.5,9.3,34.6,9.3,41.7,0,11.7,2.2,39.3-9.3,45.8-10.6,6-10.2-32.8-10.2-39.9ZM23.5,45.4c0-5.1,0-24.9-.7-24.8-.7,0-1.3,20.3-1.3,25.4,0,4.7.6,24.2,1.3,23.9.7-.3.7-19.9.7-24.5Z"/>
    <path class="st1" d="M33.5,42.5c0-9.1-1.2-41,10.6-41.4,10.1-.3,9.2,28.8,9.2,35.8,0,10.2,1.1,34.5-9.2,39.2-10.9,5-10.6-26.1-10.6-33.6ZM44.4,39.4c0-4.6.1-21.7-.6-21.6-.7,0-1.4,17.5-1.4,22.1,0,4.1.7,20.8,1.4,20.5s.6-17,.6-21Z"/>
    <path class="st1" d="M54.7,19.3c.2-15.3,3.3-18.1,6.6-18.1,3.3,0,6,2.4,5.8,16.3-.2,13.9-3.3,16.9-6.6,17.8-3.3.9-6.1-.7-5.8-16ZM60.3,60.4c.5-2.9,1.1-6.6,1.6-9.8,1.5-9.5,2.7-13.9,4.3-18.1,1.5-4.2,3.1-15.8,4.7-24.1.7-3.6,1-4.7,1.4-5.8,1.8-4.4,6-2.3,4.3,5.4-.6,2.5-1.3,5.8-1.9,8.7-1.8,8.7-3.6,13.2-4.9,17.2-1.2,4-2.5,15.3-3.8,23.9-.5,3.7-.8,4.9-1.1,6.1-1.5,4.9-6,5.3-4.5-3.5ZM61.6,18.3c.2-9.4,0-11.8-.5-11.8-.4,0-.8,2.5-1,12s0,11.8.5,11.7c.4-.1.8-2.5,1-11.9ZM69.4,47.9c-.2-12.9,2.6-16,5.9-16.8,3.3-.8,6.3.9,6.5,12.6.2,11.7-2.6,14.5-5.9,16.1-3.3,1.5-6.3,1.1-6.5-11.8ZM76.3,45.5c-.1-7.9-.5-9.9-.9-9.8-.4.1-.7,2.3-.6,10.3.1,8,.5,9.8.9,9.6.4-.2.7-2.2.6-10.1Z"/>
    <path class="st1" d="M90.3,51c0-.9,0-2.1.2-3.6.4-3.9.1-16.1.1-19.6,0-3.4.2-16.4-.1-20.2-.1-1.6-.2-2.8-.2-3.7,0-2.1.6-2.5,2-2.5,4.6,0,6.9,0,11.5,0,2.5,0,3.4.1,3.3,4.5,0,1.6,0,3.8,0,5.8.3,4.7-.7,6.9-2.3,7.2-2.1.3-2.4-5.2-3.8-5-.9.1-1.6,2.2-1.6,5,0,3,.5,4.4,1.4,4.2,1.1-.2,1.5-1.5,2.8-1.8,1.5-.3,2.3,1.8,2.3,4.4,0,2.6-.8,6.5-2.3,6.8-1.3.3-1.7-1.4-2.8-1.1-.9.2-1.5,1.9-1.4,4.9,0,2.5.4,5,.7,6.7.3,1.4.7,2.7.7,4,0,1.9-.7,2.5-2.1,3.1-2.6,1-3.9,1.5-6.5,2.5-1.3.5-1.9.4-2-1.5Z"/>
    <path class="st1" d="M108.4,44.6c0-.8,0-1.8.2-3.1.4-3.4.3-13.2.3-17.3,0-3.8.1-14.4-.2-17.5-.1-1.3-.3-2.4-.2-3.2,0-1.8.6-2.1,1.9-2.1,2.6,0,4,0,6.6,0,1.5,0,2.2.5,2.2,2.2,0,1.2-.3,2.2-.7,3.6-.4,1.3-.8,3.4-.9,6.2-.1,3.2-.2,6.2-.2,8.2,0,2.2,0,3.9.2,7.1,0,2.4.7,3.8,1.8,3.6,2.3-.4,1.9-6.6,4.5-6.9,2-.3,2.7,2.1,2.4,5.2-.2,2.4-.3,5-.4,7.4,0,3.3-1,3.9-2.9,4.4-5,1.3-7.5,2-12.5,3.6-1.3.4-2.1.3-2.1-1.3Z"/>
    <path class="st1" d="M127,39.1c0-.6,0-1.4.3-2.3,1.8-10.6,4.2-21,5.8-31.6.7-3.8,1.9-3.7,3.5-3.7,1.1,0,1.7,0,2.8,0,1.7,0,2.9.2,3.6,3.4,1.6,9.5,3.8,19,6.2,28.4.2.6.3,1.1.3,1.6,0,1.5-.8,2.4-2,2.5-3.2.4-4.7.7-7.9,1.2-1.3.2-1.8-.3-1.8-1.5,0-.4,0-1,.2-1.5.2-.8.4-1.6.4-2.2,0-.9-.2-1.5-.8-1.5-.6,0-.7,0-1.2.2-.6.1-.9,1-.9,2,0,.6.1,1.4.4,2.1.1.4.2.8.2,1.2,0,1.1-.4,1.9-1.6,2.1-2.1.4-3.2.7-5.3,1.2-1.4.3-2.1-.1-2.1-1.7ZM137.6,21.3c.3,0,.4-.2.4-.6-.2-1.4-.5-3.2-.6-3.8,0-.4-.2-.7-.4-.6-.2,0-.3.3-.4.7-.1.7-.4,2.5-.6,4.1,0,.2.1.4.3.4.5,0,.8,0,1.4-.1Z"/>
    <path class="st1" d="M150.3,35.2c0-.7.2-1.6.4-2.6.3-1.7.5-3.7.6-6.2.3-4.9.5-9.2.5-14.2,0-3.4,0-4.4-.1-5.9,0-1.1-.4-2.1-.4-2.8,0-1.3.6-1.9,2.1-1.9,2.2,0,3.4,0,5.6,0,2.6,0,3.1.5,3.6,3.3.2,1,.3,2.2.6,3.8.1.8.5.7.6,0,.2-1.6.4-2.8.5-3.7.4-2.7.9-3.3,3-3.3,2.4,0,3.6,0,5.9,0,1.3,0,1.9.7,1.9,1.9,0,1.6-.6,2.1-.5,5.9.1,6.5.3,12.4.6,16.5.2,2.9.4,4.5.8,5.8.2.9.4,1.6.4,2.3,0,1.2-.6,1.9-1.6,1.9-2.9,0-4.3-.1-7.2,0-1,0-1.6-.7-1.6-1.9,0-.6.2-1.2.3-2.2.3-3.3.4-5.3.4-10.3,0-.3-.1-.5-.3-.5-.1,0-.2.1-.3.4-.3,3.6-.7,7.2-1,10.1-.3,2.1-1.3,2.7-2.3,2.8-.5,0-.8,0-1.3,0-1,0-1.7-.6-2-2-.2-1.6-.6-5.8-1.2-11,0-.3-.1-.4-.3-.4-.2,0-.3.2-.3.5,0,2.8.3,8.4.4,10,.1,1.5.4,2.4.4,3.1,0,1.2-.6,1.9-2,2.1-1.9.2-2.8.3-4.7.5-1,.1-1.6-.4-1.6-1.7Z"/>
    <path class="st1" d="M177.2,34.1c0-.6.1-1.3.3-2.1.5-2.1.5-6.1.5-13.4,0-6.6-.1-11-.5-13-.2-.8-.3-1.6-.3-2.1,0-1.3.5-1.9,1.9-1.9,4.6,0,6.9,0,11.5,0,2.2,0,3.2.5,3.2,2.6,0,1,.1,2.6.3,3.8.4,2.7-.5,5.1-2.2,5-2-.1-2.5-3.1-4.1-3.1-.7,0-1.3.7-1.3,2.3,0,1.5.6,2.3,1.5,2.4,1.1,0,1.1-.7,2.2-.6,1.4.1,2.2,2.4,2.2,4.9s-.8,5.2-2.2,5.1c-1.1,0-1.1-1.3-2.2-1.4-.8,0-1.5.7-1.5,2.2,0,1.9.7,2.8,1.8,2.8,2.7.2,2.4-3.6,4.7-3.4,1.8.1,2.5,2.6,2.1,5.5-.2,1.5-.3,3.2-.3,4.5,0,2.8-1.3,3.2-3.6,2.9-4.9-.6-7.3-.8-12.2-1.1-1.3,0-1.9-.7-1.9-2Z"/>
    <path class="st1" d="M194.6,20.4c0-2.3,1.1-3.8,2.7-3.6,1.9.2,2.9.3,4.8.5,1.8.2,2.7,2.1,2.7,4,0,2.2-1,4.4-2.7,4.2-1.9-.2-2.9-.3-4.8-.4-1.6-.1-2.7-2.3-2.7-4.7Z"/>
    <path class="st1" d="M206.1,20.7c0-8.4,4.5-19.5,11.8-19.5s2.5,0,3.6.6c.2.1.4.2.7.2.2,0,.4-.1.6-.3.3-.3.8-.5,1.6-.5,1.3,0,2.2,0,2.2,2,0,2,.1,5.1.3,6.9.1,1.6.2,2.9.2,4.6,0,3.8-1.5,5.9-3.4,5.6-1.1-.2-2.3-1.2-3.1-3.6-.9-3.1-2-4.5-2.9-4.6-1.6-.1-3,3.3-3,7.2,0,6.6,2.4,11.2,3.8,11.4.5,0,.8-.2.8-1,0-1-.6-1.9-1.4-2.9-.9-1.1-1.3-2.7-1.2-3.8,0-1.5.8-2.4,2.1-2.2,2.8.4,4.2.6,7,1.1,1,.2,1.6,1,1.6,1.9,0,.9-.5.9-.6,6.2,0,4.1.4,5.6.4,7.5,0,1.3-.2,2.6-.7,3.7-1.3,2.7-4.7,2.4-8.7,1.4-6.9-1.8-11.8-12.7-11.7-21.8Z"/>
    <path class="st1" d="M228.4,43.3c0-.7.2-1.6.3-2.8.5-3,.7-12.7.7-16.5,0-3.9,0-14.2-.5-17.3-.2-1.3-.3-2.4-.3-3.1,0-1.7.5-2.1,1.9-2.1,3.9,0,5.8,0,9.7,0,4.8,0,8.6,2.4,8.5,16.1,0,8.4-1.4,9.3-2.9,9.7-.2,0-.4.2-.4.3,0,.2,0,.4.4.6,2,1.9,2.7,6.8,3.3,13.8.4,4.4.8,5.7.8,7.8,0,2.4-.7,2.6-2.6,1.9-2-.8-3-1.2-5-1.9-1.7-.6-2.5-1-2.5-3.9,0-2,.1-4.9.2-10.6,0-3-.4-4.3-1.1-4.4-.8-.2-1.1,1-1.1,3,0,2.7.2,6.1.5,8.3.2,1.5.6,3.1.5,4.2,0,1.8-.6,1.9-2.1,1.4-2.6-.9-3.9-1.3-6.5-2.1-1.3-.4-1.9-.9-1.8-2.5ZM240.5,18.4c0-3.9-.9-5.6-1.8-5.7-.6,0-.8.5-.8,2,0,2.7,0,4.1,0,6.4,0,1.2.3,1.6.8,1.7.8.2,1.8-.5,1.8-4.4Z"/>
    <path class="st1" d="M250.6,50.9c0-.9.2-2,.4-3.4.5-3.6.8-16.2.8-19.2.1-3.5,0-16.8-.5-20.6-.2-1.6-.3-2.9-.3-3.8,0-2.1.5-2.5,1.9-2.5,2.6,0,4,0,6.6,0,1.3,0,1.9.4,1.9,2.7,0,1-.1,2.4-.3,4.1-.4,4.1-.5,18.5-.6,22,0,2.9-.2,16.6.2,20.9.1,1.7.3,3,.2,3.9,0,2.1-.6,2.1-1.9,1.5-2.6-1.1-3.9-1.7-6.5-2.8-1.3-.5-1.8-1-1.8-2.9Z"/>
    <path class="st1" d="M261.9,55.5c0-1,.2-2.2.4-3.7.5-4,.8-18.1.9-20.9.1-3.4,0-18.3-.5-22.5-.2-1.8-.3-3.2-.3-4.2,0-2.3.5-2.7,1.9-2.7,2.6,0,4,0,6.6,0,1.5,0,2.2.6,2.2,3.2,0,1.9-.3,3.5-.6,5.6-.4,2.1-.7,5.3-.8,9.6,0,4.8-.1,9.4-.1,11.7,0,2.6,0,3.8,0,8.3,0,3.5.5,6,1.7,6.4,2.3.8,2.1-8.6,4.7-7.9,2,.6,2.5,4.3,2.2,9.5-.3,4-.5,8.6-.6,12.6-.2,5.7-1.1,5.3-3.1,4.3-5-2.5-7.5-3.7-12.5-6-1.3-.6-2-1.2-2-3.3Z"/>
    <path class="st1" d="M280.8,64.2c0-1.2.2-2.6.4-4.4.5-4.7.8-21.5.9-24.2.1-3.4,0-21.1-.5-26-.2-2.1-.3-3.8-.3-4.9,0-2.7.5-3.2,1.9-3.2,2.6,0,4,0,6.6,0,1.5,0,2.2.7,2.2,3.8,0,2.3-.3,4.1-.6,6.5-.4,2.4-.7,6.2-.8,11.1,0,5.6-.1,10.8-.1,13.4,0,2.9,0,4.1,0,9.4,0,4,.5,7,1.7,7.4,2.3.9,2.1-10.1,4.7-9.2,2,.6,2.6,4.9,2.2,11-.3,4.7-.5,10-.6,14.8-.2,6.7-1.1,6.4-3.1,5.3-5-2.9-7.5-4.3-12.5-6.9-1.3-.7-2-1.4-2-3.9Z"/>
    <path class="st1" d="M299.7,74.2c0-1.4.2-3.1.4-5.2.7-9.3.8-18.8.9-28.1.1-9.8,0-19.9-.5-29.8-.2-2.4-.3-4.4-.3-5.7,0-3.1.5-3.7,1.9-3.7,4.6,0,6.9,0,11.5,0,2.2,0,3.2.6,3.2,6.2,0,2.6.1,7.4.3,10.9.4,7.7-.5,14.2-2.2,13.8-2-.4-2.4-8.4-4.1-8.7-.7-.1-1.3,2-1.3,6.3,0,4,.6,5.8,1.5,6,1.1.3,1.1-1.5,2.2-1.2,1.4.3,2.2,7,2.2,9.5,0,2.5-.9,7.6-2.3,7.1-1.1-.4-1.1-3-2.2-3.3-.8-.3-1.5.9-1.5,4.4,0,4.3.7,7.1,1.8,7.6,2.7,1.1,2.4-8.2,4.8-7.4,1.8.6,2.4,6.5,2.1,14.4-.2,4.2-.3,9.1-.4,12.7,0,8-1.4,7.5-3.7,6-4.9-3.1-7.4-4.6-12.3-7.5-1.4-.8-1.9-1.6-1.8-4.5Z"/>
    <path class="st1" d="M318.8,85.2c0-1.6.2-3.6.4-6.2.7-10.9.7-21.8.8-32.7,0-11.2,0-22.6-.5-33.8-.2-2.7-.3-5-.3-6.6,0-3.6.5-4.3,1.9-4.3,2.2,0,3.4,0,5.6,0,15.8,1.5,12.8,44.5,12.8,54,0,5.3,2.9,45.6-10.1,40.5-3.5-2.3-5.2-3.5-8.6-5.7-1.4-.9-1.9-1.8-1.9-5.3ZM330.9,54.3c0-15-.7-26.1-1.8-26.3-.4,0-.6,1.7-.6,3.5,0,10.2,0,20.3,0,30.5,0,4.4.3,6.9.9,7.1.8.4,1.6-6.6,1.6-14.8Z"/>
  </g>
  <g>
    <path class="st0" d="M68.8,99.2c0-.6.2-1.3.4-2.1.6-2,.7-5,.7-10.8s-.1-8.9-.7-10.8c-.2-.8-.4-1.5-.4-2.1,0-1.4.7-2.3,2.4-2.3h8.5c1.7,0,2.4.9,2.4,2.3s-.2,1.3-.4,2.1c-.6,1.9-.7,5-.7,10.8s0,8.8.7,10.8c.2.8.4,1.5.4,2.1,0,1.4-.7,2.3-2.4,2.3h-8.5c-1.7,0-2.4-.9-2.4-2.3Z"/>
    <path class="st0" d="M83.3,99.3c0-.6.2-1.1.3-1.6.4-1.2.7-2.6.8-4.7,0-1,0-1.9,0-2.9s0-1.9,0-2.8c0-2.1-.4-3.5-.8-4.7-.2-.5-.3-1-.3-1.6,0-1.3.8-1.9,2.2-2.2l6.6-1.2c.3,0,.5,0,.7,0,1.5,0,2.1,1,2.1,2.5v.7c0,.3.2.4.3.4.3,0,.4-.1.6-.5,1-2.2,2.7-3.2,4.6-3.2,3,0,4.4,2.8,4.4,5.6s-1.7,6.5-4.8,6.4c-2.9,0-2.7-3.1-4-3.1s-.9.4-1,1.4c0,.8,0,1.6,0,2.4,0,2.6.3,5.4.9,7.3.2.5.3,1,.3,1.6,0,1.3-.8,2.2-2.2,2.2h-8.4c-1.3,0-2.2-.9-2.2-2.2Z"/>
    <path class="st0" d="M105.3,71.9c0-2.7,2.1-4.7,6.3-4.7s6.3,2,6.3,4.7-2.1,4.7-6.3,4.7-6.3-1.9-6.3-4.7ZM105.6,99.3c0-.6.2-1.1.3-1.6.4-1.2.7-2.6.8-4.7,0-1,0-1.9,0-2.9s0-1.9,0-2.8c0-2.1-.4-3.5-.8-4.7-.2-.5-.3-1-.3-1.6,0-1.3.8-1.9,2.2-2.2l6.6-1.2c.3,0,.5,0,.7,0,1.5,0,2.1,1,2.1,2.5,0,2.1,0,4.3,0,6.4s0,4.2,0,6.4c0,2.1.4,3.5.8,4.7.2.5.3,1,.3,1.6,0,1.3-.8,2.2-2.2,2.2h-8.4c-1.3,0-2.2-.9-2.2-2.2Z"/>
    <path class="st0" d="M122.2,101.2c-1.5-.4-2.3-1.1-2.3-2.5s-.2-2-.4-3.2c-.4-2.1,1-3.2,2.7-3.2s1.9.5,2.6,1.3c1.1,1.2,2.4,1.7,3.5,1.7s1.3-.3,1.3-.8-.6-1.2-3.3-1.9c-4.1-1.1-6.5-3.6-6.5-7.7s4.1-7.5,9.7-7.5,4.4.3,5.6.7c1.4.4,1.7,1.1,1.8,2.3,0,1.3.3,2,.5,3.2.2,1.8-1.2,2.7-2.6,2.7s-1.6-.3-2.2-.9c-1.4-1.4-2.2-2-3.3-2s-1,.3-1,.8c0,.7.6,1.1,3,1.9,4.5,1.6,7.2,3.4,7.2,7.8s-3,8.1-8.7,8.1-5.7-.3-7.4-.8Z"/>
    <path class="st0" d="M139,99.3c0-.6.2-1.1.3-1.6.4-1.2.7-2.6.8-4.7,0-2.4.1-4.8.1-7.2s0-4.8-.1-7.1c0-2.1-.4-3.5-.8-4.7-.2-.5-.3-1-.3-1.6,0-1.3.8-1.9,2.2-2.2l6.6-1.2c.3,0,.5,0,.7,0,1.5,0,2.1,1,2.1,2.5v7.4c0,.3.3.5.6.3,1-.8,2.8-1.7,5.5-1.7,4.4,0,7.4,2.6,7.1,7.5,0,1.3,0,2.7,0,4s0,2.7,0,4c0,2.1.4,3.5.8,4.7.2.5.3,1,.3,1.6,0,1.3-.8,2.2-2.2,2.2h-8.4c-1,0-1.9-.9-1.9-2.2s.2-1.1.3-1.6c.3-1.2.4-2.6.5-4.7,0-1.1,0-2.2,0-3.3s0-2.2,0-3.3c0-1-.6-1.6-1.4-1.6s-1.3.6-1.4,1.8c0,1.1,0,2.2,0,3.2s0,2.2,0,3.2c.1,2.1.2,3.5.5,4.7.1.5.3,1,.3,1.6,0,1.3-.5,2.2-1.9,2.2h-8.4c-1.3,0-2.2-.9-2.2-2.2Z"/>
    <path class="st0" d="M175.5,99.2c0-.6.2-1.3.4-2.1.6-2,.7-5,.7-10.8s-.1-8.9-.7-10.8c-.2-.8-.4-1.5-.4-2.1,0-1.4.7-2.3,2.4-2.3h13.3c5.8,0,9.8,2.9,9.8,8.1s-1.6,4.7-3.5,5.8c-.2.1-.3.3-.3.5s.1.5.4.6c2.8,1.3,4.2,3.7,4.2,6.4,0,5.4-3.6,8.9-11,8.9h-13.1c-1.7,0-2.4-.9-2.4-2.3ZM190.5,80.6c0-1.7-1.1-2.3-2.1-2.3s-.9.3-.9,1v2.6c0,.7.3,1,.9,1,1,0,2.1-.6,2.1-2.3ZM191.1,91.2c0-1.6-1.3-2.6-2.6-2.6s-.9.3-.9,1v3.1c0,.7.3,1,.9,1,1.4,0,2.6-.9,2.6-2.6Z"/>
    <path class="st0" d="M203,89.8c0-8.1,4.8-12.4,11.3-12.4s10.3,4.2,10.3,10.6-.8,2.9-2.3,2.9h-8.1c-.4,0-.6.2-.6.6,0,1.6,2,3.1,4,3.1s2-.1,3.2-.7c.4-.2.9-.3,1.3-.3,1.1,0,2,.9,2,2.1s0,.6-.2,1c-1.6,3.9-4.9,5.5-9.2,5.5-6.8,0-11.6-4.7-11.6-12.2ZM215.4,86.4c.4,0,.6-.1.6-.7,0-1.4-.7-2.2-1.5-2.2s-1.5,1.1-1.5,2.3.2.6.8.6h1.6Z"/>
    <path class="st0" d="M225.5,89.8c0-8.1,4.8-12.4,11.3-12.4s10.3,4.2,10.3,10.6-.8,2.9-2.3,2.9h-8.1c-.4,0-.6.2-.6.6,0,1.6,2,3.1,4,3.1s2-.1,3.2-.7c.4-.2.9-.3,1.3-.3,1.1,0,2,.9,2,2.1s0,.6-.2,1c-1.6,3.9-4.9,5.5-9.2,5.5-6.8,0-11.6-4.7-11.6-12.2ZM237.9,86.4c.4,0,.6-.1.6-.7,0-1.4-.7-2.2-1.5-2.2s-1.5,1.1-1.5,2.3.2.6.8.6h1.6Z"/>
    <path class="st0" d="M249.1,99.3c0-.6.2-1.4.4-2.4.6-2.6.8-5.5.8-9s0-2.3,0-3.3c0-.9-.3-1.2-1.2-1.2h-.3c-.8,0-1.3-.5-1.3-1.4v-2.5c0-.9.5-1.4,1.3-1.4s1.5-.3,1.5-1.2-.6-1.7-.6-3.2c0-3.9,3.7-6.5,9-6.5s8.3,1.7,8.3,5-1.4,4.4-4.3,4.4-2.7-1.9-4-1.9-1.1.4-1.1,1c0,1.3,1.7,2.4,4.8,2.4h1.6c.9,0,1.4.5,1.4,1.4v2.5c0,.9-.5,1.4-1.4,1.4h-2.1c-1,0-1.2.3-1.2,1.2,0,1,0,2.1,0,3.2,0,3.6.2,6.6.8,9.1.3,1,.4,1.8.4,2.4,0,1.3-.8,2.2-2.2,2.2h-8.4c-1.3,0-2.2-.9-2.2-2.2Z"/>
  </g>
</svg>