<svg width="165" height="167" viewBox="0 0 165 167" fill="none" xmlns="http://www.w3.org/2000/svg">
<g clip-path="url(#clip0_9_3489)">
<path d="M0.105713 53.2123V76.3949C0.105713 82.2985 4.89119 87.084 10.7948 87.084H82.0006V42.5232H10.7948C4.89119 42.5232 0.105713 47.3087 0.105713 53.2123Z" fill="#F2E737"/>
<path d="M166.205 42.5232H94.9993V87.084H166.205C172.109 87.084 176.894 82.2985 176.894 76.3949V53.2123C176.894 47.3087 172.109 42.5232 166.205 42.5232Z" fill="#F2E737"/>
<path d="M10.0415 187.344C10.0415 191.169 13.1412 194.268 16.9661 194.268H81.9985V94.9756H10.0415V187.344Z" fill="#F2E737"/>
<path d="M94.9993 194.268H160.032C163.857 194.268 166.956 191.169 166.956 187.344V94.9756H94.9993V194.268Z" fill="#F2E737"/>
<path d="M42.9331 35.0007C45.1737 36.2505 49.7304 37.9104 63.3788 37.9104C70.9013 37.9104 77.5582 37.3966 77.8367 37.3751C79.3433 37.2585 80.6924 36.3929 81.4285 35.0719C82.1645 33.7509 82.1905 32.1492 81.4976 30.8045C79.4362 26.8025 68.76 6.62455 61.1231 2.36791C58.3451 0.818086 55.2044 0 52.04 0C45.2644 0 39.0068 3.67383 35.7107 9.58822C30.6964 18.5872 33.9364 29.9864 42.9331 35.0007ZM43.6001 13.9852C45.3032 10.9287 48.5367 9.03132 52.04 9.03132C53.6697 9.03132 55.2886 9.45439 56.724 10.2552C59.5258 11.818 65.2071 20.1499 70.1048 28.7452C68.0779 28.8208 65.764 28.8747 63.3766 28.8747C51.4248 28.8747 48.0726 27.5235 47.3279 27.1091C42.6849 24.521 41.0099 18.6325 43.6001 13.9852Z" fill="#F2E737"/>
<path d="M99.163 37.3751C99.4436 37.3966 106.098 37.9104 113.621 37.9104C127.269 37.9104 131.826 36.2505 134.067 35.0007C143.063 29.9864 146.303 18.5872 141.289 9.58822C137.993 3.67383 131.735 0 124.96 0C121.795 0 118.655 0.818086 115.877 2.36576C108.24 6.62239 97.5636 26.8004 95.5022 30.8023C94.8093 32.1471 94.8352 33.7487 95.5712 35.0697C96.3073 36.3929 97.6564 37.2563 99.163 37.3751ZM120.274 10.2552C121.709 9.45439 123.33 9.03132 124.958 9.03132C128.461 9.03132 131.694 10.9287 133.397 13.9852C135.988 18.6325 134.315 24.5188 129.667 27.1112C128.925 27.5257 125.571 28.8769 113.619 28.8769C111.231 28.8769 108.92 28.8208 106.891 28.7474C111.79 20.1499 117.472 11.818 120.274 10.2552Z" fill="#F2E737"/>
</g>
<defs>
<clipPath id="clip0_9_3489">
<rect width="177" height="194.268" fill="white"/>
</clipPath>
</defs>
</svg>
