<svg width="160" height="48" viewBox="0 0 160 48" fill="none" xmlns="http://www.w3.org/2000/svg">
<g clip-path="url(#clip0)">
<rect width="159.552" height="48" rx="8" fill="white"/>
<path d="M53.0884 18V10.1797H55.2959C55.9762 10.1797 56.5778 10.3301 57.1006 10.6309C57.6234 10.9316 58.0262 11.3595 58.3091 11.9146C58.5955 12.4696 58.7406 13.1069 58.7441 13.8267V14.3262C58.7441 15.0638 58.6009 15.7101 58.3145 16.2651C58.0316 16.8201 57.6252 17.2463 57.0952 17.5435C56.5688 17.8407 55.9548 17.9928 55.2529 18H53.0884ZM54.1196 11.0283V17.1567H55.2046C55.9995 17.1567 56.6172 16.9097 57.0576 16.4155C57.5016 15.9214 57.7236 15.2178 57.7236 14.3047V13.8481C57.7236 12.9601 57.5142 12.2708 57.0952 11.7803C56.6799 11.2861 56.089 11.0355 55.3228 11.0283H54.1196ZM59.8882 15.0405C59.8882 14.4712 59.9992 13.9591 60.2212 13.5044C60.4468 13.0496 60.7583 12.6987 61.1558 12.4517C61.5568 12.2046 62.0133 12.0811 62.5254 12.0811C63.3167 12.0811 63.9559 12.355 64.4429 12.9028C64.9334 13.4507 65.1787 14.1794 65.1787 15.0889V15.1587C65.1787 15.7244 65.0695 16.2329 64.8511 16.6841C64.6362 17.1317 64.3265 17.4808 63.9219 17.7314C63.5208 17.9821 63.0589 18.1074 62.5361 18.1074C61.7484 18.1074 61.1092 17.8335 60.6187 17.2856C60.1317 16.7378 59.8882 16.0127 59.8882 15.1104V15.0405ZM60.8872 15.1587C60.8872 15.8032 61.0358 16.3206 61.333 16.7109C61.6338 17.1012 62.0348 17.2964 62.5361 17.2964C63.041 17.2964 63.4421 17.0994 63.7393 16.7056C64.0365 16.3081 64.1851 15.7531 64.1851 15.0405C64.1851 14.4032 64.0329 13.8875 63.7285 13.4937C63.4277 13.0962 63.0267 12.8975 62.5254 12.8975C62.0348 12.8975 61.6392 13.0926 61.3384 13.4829C61.0376 13.8732 60.8872 14.4318 60.8872 15.1587ZM71.5703 16.6304L72.6875 12.1885H73.6812L71.9893 18H71.1836L69.771 13.5957L68.396 18H67.5903L65.9038 12.1885H66.8921L68.0361 16.5391L69.3896 12.1885H70.1899L71.5703 16.6304ZM75.6362 12.1885L75.6685 12.9189C76.1125 12.3604 76.6925 12.0811 77.4087 12.0811C78.6369 12.0811 79.2563 12.7739 79.2671 14.1597V18H78.2734V14.1543C78.2699 13.7354 78.1732 13.4256 77.9834 13.2251C77.7972 13.0246 77.5054 12.9243 77.1079 12.9243C76.7856 12.9243 76.5028 13.0103 76.2593 13.1821C76.0158 13.354 75.826 13.5796 75.6899 13.8589V18H74.6963V12.1885H75.6362ZM81.8452 18H80.8516V9.75H81.8452V18ZM83.1772 15.0405C83.1772 14.4712 83.2882 13.9591 83.5103 13.5044C83.7358 13.0496 84.0474 12.6987 84.4448 12.4517C84.8459 12.2046 85.3024 12.0811 85.8145 12.0811C86.6058 12.0811 87.245 12.355 87.7319 12.9028C88.2225 13.4507 88.4678 14.1794 88.4678 15.0889V15.1587C88.4678 15.7244 88.3586 16.2329 88.1401 16.6841C87.9253 17.1317 87.6156 17.4808 87.2109 17.7314C86.8099 17.9821 86.348 18.1074 85.8252 18.1074C85.0374 18.1074 84.3983 17.8335 83.9077 17.2856C83.4207 16.7378 83.1772 16.0127 83.1772 15.1104V15.0405ZM84.1763 15.1587C84.1763 15.8032 84.3249 16.3206 84.6221 16.7109C84.9229 17.1012 85.3239 17.2964 85.8252 17.2964C86.3301 17.2964 86.7311 17.0994 87.0283 16.7056C87.3255 16.3081 87.4741 15.7531 87.4741 15.0405C87.4741 14.4032 87.3219 13.8875 87.0176 13.4937C86.7168 13.0962 86.3158 12.8975 85.8145 12.8975C85.3239 12.8975 84.9282 13.0926 84.6274 13.4829C84.3267 13.8732 84.1763 14.4318 84.1763 15.1587ZM93.3018 18C93.2445 17.8854 93.1979 17.6813 93.1621 17.3877C92.7002 17.8675 92.1488 18.1074 91.5078 18.1074C90.9349 18.1074 90.464 17.9463 90.0952 17.624C89.73 17.2982 89.5474 16.8864 89.5474 16.3887C89.5474 15.7835 89.7765 15.3145 90.2349 14.9814C90.6968 14.6449 91.3449 14.4766 92.1792 14.4766H93.146V14.02C93.146 13.6727 93.0422 13.397 92.8345 13.1929C92.6268 12.9852 92.3206 12.8813 91.916 12.8813C91.5615 12.8813 91.2643 12.9709 91.0244 13.1499C90.7845 13.3289 90.6646 13.5456 90.6646 13.7998H89.6655C89.6655 13.5098 89.7676 13.2305 89.9717 12.9619C90.1794 12.6898 90.4587 12.4749 90.8096 12.3174C91.1641 12.1598 91.5526 12.0811 91.9751 12.0811C92.6447 12.0811 93.1693 12.2493 93.5488 12.5859C93.9284 12.9189 94.1253 13.3791 94.1396 13.9663V16.6411C94.1396 17.1746 94.2077 17.599 94.3438 17.9141V18H93.3018ZM91.6528 17.2427C91.9644 17.2427 92.2598 17.1621 92.5391 17.001C92.8184 16.8398 93.0207 16.6304 93.146 16.3726V15.1802H92.3672C91.1497 15.1802 90.541 15.5365 90.541 16.249C90.541 16.5605 90.6449 16.804 90.8525 16.9795C91.0602 17.1549 91.327 17.2427 91.6528 17.2427ZM95.4556 15.0459C95.4556 14.1543 95.6668 13.4382 96.0894 12.8975C96.5119 12.3532 97.0651 12.0811 97.749 12.0811C98.4294 12.0811 98.9683 12.3138 99.3657 12.7793V9.75H100.359V18H99.4463L99.3979 17.377C99.0005 17.8639 98.4473 18.1074 97.7383 18.1074C97.0651 18.1074 96.5155 17.8317 96.0894 17.2803C95.6668 16.7288 95.4556 16.0091 95.4556 15.1211V15.0459ZM96.4492 15.1587C96.4492 15.8175 96.5853 16.3332 96.8574 16.7056C97.1296 17.078 97.5055 17.2642 97.9854 17.2642C98.6156 17.2642 99.0757 16.9813 99.3657 16.4155V13.7461C99.0685 13.1982 98.612 12.9243 97.9961 12.9243C97.5091 12.9243 97.1296 13.1123 96.8574 13.4883C96.5853 13.8643 96.4492 14.4211 96.4492 15.1587ZM104.372 15.0405C104.372 14.4712 104.483 13.9591 104.705 13.5044C104.93 13.0496 105.242 12.6987 105.639 12.4517C106.04 12.2046 106.497 12.0811 107.009 12.0811C107.8 12.0811 108.439 12.355 108.926 12.9028C109.417 13.4507 109.662 14.1794 109.662 15.0889V15.1587C109.662 15.7244 109.553 16.2329 109.334 16.6841C109.12 17.1317 108.81 17.4808 108.405 17.7314C108.004 17.9821 107.542 18.1074 107.02 18.1074C106.232 18.1074 105.593 17.8335 105.102 17.2856C104.615 16.7378 104.372 16.0127 104.372 15.1104V15.0405ZM105.371 15.1587C105.371 15.8032 105.519 16.3206 105.816 16.7109C106.117 17.1012 106.518 17.2964 107.02 17.2964C107.524 17.2964 107.925 17.0994 108.223 16.7056C108.52 16.3081 108.668 15.7531 108.668 15.0405C108.668 14.4032 108.516 13.8875 108.212 13.4937C107.911 13.0962 107.51 12.8975 107.009 12.8975C106.518 12.8975 106.123 13.0926 105.822 13.4829C105.521 13.8732 105.371 14.4318 105.371 15.1587ZM111.848 12.1885L111.88 12.9189C112.324 12.3604 112.904 12.0811 113.621 12.0811C114.849 12.0811 115.468 12.7739 115.479 14.1597V18H114.485V14.1543C114.482 13.7354 114.385 13.4256 114.195 13.2251C114.009 13.0246 113.717 12.9243 113.32 12.9243C112.998 12.9243 112.715 13.0103 112.471 13.1821C112.228 13.354 112.038 13.5796 111.902 13.8589V18H110.908V12.1885H111.848Z" fill="#502314"/>
<path fill-rule="evenodd" clip-rule="evenodd" d="M12.042 11.0552V36.9478C12.042 37.849 12.5649 38.6282 13.3244 39L28.36 23.9971L13.3304 9C12.5676 9.37066 12.042 10.1517 12.042 11.0552ZM16.6943 38.2223L33.1282 28.7548L29.6553 25.2894L16.6943 38.2223ZM38.2365 22.1863C38.7831 22.6038 39.1357 23.2616 39.1357 24.0015C39.1357 24.7303 38.7938 25.3793 38.2612 25.7975L34.7705 27.8086L30.9505 23.9971L34.7679 20.188L38.2365 22.1863ZM33.1256 19.2419L16.704 9.78142L29.6553 22.7046L33.1256 19.2419Z" fill="#502314"/>
<path d="M79.2529 28.734C76.8355 28.734 74.9218 30.547 74.9218 33.0651C74.9218 35.4824 76.8355 37.3962 79.2529 37.3962C81.6702 37.3962 83.584 35.5832 83.584 33.0651C83.584 30.4463 81.6702 28.734 79.2529 28.734ZM79.2529 35.5832C77.9435 35.5832 76.8355 34.4752 76.8355 32.9644C76.8355 31.4535 77.9435 30.3456 79.2529 30.3456C80.5623 30.3456 81.6702 31.3528 81.6702 32.9644C81.6702 34.4752 80.5623 35.5832 79.2529 35.5832ZM69.8856 28.734C67.4683 28.734 65.5545 30.547 65.5545 33.0651C65.5545 35.4824 67.4683 37.3962 69.8856 37.3962C72.303 37.3962 74.2167 35.5832 74.2167 33.0651C74.2167 30.4463 72.303 28.734 69.8856 28.734ZM69.8856 35.5832C68.5762 35.5832 67.4683 34.4752 67.4683 32.9644C67.4683 31.4535 68.5762 30.3456 69.8856 30.3456C71.195 30.3456 72.303 31.3528 72.303 32.9644C72.303 34.4752 71.195 35.5832 69.8856 35.5832ZM58.7053 30.0434V31.8564H63.0364C62.9357 32.8636 62.5328 33.6694 62.0292 34.173C61.4249 34.7774 60.4176 35.4824 58.7053 35.4824C55.9858 35.4824 53.9714 33.3673 53.9714 30.6477C53.9714 27.9282 56.0865 25.813 58.7053 25.813C60.1155 25.813 61.2234 26.4174 62.0292 27.1224L63.3386 25.813C62.2307 24.8058 60.8205 24 58.8061 24C55.18 24 52.0576 27.0217 52.0576 30.6477C52.0576 34.2738 55.18 37.2955 58.8061 37.2955C60.8205 37.2955 62.2307 36.6911 63.4393 35.3817C64.648 34.173 65.0509 32.4607 65.0509 31.1513C65.0509 30.7485 65.0509 30.3456 64.9502 30.0434H58.7053ZM104.434 31.4535C104.031 30.4463 103.024 28.734 100.808 28.734C98.5917 28.734 96.7787 30.4463 96.7787 33.0651C96.7787 35.4824 98.5917 37.3962 101.009 37.3962C102.923 37.3962 104.132 36.1875 104.534 35.4824L103.124 34.4752C102.621 35.1803 102.016 35.6839 101.009 35.6839C100.002 35.6839 99.3975 35.281 98.8939 34.3745L104.635 31.9571L104.434 31.4535ZM98.5917 32.8636C98.5917 31.2521 99.9011 30.3456 100.808 30.3456C101.513 30.3456 102.218 30.7485 102.419 31.2521L98.5917 32.8636ZM93.8577 36.9933H95.7715V24.4029H93.8577V36.9933ZM90.836 29.6405C90.3324 29.1369 89.5266 28.6333 88.5194 28.6333C86.4042 28.6333 84.3898 30.547 84.3898 32.9644C84.3898 35.3817 86.3035 37.1947 88.5194 37.1947C89.5266 37.1947 90.3324 36.6911 90.7353 36.1875H90.836V36.7918C90.836 38.4034 89.9295 39.3099 88.5194 39.3099C87.4115 39.3099 86.6057 38.5041 86.4042 37.7991L84.7927 38.5041C85.2963 39.6121 86.5049 41.0222 88.6201 41.0222C90.836 41.0222 92.6491 39.7128 92.6491 36.5904V28.9354H90.836V29.6405ZM88.6201 35.5832C87.3107 35.5832 86.2028 34.4752 86.2028 32.9644C86.2028 31.4535 87.3107 30.3456 88.6201 30.3456C89.9295 30.3456 90.9368 31.4535 90.9368 32.9644C90.9368 34.4752 89.9295 35.5832 88.6201 35.5832ZM113.197 24.4029H108.664V36.9933H110.578V32.2593H113.197C115.312 32.2593 117.326 30.7485 117.326 28.3311C117.326 25.9137 115.312 24.4029 113.197 24.4029ZM113.297 30.4463H110.578V26.1152H113.297C114.707 26.1152 115.513 27.3239 115.513 28.2304C115.412 29.3383 114.607 30.4463 113.297 30.4463ZM124.88 28.6333C123.47 28.6333 122.06 29.2376 121.557 30.547L123.269 31.2521C123.672 30.547 124.276 30.3456 124.981 30.3456C125.988 30.3456 126.895 30.9499 126.996 31.9571V32.0579C126.693 31.8564 125.888 31.5542 125.082 31.5542C123.269 31.5542 121.456 32.5615 121.456 34.3745C121.456 36.0868 122.967 37.1947 124.578 37.1947C125.888 37.1947 126.492 36.5904 126.996 35.9861H127.096V36.9933H128.909V32.1586C128.708 29.9427 126.996 28.6333 124.88 28.6333ZM124.679 35.5832C124.075 35.5832 123.168 35.281 123.168 34.4752C123.168 33.468 124.276 33.1658 125.183 33.1658C125.988 33.1658 126.391 33.3673 126.895 33.5687C126.693 34.7774 125.686 35.5832 124.679 35.5832ZM135.255 28.9354L133.14 34.3745H133.039L130.823 28.9354H128.809L132.133 36.5904L130.219 40.8208H132.133L137.269 28.9354H135.255ZM118.333 36.9933H120.247V24.4029H118.333V36.9933Z" fill="#502314"/>
</g>
<defs>
<clipPath id="clip0">
<rect width="159.552" height="48" fill="white"/>
</clipPath>
</defs>
</svg>