<svg width="74" height="80" viewBox="0 0 74 80" fill="none" xmlns="http://www.w3.org/2000/svg">
<path fill-rule="evenodd" clip-rule="evenodd" d="M72.0049 67.0051C73.382 67.0051 74 67.6546 74 68.7919C74 70.7875 72.1236 73.5719 68.419 75.6137C62.2439 79.0253 51.6527 80 36.9998 80C22.3473 80 11.7556 79.0253 5.58099 75.6137C1.87639 73.5719 0 70.7875 0 68.7919C0 67.6546 0.617514 67.0051 1.99512 67.0051H72.0049Z" fill="#FF8732"/>
<path fill-rule="evenodd" clip-rule="evenodd" d="M72.0049 22.5381H1.99512C0.617514 22.5381 0 21.8403 0 20.5845C0 13.1416 11.4233 0 36.9998 0C62.3392 0 74 13.1416 74 20.5845C74 21.8403 73.382 22.5381 72.0049 22.5381Z" fill="#FF8732"/>
<path fill-rule="evenodd" clip-rule="evenodd" d="M71.8082 43.8448C70.3545 42.7982 68.162 42.0305 65.0637 42.0305C59.5111 42.0305 54.1016 45.4495 54.1016 53.4043C54.1016 61.0103 59.5111 64.5685 64.8493 64.5685C70.4497 64.5685 74.0007 61.1962 74.0007 56.2653C74.0007 53.1484 71.9991 50.9852 67.9715 50.9852H66.8035C64.7067 50.9852 63.086 51.9388 63.086 54.032C63.086 55.9393 64.8493 56.8468 66.1604 56.8468C66.8035 56.8468 67.2567 57.0326 67.2567 57.5212C67.2567 58.1259 66.4939 58.521 65.6838 58.521C62.9903 58.521 61.1557 56.7305 61.1557 53.4043C61.1557 49.706 63.6583 48.3572 65.5886 48.3572C67.9476 48.3572 68.329 49.5201 69.9731 49.5201C71.8795 49.5201 73.1662 48.0084 73.1662 46.4733C73.1662 45.3337 72.6422 44.4496 71.8082 43.8448Z" fill="#D72300"/>
<path fill-rule="evenodd" clip-rule="evenodd" d="M40.0966 55.5069V60.526C40.0966 62.7793 38.7669 64.5685 36.3196 64.5685C33.8732 64.5685 32.543 62.7793 32.543 60.526V46.1663C32.543 43.8663 33.9209 42.0305 36.415 42.0305C37.9117 42.0305 39.2176 42.5884 40.4768 44.9813L43.7783 51.2549C43.9448 51.5801 44.0874 51.6962 44.2777 51.6962C44.5391 51.6962 44.6812 51.5105 44.6812 51.0925V46.0735C44.6812 43.8196 46.0114 42.0305 48.4583 42.0305C50.9051 42.0305 52.2348 43.8196 52.2348 46.0735V60.4327C52.2348 62.7332 50.8574 64.5685 48.3629 64.5685C46.9143 64.5685 45.5602 64.011 44.3015 61.6177L40.999 55.3441C40.8335 55.0189 40.6909 54.9028 40.5006 54.9028C40.2392 54.9028 40.0966 55.0889 40.0966 55.5069Z" fill="#D72300"/>
<path fill-rule="evenodd" clip-rule="evenodd" d="M7.73222 60.456V57.1566C7.73222 56.8776 7.85031 56.6686 8.13511 56.6686C8.51467 56.6686 8.60993 57.0404 8.70421 57.2261C9.24999 58.504 10.8392 61.2225 12.3098 62.826C13.3056 63.8948 14.5391 64.5685 15.8435 64.5685C18.0495 64.5685 19.8992 62.6865 19.8992 60.665C19.8992 59.4105 19.3539 58.4811 18.3104 57.3656C16.9817 55.9483 15.4168 54.0896 14.8477 53.2297C14.6339 52.9046 14.6101 52.6956 14.6101 52.6022C14.6101 52.3471 14.7524 52.1609 15.0372 51.9057C15.7011 51.3011 17.338 49.7914 18.239 48.4202C18.9267 47.3747 19.2115 46.422 19.2115 45.6321C19.2115 43.6106 17.338 42.0305 15.2977 42.0305C13.9938 42.0305 12.7603 42.7508 11.9303 44.0753C10.8154 45.8412 9.48715 47.886 8.63326 48.6992C8.4199 48.9082 8.30132 48.9548 8.13511 48.9548C7.85031 48.9548 7.73222 48.7687 7.73222 48.4668V46.1435C7.73222 43.8663 6.35636 42.0305 3.86611 42.0305C1.35156 42.0305 0 43.8663 0 46.1435V60.456C0 62.7332 1.35156 64.5685 3.86611 64.5685C6.35636 64.5685 7.73222 62.7332 7.73222 60.456Z" fill="#D72300"/>
<path fill-rule="evenodd" clip-rule="evenodd" d="M18.1911 40.5857C14.3439 40.5857 12.3255 38.3188 12.3255 35.4677V27.5925C12.3255 26.1904 13.1566 25.0685 14.6763 25.0685C16.196 25.0685 17.051 26.1904 17.051 27.5925V35.2105C17.051 35.7718 17.3361 36.4259 18.1911 36.4259C19.0461 36.4259 19.3785 35.7718 19.3785 35.2105V27.5925C19.3785 26.1904 20.2096 25.0685 21.7293 25.0685C23.25 25.0685 24.0811 26.1904 24.0811 27.5925V35.4677C24.0811 38.3188 22.0383 40.5857 18.1911 40.5857ZM2.77857 40.4688H6.12697C9.28558 40.4688 11.2092 38.3892 11.2092 35.7947C11.2092 33.7151 9.9503 32.7569 9.66514 32.5232C9.5469 32.4299 9.42816 32.336 9.42816 32.2426C9.42816 32.1258 9.49969 32.0793 9.61843 31.939C10.0695 31.4247 10.5206 30.6069 10.5206 29.415C10.5206 26.6108 8.59702 25.1149 5.60483 25.1149H2.77857C0.902671 25.1149 0 26.1904 0 27.6389V37.9448C0 39.3938 0.902671 40.4688 2.77857 40.4688ZM4.77369 31.2615C4.3698 31.2615 4.17953 31.0278 4.17953 30.7237V29.1344C4.17953 28.8308 4.3698 28.5971 4.77369 28.5971H5.0822C6.10312 28.5971 6.41212 29.2982 6.41212 29.9058C6.41212 30.4666 6.10312 31.2615 5.0822 31.2615H4.77369ZM4.77369 34.0656H5.20094C6.34059 34.0656 6.67344 34.8136 6.67344 35.4912C6.67344 36.0988 6.34059 36.9636 5.20094 36.9636H4.77369C4.3698 36.9636 4.17953 36.7295 4.17953 36.4259V34.6029C4.17953 34.2993 4.3698 34.0656 4.77369 34.0656ZM30.6353 31.6584C30.2314 31.6584 30.0417 31.4247 30.0417 31.1212V29.5318C30.0417 29.2283 30.2314 28.9946 30.6353 28.9946H30.9677C31.9652 28.9946 32.2738 29.6956 32.2738 30.3033C32.2738 30.8875 31.9652 31.6584 30.9677 31.6584H30.6353ZM25.6008 38.0616C25.6008 39.4637 26.4319 40.5857 27.9521 40.5857C29.4718 40.5857 30.303 39.4637 30.303 38.0616V35.5845C30.303 35.2809 30.4455 35.1406 30.683 35.1406C30.9677 35.1406 31.0626 35.3044 31.1103 35.5845C31.3239 36.7764 31.8937 38.3892 32.5356 39.207C33.3428 40.2586 34.1025 40.5857 34.8625 40.5857C36.0976 40.5857 37.1662 39.6275 37.1662 38.4356C37.1662 37.6412 36.8338 37.057 36.4061 36.5193C35.7175 35.6315 35.1 34.86 34.791 34.0422C34.72 33.8554 34.7672 33.6916 34.9813 33.5279C35.7175 32.9671 36.572 31.7283 36.572 29.7655C36.572 26.7976 34.0786 25.1149 31.0626 25.1149H28.3794C26.503 25.1149 25.6008 26.1904 25.6008 27.6389V38.0616ZM62.4341 38.0616C62.4341 39.4637 63.2653 40.5857 64.7855 40.5857C66.3052 40.5857 67.1363 39.4637 67.1363 38.0616V35.5845C67.1363 35.2809 67.2789 35.1406 67.5163 35.1406C67.801 35.1406 67.8964 35.3044 67.9436 35.5845C68.1577 36.7764 68.7275 38.3892 69.3689 39.207C70.1762 40.2586 70.9363 40.5857 71.6959 40.5857C72.9309 40.5857 74 39.6275 74 38.4356C74 37.6412 73.6672 37.057 73.2394 36.5193C72.4321 35.5146 71.9333 34.86 71.6248 34.0422C71.5533 33.8554 71.601 33.6916 71.8146 33.5279C72.5509 32.9671 73.4058 31.7283 73.4058 29.7655C73.4058 26.7976 70.9124 25.1149 67.8964 25.1149H65.2127C63.3363 25.1149 62.4341 26.1904 62.4341 27.6389V38.0616ZM58.4916 34.6264H56.8532C56.4497 34.6264 56.2595 34.86 56.2595 35.1641V35.608C56.2595 35.9116 56.4497 36.1457 56.8532 36.1457H58.9909C60.3203 36.1457 61.3655 36.9167 61.3655 38.2953C61.3655 39.6979 60.3203 40.4688 58.9909 40.4688H54.5023C52.6264 40.4688 51.7237 39.3938 51.7237 37.9448V27.6389C51.7237 26.1904 52.6264 25.1149 54.5023 25.1149H58.9909C60.3203 25.1149 61.3655 25.8863 61.3655 27.265C61.3655 28.667 60.3203 29.4385 58.9909 29.4385H56.8532C56.4497 29.4385 56.2595 29.6721 56.2595 29.9757V30.3502C56.2595 30.6538 56.4497 30.8875 56.8532 30.8875H58.4916C59.6317 30.8875 60.5344 31.565 60.5344 32.7569C60.5344 33.9488 59.6317 34.6264 58.4916 34.6264ZM49.1593 26.2369C48.1617 25.5124 46.7603 24.9746 44.6703 24.9746C40.9895 24.9746 37.4032 27.3583 37.4032 32.8738C37.4032 38.155 40.9895 40.6091 44.5282 40.6091C48.2566 40.6091 50.6075 38.2719 50.6075 34.86C50.6075 32.6865 49.2775 31.1911 46.6177 31.1911H45.8576C44.4571 31.1911 43.3642 31.8457 43.3642 33.3176C43.3642 34.6264 44.5282 35.2575 45.407 35.2575C45.8576 35.2575 46.1428 35.3978 46.1428 35.7248C46.1428 36.1457 45.644 36.4259 45.0742 36.4259C43.2931 36.4259 42.082 35.1876 42.082 32.8738C42.082 30.3033 43.7442 29.3686 45.0265 29.3686C46.5939 29.3686 46.8552 30.163 47.9476 30.163C49.206 30.163 50.0615 29.1344 50.0615 28.0599C50.0615 27.265 49.7053 26.6578 49.1593 26.2369ZM67.4691 31.6584C67.0653 31.6584 66.875 31.4247 66.875 31.1212V29.5318C66.875 29.2283 67.0653 28.9946 67.4691 28.9946H67.801C68.7986 28.9946 69.1076 29.6956 69.1076 30.3033C69.1076 30.8875 68.7986 31.6584 67.801 31.6584H67.4691Z" fill="#D72300"/>
<path fill-rule="evenodd" clip-rule="evenodd" d="M29.848 46.422C29.848 43.9825 28.3858 42.0305 25.7025 42.0305C23.0188 42.0305 21.5566 43.9825 21.5566 46.422V60.1775C21.5566 62.617 23.0188 64.5685 25.7025 64.5685C28.3858 64.5685 29.848 62.617 29.848 60.1775V46.422Z" fill="#D72300"/>
<path fill-rule="evenodd" clip-rule="evenodd" d="M71.6322 78.0068C71.7718 78.0068 71.8495 77.9389 71.8495 77.8479C71.8495 77.7495 71.7799 77.6964 71.6554 77.6964H71.4619V78.0068H71.6322ZM71.221 78.5447V77.5979C71.221 77.5374 71.2754 77.4769 71.3374 77.4769H71.663C71.919 77.4769 72.0974 77.6284 72.0974 77.8327C72.0974 78.0068 71.9966 78.1584 71.7638 78.1963L72.0198 78.4763C72.043 78.4989 72.0586 78.5294 72.0586 78.5521C72.0586 78.62 72.0123 78.6657 71.9422 78.6657C71.8958 78.6657 71.8646 78.6426 71.8414 78.6126L71.5002 78.2189H71.4619V78.5447C71.4619 78.6047 71.407 78.6579 71.3374 78.6579C71.2754 78.6579 71.221 78.6047 71.221 78.5447ZM72.5087 78.0674C72.5087 77.5069 72.0586 77.1816 71.6166 77.1816C71.1746 77.1816 70.7245 77.5069 70.7245 78.0674C70.7245 78.6505 71.1746 78.961 71.6166 78.961C72.0586 78.961 72.5087 78.6505 72.5087 78.0674ZM70.4766 78.0674C70.4766 77.4616 70.9574 76.9543 71.6166 76.9543C72.2759 76.9543 72.7567 77.4616 72.7567 78.0674C72.7567 78.7188 72.2759 79.1878 71.6166 79.1878C70.9574 79.1878 70.4766 78.711 70.4766 78.0674Z" fill="#D72300"/>
</svg>