<svg width="23" height="20" viewBox="0 0 23 20" fill="none" xmlns="http://www.w3.org/2000/svg">
<path fill-rule="evenodd" clip-rule="evenodd" d="M22.5839 2.38344L15.3207 0.0307089C15.2259 0.00203495 15.0793 -0.0209277 14.9424 0.0307089L7.86842 2.31911L0.794408 0.0307089C0.431825 -0.0851485 0 0.220425 0 0.591321V17.0666C0.00314737 17.3098 0.178371 17.542 0.416118 17.618L7.67927 19.9708C7.80108 20.0097 7.93575 20.0097 8.05756 19.9708L15.1316 17.6824L22.2056 19.9708C22.5652 20.0857 22.9951 19.7872 23 19.4194V2.94405C23.0008 2.69777 22.8246 2.46042 22.5839 2.38344ZM15.7368 16.6439V1.40009L21.7895 3.35764V18.6014L15.7368 16.6439ZM14.5263 1.40009L8.47368 3.35764V18.6014L14.5263 16.6439V1.40009ZM1.21053 16.6439V1.40009L7.26315 3.35764V18.6014L1.21053 16.6439Z" fill="#D62300"/>
</svg>