<svg width="37" height="91" viewBox="0 0 37 91" fill="none" xmlns="http://www.w3.org/2000/svg">
<path d="M12.487 34.9332C12.668 34.8442 12.74 34.6432 12.758 34.3902C12.431 34.4462 12.463 34.1412 12.078 34.2552C11.978 34.7182 12.631 34.4262 12.487 34.9332ZM16.154 24.6102C16.18 24.9982 16.171 25.3512 15.747 25.2892C15.792 24.9722 15.885 24.7032 16.154 24.6102ZM18.464 22.3012C18.457 22.5542 18.568 22.5882 18.735 22.4362C18.895 22.7122 18.664 22.9912 19.144 22.7082C18.937 23.1412 18.556 24.1062 18.192 23.9302C18.795 23.3802 17.966 22.5232 18.464 22.3012ZM19.415 21.0782C19.4 21.5632 19.352 22.0112 19.007 22.1652C18.978 22.0132 18.856 21.9542 18.735 21.8932C18.714 22.0532 18.759 22.2792 18.6 22.3012C18.6 22.0742 18.6 21.8472 18.6 21.6212C19.282 22.0862 18.893 21.1272 19.415 21.0782ZM31.232 2.33321C30.748 2.36421 30.521 2.13821 30.552 1.65421C30.95 1.71021 30.993 2.11821 31.232 2.33321ZM27.971 11.9772C27.67 11.9942 27.913 12.5532 27.835 12.7922C27.647 12.7862 27.537 12.8552 27.428 12.9272C27.273 12.6292 26.973 12.4762 26.884 12.1122C27.291 12.4642 27.792 11.7672 27.971 11.9772ZM9.227 29.3642C9.314 29.0642 8.517 29.9832 8.548 29.2282C9.024 29.6412 9.121 28.7842 8.684 28.6852C8.702 28.4322 8.774 28.2312 8.955 28.1432C8.785 28.7272 9.439 29.1862 9.227 29.3642ZM10.856 37.5142C11.012 36.9902 11.385 36.6852 11.808 36.4272C11.829 36.2682 11.784 36.0422 11.944 36.0192C11.871 36.6912 12.013 37.2572 11.399 37.3772C11.5 37.6942 11.495 38.1432 11.264 38.4642C10.945 37.9572 11.541 37.1342 10.856 37.5142ZM11.264 36.4272C11.339 36.4272 11.418 36.5372 11.264 36.5632C11.233 36.4572 11.15 36.4052 10.992 36.4272C10.97 36.0872 11.297 36.0982 11.399 35.8842C11.672 36.1612 11.436 36.2462 11.264 36.4272ZM13.982 30.0432C13.92 30.5862 14.556 29.9212 14.389 29.5002C14.149 29.6192 13.968 29.9552 13.846 29.5002C14.375 29.5072 14.741 29.2522 14.797 29.0932C14.696 29.5112 15.266 29.2592 15.068 29.7722C14.55 29.3842 14.54 30.2632 14.661 30.4512C14.151 30.3172 14.365 31.1192 13.983 30.7232C13.961 30.8842 14.005 31.1092 13.847 31.1312C13.928 30.8052 13.674 30.1442 13.982 30.0432ZM15.883 26.2392C15.797 25.7352 16.155 24.8922 16.426 25.5602C15.828 25.4812 16.279 26.6152 16.561 26.1022C16.569 26.1862 16.582 26.2642 16.697 26.2382C16.704 26.4722 16.593 26.5872 16.426 26.6462C16.467 26.2892 16.238 26.2012 15.883 26.2392ZM31.368 1.51821C31.532 1.18521 31.16 1.03421 31.232 0.296211C31.392 0.256211 31.745 -0.251788 31.91 0.160212C31.075 0.228212 31.858 1.31021 31.503 1.65421C31.743 1.68521 32.185 1.51821 32.047 1.92521C31.657 1.95321 31.306 1.94321 31.368 1.51821ZM35.171 0.296211C34.966 0.544211 34.683 0.712211 34.221 0.703211C34.2 0.452211 34.963 0.180211 35.171 0.296211ZM31.91 0.703211C31.842 1.54021 32.539 0.827212 32.59 0.567212C32.583 0.800212 32.694 0.915211 32.862 0.974211C32.936 0.777211 32.704 0.272211 32.997 0.295211C33.119 0.594211 32.979 0.878211 33.134 1.38221C32.465 1.08321 33.1 1.65421 32.32 1.65321C32.052 1.47521 31.28 0.950211 31.91 0.703211ZM19.96 58.8102C19.971 58.8122 19.976 58.8132 19.987 58.8152C19.993 58.8522 19.98 58.8402 19.96 58.8102ZM24.214 90.5462C24.62 90.5832 25.063 90.7692 25.425 90.6342C25.557 90.3392 25.034 90.5832 24.89 90.4742C25.457 90.1702 25.233 90.2062 24.932 89.8692C25.045 89.6652 25.199 89.6182 25.374 89.6572C25.653 90.3732 25.727 89.9352 26.287 90.5142C26.159 90.0892 27.121 90.2282 26.704 89.8142C26.802 89.6872 26.974 89.8422 27.122 89.9052C27.431 90.0252 26.741 90.3982 27.264 90.4632C27.41 90.2952 27.274 90.1962 27.356 90.0452C27.434 90.0902 27.511 90.1382 27.59 90.1832C27.376 90.8702 29.364 90.3002 29.874 90.5912C30.312 90.4802 30.127 89.7382 30.524 90.0282C30.582 89.8482 30.289 89.7582 30.127 89.6352C30.379 89.4102 31.054 89.8222 30.893 89.1422C31.478 89.7412 32.002 89.6032 32.433 89.7412C32.602 89.1062 33.052 89.5812 33.222 88.9442C32.782 88.9042 32.946 89.3262 32.408 89.2512C32.488 88.8212 31.733 88.8152 31.566 88.2772C32.019 88.2952 31.939 88.5512 32.57 88.7152C32.88 88.0282 32.888 88.5692 33.264 88.3402C32.978 87.6852 32.255 88.6742 31.936 88.1822C32.472 87.6322 33.138 88.0092 33.399 87.3132C32.699 87.2862 33.195 86.2062 32.532 85.8492C33.311 83.8632 30.744 82.4372 30.991 80.1962C29.578 78.9722 29.617 75.5622 27.915 74.7372C27.842 74.3912 27.726 74.0572 27.374 73.7852C27.524 73.7262 27.69 73.7342 27.863 73.7592C27.591 72.4222 27.572 72.3882 26.917 70.8282C26.722 71.1752 27.21 71.3482 26.853 71.7362C26.831 71.3412 26.174 70.5912 26.707 70.3852C26.721 70.1182 26.495 69.9112 26.144 69.7352C25.951 69.9522 26.04 70.0932 25.985 70.2732C25.947 69.1002 24.78 67.9942 23.693 68.2802C23.234 67.5762 24.32 68.1292 24.529 67.6712C24.41 67.6022 24.296 67.5322 24.177 67.4642C24.832 67.5772 24.634 67.1322 24.615 66.4582C24.412 66.4072 24.574 66.6352 24.408 66.8102C24.373 66.6222 24 66.5172 24.264 66.2502C23.966 66.4162 24.081 66.4942 23.685 66.6972C23.375 66.5772 23.556 66.3322 23.17 66.2332C23.319 66.0452 23.528 66.0872 23.774 66.2752C23.969 66.0622 23.878 65.9202 23.936 65.7392C23.709 65.7612 23.516 65.9132 23.307 65.9992C23.19 65.6182 23.438 65.3572 23.395 64.7882C22.647 64.5492 23.182 63.9822 22.435 63.7442C22.015 63.8612 22.146 63.9952 21.855 64.1892C21.559 63.5722 21.073 63.1222 20.428 62.8682C20.52 62.3222 20.963 63.1542 21.056 62.6092C21.301 62.8422 21.036 63.2082 21.547 63.3742C21.64 63.2202 21.733 63.0642 21.825 62.9082C21.64 62.8352 21.576 63.2322 21.385 63.1202C21.446 62.7962 21.582 62.6572 21.076 62.3062C21.405 61.9582 21.342 61.7102 20.887 61.5622C21.356 61.4442 21.027 61.0242 21.255 60.6742C20.926 60.7472 20.723 60.2292 20.392 60.0032C20.267 60.1992 20.297 60.3572 20.417 60.4922C19.758 60.7482 20.031 59.9412 19.459 60.2402C19.401 60.0902 19.41 59.9222 19.436 59.7512C19.005 59.7022 18.516 59.4102 18.266 59.0582C18.614 58.9982 19.072 59.3642 19.457 59.4482C19.543 59.1962 18.927 59.1212 19.383 58.7742C19.59 58.8142 19.592 58.7442 19.961 58.8122C19.863 58.6762 19.502 57.9822 18.959 57.8892C19.066 57.5292 19.334 57.8082 19.518 57.7482C19.598 57.6612 19.538 57.6102 19.471 57.5612C19.358 57.5242 19.388 57.4502 19.422 57.3742C18.801 57.6512 18.123 57.7152 17.588 58.3382C17.417 58.2502 17.245 58.1612 17.307 58.0132C16.953 57.8712 17.082 58.3772 17.401 58.3852C16.542 58.2512 17.081 58.9682 16.541 58.5062C16.756 58.9642 16.126 59.3792 15.589 59.0462C15.546 59.8832 16.054 60.5792 16.646 61.2552C16.237 61.8732 16.949 62.4352 17.355 63.2542C17.15 62.8792 17.291 62.7812 17.513 62.7242C17.514 62.7222 17.514 62.7212 17.515 62.7182C17.516 62.7192 17.519 62.7222 17.521 62.7232C17.731 62.6692 18.012 62.6492 18.143 62.4592C18.177 62.5282 18.214 62.5972 18.27 62.6592C18.083 62.7402 17.902 62.8262 17.703 62.8942C17.641 62.8282 17.58 62.7662 17.52 62.7222C17.517 62.7232 17.514 62.7232 17.512 62.7232C17.329 63.1382 17.491 63.1982 17.649 63.2382C17.649 63.3112 17.649 63.3842 17.649 63.4582C17.718 63.3872 17.783 63.3542 17.846 63.3392C17.88 63.4052 17.849 63.5252 17.683 63.7662C18.413 64.0292 18.412 64.1682 19.388 64.6202C19.134 64.7912 18.79 64.6062 18.431 64.3682C18.272 64.7412 18.678 65.2672 19.04 65.2042C18.94 65.4632 18.799 65.5562 18.598 65.4162C18.969 65.7502 20.066 65.6382 20.467 66.5252C20.194 66.6172 19.818 66.3062 19.559 66.4602C19.747 66.0932 19.618 65.9132 19.045 65.9962C18.886 66.1852 19.013 66.3012 19.091 66.1832C19.217 66.2832 19.063 66.4542 19 66.6022C19.416 67.0622 19.588 66.5752 19.908 66.6692C19.828 67.1092 19.726 67.1632 19.588 67.7412C20.027 68.1102 21.137 69.1152 20.578 70.0662C20.924 70.4062 21.023 70.3252 21.256 70.7842C20.906 70.7102 20.629 70.9152 20.326 71.0212C20.371 71.2732 20.615 71.5522 20.84 71.4852C20.82 71.3252 20.733 71.1832 20.629 71.0442C20.871 70.8322 21.311 71.3872 21.633 71.4822C21.487 71.5552 21.291 71.4432 21.191 71.6932C21.567 72.1362 22.026 72.1812 22.522 72.6422C21.841 72.3762 21.618 72.5642 21.333 72.2512C21.306 72.6432 21.358 72.7622 21.78 72.8312C20.688 72.8212 22.719 74.6662 21.999 74.8572C21.847 75.1732 22.294 74.8162 22.466 75.1342C22.516 74.9542 22.37 74.8282 22.441 74.6442C22.703 74.6152 22.605 75.1012 23.046 74.6882C23.305 74.9972 22.691 74.8992 22.886 75.2242C23.663 75.6202 23.415 75.8682 24.265 76.3602C24.036 76.4292 24.111 76.5162 24.058 76.7112C23.645 76.3502 23.162 75.6022 22.677 75.5762C22.615 75.7242 22.831 75.8012 22.96 75.9012C22.683 76.3452 23.42 75.8562 23.521 76.5502C23.245 76.5522 22.5 76.4202 22.705 76.0642C22.067 76.4142 22.943 76.7972 23.314 76.9012C23.11 77.0102 22.918 77.1672 22.638 76.9742C22.566 77.1572 22.962 77.2212 22.85 77.4142C23.324 77.2822 23.645 77.4112 23.849 77.0602C24.347 77.5932 24.316 78.2622 24.51 78.8742C24.865 78.8462 24.595 78.5382 24.973 78.3582C25.233 78.6672 24.619 78.5692 24.813 78.8942C24.969 78.9872 25.126 79.0802 25.281 79.1722C25.315 78.9982 25.274 78.8442 25.069 78.7302C25.173 78.6212 25.348 78.7892 25.443 78.6342C25.533 79.2722 25.633 79.4062 25.588 79.9862C25.935 80.3492 26.603 80.7402 26.058 81.0552C26.363 81.2192 26.593 80.7832 26.523 80.5412C26.6 80.5862 26.679 80.6322 26.756 80.6792C26.43 80.9512 26.878 81.4642 26.599 82.0072C27.452 82.0382 27.334 82.8622 27.911 83.2602C27.557 83.5722 27.37 82.1062 26.953 83.0072C27.362 83.0452 27.569 83.4032 27.71 83.7962C27.71 83.8072 27.705 83.8162 27.705 83.8292C26.644 83.8942 27.014 82.5282 25.938 82.6082C26.026 82.4682 26.25 82.4672 26.209 82.2012C25.901 82.6642 25.684 81.5802 25.395 82.0632C25.132 82.0092 25.382 81.4422 24.853 81.6562C25.061 80.9962 24.458 81.1442 24.445 80.7072C24.324 80.7892 24.202 80.8692 24.173 80.7072C23.988 80.7492 24.061 81.0472 24.038 81.2492C23.913 81.2122 23.677 80.6472 23.902 80.7072C23.826 80.4252 23.377 80.8902 23.494 81.2492C22.874 81.0972 23.32 80.8012 22.544 80.5692C22.838 79.9402 22.749 79.8862 22.544 79.2112C22.365 79.0482 22.329 79.1592 22.137 79.2112C22.434 78.9282 22.07 78.8232 22.137 78.3972C21.32 78.4892 21.637 77.4482 20.778 77.5822C20.868 77.3992 21.069 77.3292 21.321 77.3112C20.577 77.3582 20.896 76.8462 20.1 76.7682C19.755 75.3382 18.714 75.4432 18.197 74.1872C17.108 74.2012 16.634 71.4862 15.48 72.2862C15.333 72.2532 15.389 72.0162 15.209 72.0142C15.285 71.8472 15.735 72.1162 15.616 71.4722C15.246 71.4592 15.342 71.6972 15.073 71.4722C15.303 71.0252 14.482 69.9712 13.988 70.2472C13.671 69.8512 13.404 69.2162 13.852 69.0252C13.437 68.6712 13.068 68.2682 13.038 67.5322C12.652 67.7142 12.892 68.1082 12.629 68.6182C12.225 68.1612 12.886 67.6132 12.901 67.1252C12.481 67.7232 12.287 66.7482 12.629 66.8532C12.646 66.3832 11.923 66.6552 11.815 66.3112C11.819 66.1782 11.981 66.2042 12.086 66.1732C10.897 64.0712 10.293 61.9232 9.641 59.5192C9.7 59.3162 9.815 59.5722 10.048 59.5192C9.713 59.0622 10.367 58.4122 9.641 58.2962C9.716 58.4922 9.482 58.9982 9.777 58.9752C9.573 59.0142 9.534 59.1572 9.234 59.3832C8.484 59.3892 9.373 58.3982 9.37 58.5682C9.38 57.9232 9.365 58.9112 8.962 58.4322C8.759 58.1892 9.415 57.1922 8.691 57.2092C8.817 57.0062 9.303 57.3552 8.827 56.9382C9.017 56.5102 9.497 57.1252 9.641 56.8012C9.866 56.5952 9.32 56.8062 8.962 56.6652C8.962 56.4382 8.962 56.2132 8.962 55.9862C9.334 55.8592 9.28 55.3082 9.505 55.0352C9.473 54.7972 9.272 54.7252 8.962 54.7642C9.021 54.9772 9.39 54.8792 9.234 55.3062C9.11 55.5452 8.758 55.5552 8.555 55.7142C8.514 55.3562 8.743 55.2682 9.098 55.3062C9.218 54.7812 8.506 55.0842 8.691 54.4922C8.97 54.5282 8.806 54.1822 9.234 54.0852C9.209 53.9752 9.098 53.9492 9.098 53.8142C8.983 53.8382 8.971 53.7602 8.962 53.6782C8.323 54.2272 8.443 51.7092 8.827 51.7762C9.15 51.6402 8.775 51.3782 8.552 51.4122C8.515 51.4502 8.473 51.4832 8.42 51.5062C8.441 51.4452 8.493 51.4212 8.552 51.4122C8.76 51.1972 8.759 50.7722 9.098 50.6892C8.65 50.3372 9.576 50.0452 8.962 49.8742C9.209 49.3832 9.337 50.1142 9.641 50.0112C9.523 49.6512 9.501 49.0792 9.777 49.1972C9.978 49.1372 9.722 49.0232 9.777 48.7892C9.406 49.0762 9.176 49.0072 8.826 48.6532C9.658 48.5632 8.481 47.7002 9.369 47.4302C9.765 47.5532 9.407 47.9302 9.64 47.9742C10.097 47.9342 9.494 46.8842 9.369 46.8872C9.445 46.6922 9.58 46.5552 9.776 46.4802C9.306 46.5402 9.501 46.0742 9.096 45.8012C9.14 45.6442 9.689 45.3342 9.776 45.6652C10.396 45.4162 9.021 45.3712 9.64 45.1222C9.34 45.1402 9.272 43.8202 9.097 44.5792C8.803 44.6012 9.035 44.0972 8.961 43.9002C10.107 42.7962 10.156 41.7862 10.591 40.0972C9.779 40.1122 9.895 39.7272 9.777 39.2822C9.482 39.2602 9.715 39.7642 9.641 39.9622C9.297 39.5952 9.535 39.4352 9.37 39.0112C9.577 39.3022 10.308 39.0682 10.184 39.6892C10.399 39.7002 10.702 39.6242 10.727 39.8252C10.919 39.7762 10.54 38.6272 11.405 38.8742C11.39 38.3952 11.209 38.8362 10.862 38.6032C11.144 38.3232 10.862 37.9142 10.455 37.9242C10.625 37.5612 10.921 37.0372 10.32 36.9732C10.675 36.7432 10.785 36.1632 10.727 35.2072C11.085 35.1662 11.077 35.4912 11.134 35.7502C11.463 35.6242 11.689 35.3982 11.814 35.0702C11.21 35.3302 11.568 34.2462 11.271 34.9342C11.133 34.5552 11.26 34.1222 11.678 33.8472C11.727 34.0782 11.572 34.1032 11.406 34.1192C11.389 34.3632 11.573 34.4052 11.542 34.6622C11.663 34.5792 11.785 34.4972 11.814 34.6622C12.211 34.5472 11.732 34.2242 11.814 33.9822C11.875 33.8622 11.934 33.7402 12.085 33.7112C12.348 33.7662 12.098 34.3332 12.628 34.1182C12.458 33.2052 12.578 32.7592 12.764 31.9452C13.184 31.9232 13.532 32.2652 13.851 31.9452C13.827 31.3092 13.501 31.4932 13.715 30.8582C13.205 31.1582 13.053 30.2152 13.037 30.8582C12.793 30.8762 12.749 30.6912 12.494 30.7222C12.494 30.4962 12.494 30.2702 12.494 30.0432C12.858 29.9502 12.757 30.3252 12.901 30.4502C13.3 30.3352 12.724 30.1092 12.901 29.7712C13.192 29.9332 13.218 30.3592 13.444 30.5862C13.524 31.1092 13.606 29.7282 13.172 29.9072C13.374 29.6142 13.555 30.0552 13.715 29.6352C13.547 29.2612 13.32 29.4262 13.037 29.4992C12.864 29.2302 13.117 28.9712 12.357 29.0922C12.774 28.5402 13.632 28.8202 13.715 28.5492C14.013 28.5692 14.007 28.8912 13.987 29.2282C14.664 28.8572 14.192 28.1732 14.394 27.3272C13.979 27.5072 13.809 28.0092 13.987 28.4132C13.557 28.4792 13.507 28.1682 13.036 28.2772C13.108 28.1682 13.176 28.0572 13.171 27.8702C13.384 27.9282 13.288 28.2972 13.714 28.1422C13.974 27.2472 14.382 26.9012 14.394 26.3762C14.175 26.1272 13.963 26.4722 13.714 26.1042C13.903 25.6772 14.384 26.2922 14.528 25.9692C14.508 25.7182 14.069 25.8862 13.986 25.6972C14.212 25.4272 13.973 25.5252 13.986 25.1542C14.756 25.3962 14.4 26.0922 14.8 26.3772C14.558 27.1742 14.744 27.7982 14.393 28.2782C15.224 29.0172 15.022 27.6112 15.751 27.5992C15.737 27.3422 15.301 27.5042 15.344 27.1922C15.386 27.0072 15.684 27.0792 15.887 27.0562C15.796 26.5542 15.578 26.0982 15.751 25.6972C15.386 25.4552 15.488 26.2962 15.344 25.8332C15.348 26.4792 15.452 27.1722 14.937 27.8712C14.78 26.7592 14.947 24.8582 15.751 24.2042C15.96 24.5112 16.085 24.5112 16.294 24.2042C16.362 24.5252 16.452 24.8062 16.701 24.2042C17.042 24.3552 16.98 25.6312 16.43 25.6982C16.388 26.1232 16.822 25.3532 16.837 25.8342C16.886 25.3242 17.364 24.7292 17.108 24.3412C17.232 24.2402 17.654 24.3372 18.06 24.2052C18.047 24.0132 18.038 23.8202 18.195 23.7982C18.087 23.4382 17.556 24.1022 17.517 23.5262C17.51 23.2942 17.617 23.1732 17.788 23.1182C17.916 23.2182 17.995 23.3652 18.06 23.5262C18.552 23.2792 17.82 23.1512 17.924 22.8462C17.497 23.0002 17.565 22.8072 17.244 22.9822C17.34 23.4002 17.34 23.2432 17.244 23.6612C16.995 23.4572 16.906 23.0942 16.565 22.9822C17.021 22.7692 17.021 22.6522 16.565 22.4392C16.687 22.0652 17.117 22.7552 16.973 22.0322C17.43 21.9372 17.418 22.3112 17.651 22.4392C17.989 22.3842 17.66 21.9132 17.38 22.0322C17.282 21.6162 17.615 21.6322 17.516 21.2172C17.644 21.4512 18.017 21.4392 17.923 21.8962C18.429 22.0402 18.19 21.4382 18.466 21.3532C18.366 21.1122 18.219 21.3332 18.059 21.3532C18.215 21.1922 18.212 20.8732 18.194 20.5382C18.544 21.0762 18.317 20.6482 19.01 20.9462C18.988 20.7882 19.04 20.7042 19.146 20.6742C18.893 20.4122 18.897 20.5672 19.01 20.1312C19.172 20.5782 19.73 20.2472 20.097 20.1312C20.108 19.7602 19.868 19.8582 20.097 19.5882C20.421 19.5352 20.021 20.2072 20.502 19.9962C20.387 19.8862 20.422 19.6242 20.232 19.5882C20.346 19.3872 20.667 19.3922 20.911 19.3172C20.597 19.0712 20.098 19.1782 19.823 19.3172C19.932 19.2612 19.975 20.0452 19.552 19.5882C19.417 18.5262 20.537 18.8662 20.502 18.2302C20.685 18.2302 20.866 18.2302 21.047 18.2302C20.702 18.7142 20.976 18.5412 21.183 19.0452C21.384 19.0512 21.38 18.2382 21.454 18.9102C21.966 18.6492 21.768 18.3892 21.589 17.9582C21.91 17.8902 22.192 17.8002 21.589 17.5512C22.284 17.1732 22.311 16.6632 22.677 15.7852C23.079 15.9262 22.85 16.6982 23.356 16.7362C23.629 16.4602 23.296 16.4702 23.22 16.1942C23.411 16.1822 23.605 16.1712 23.628 16.3292C23.609 16.0142 23.806 15.8942 23.491 15.6492C23.69 15.4742 24.237 15.4462 24.17 15.7852C24.408 15.6612 24.644 15.5332 24.578 15.1062C24.419 15.1272 24.335 15.0762 24.306 14.9702C24.05 14.9852 24.212 15.4192 23.9 15.3772C23.697 15.2622 23.703 14.9402 23.629 14.6982C23.755 14.7982 23.834 14.9452 23.9 15.1062C24.058 14.8052 24.254 14.1102 24.851 13.8832C25.398 14.2362 24.384 14.5212 24.851 14.8342C25.084 14.6602 25.018 14.1882 25.393 14.1552C25.579 14.1972 25.505 14.4952 25.53 14.6972C25.827 14.6772 25.822 14.3552 25.802 14.0182C26.284 14.1902 26.783 13.6732 27.024 13.2032C26.914 13.2742 26.803 13.3452 26.617 13.3392C26.718 12.9852 27.118 12.5222 26.753 12.1162C27.281 12.0562 27.284 11.4702 27.432 11.0302C27.694 11.0402 27.197 11.6632 27.704 11.3022C27.725 11.4592 27.673 11.5432 27.567 11.5732C27.736 11.9902 28.099 11.0022 28.247 11.7092C29.085 10.5692 28.674 9.93121 30.012 8.99321C30.27 9.67021 30.389 8.91321 30.691 9.40021C31.018 9.45421 30.617 8.78121 31.099 8.99321C31.137 8.77321 30.971 8.75921 30.963 8.58521C31.38 8.71821 31.596 7.99621 31.913 7.63421C32.062 7.66821 32.006 7.90521 32.185 7.90621C32.052 8.04521 31.915 8.18021 31.777 8.31321C31.865 8.54421 32.09 8.39821 32.049 8.17721C32.187 8.26521 32.19 8.49021 32.456 8.44921C32.611 8.28821 32.61 7.96921 32.592 7.63421C33.32 7.92521 33.578 7.10621 34.223 7.22621C34.16 6.83421 33.638 6.90521 33.543 6.54721C33.217 6.49421 33.618 7.16621 33.136 6.95521C33.477 7.19421 33.231 7.17921 33.407 7.49721C33.067 7.52121 33.079 7.19321 32.865 7.09021C32.989 6.62621 33.467 6.51421 33.407 5.86821C33.516 5.96221 33.781 6.07921 33.816 5.86821C33.954 6.00121 34.089 6.13621 34.223 6.27521C34.505 5.43021 35.488 5.03721 36.395 4.78121C36.324 4.39521 36.064 4.20121 35.986 3.82721C35.69 4.38721 35.669 3.67121 35.171 3.69221C35.16 3.49921 35.149 3.30721 35.306 3.28421C35.011 3.45321 34.598 3.16221 34.492 2.46921C34.341 2.59221 34.502 2.77321 34.221 3.01221C34.019 2.95321 34.274 2.83821 34.221 2.60521C34.053 2.75621 33.941 2.72321 33.95 2.46921C33.649 2.48621 33.891 3.04521 33.814 3.28421C33.529 3.07521 33.764 2.47621 33.405 3.01321C33.305 2.88921 33.401 2.46821 33.27 2.06221C33.052 2.51021 32.859 2.13921 32.32 2.19721C32.331 2.56821 32.092 2.47121 32.32 2.74021C32.718 2.55521 32.779 2.37221 33.134 2.74021C32.615 3.29121 31.523 2.15621 30.823 3.28321C30.722 2.45021 30.278 2.73521 30.145 2.06121C30.024 2.14421 29.902 2.22521 29.873 2.06121C29.803 2.34121 29.661 2.49921 29.059 2.33221C29.133 2.03521 29.907 1.74421 30.009 1.92421C30.489 1.88421 29.53 1.55721 30.009 1.51721C29.754 1.18621 29.517 1.78321 29.737 1.11021C29.156 1.23121 29.291 1.66521 28.787 1.24621C28.667 1.68321 29.234 1.43321 29.194 1.79021C29.161 2.02821 28.96 2.10021 28.651 2.06121C29.159 2.28421 28.872 2.88721 28.379 2.87621C28.68 3.07121 28.209 3.20821 28.515 3.28321C29.052 3.30621 28.472 3.07521 28.786 2.87621C28.686 3.10021 28.934 4.81421 29.331 3.82721C29.659 4.13821 29.494 4.30821 29.467 4.77821C29.366 4.90521 29.219 4.98421 29.059 5.05021C28.892 4.99121 28.781 4.87621 28.787 4.64321C28.828 4.16421 29.156 5.12221 29.195 4.64321C29.464 4.59321 28.606 4.53321 28.787 3.82821C28.641 4.10521 28.293 4.53821 28.516 4.77921C28.409 4.70721 28.296 4.63721 28.109 4.64421C28.015 4.27921 28.39 4.38121 28.516 4.23621C28.505 3.88621 27.935 4.09321 28.109 3.55721C27.737 3.93821 27.601 3.71121 27.43 4.23621C27.168 4.18121 27.323 3.71021 26.886 3.82921C26.857 4.32621 26.699 4.35021 26.886 4.78021C26.244 4.64521 26.876 4.07321 26.206 3.96521C26.157 4.19621 26.312 4.22121 26.478 4.23621C26.39 4.37421 26.166 4.37721 26.206 4.64421C25.891 4.64421 25.573 4.64421 25.256 4.64421C25.746 5.56921 24.717 5.61921 24.713 6.13821C24.315 5.91921 24.658 5.70821 24.442 5.45921C24.161 5.89121 24.249 6.07521 23.763 5.73021C23.676 6.02721 24.148 6.16321 23.627 6.13821C23.749 6.59621 23.93 6.15521 24.169 6.41021C23.572 6.76521 23.679 7.53121 22.676 6.95321C22.699 7.11121 22.645 7.19421 22.54 7.22421C22.578 7.53921 22.902 7.53721 23.084 7.36021C23.111 7.96021 22.541 7.95921 22.811 8.44721C22.573 8.41421 22.5 8.21321 22.54 7.90421C22.219 7.62221 22.537 8.60221 22.54 8.85521C22.246 8.74021 22.06 8.52121 22.133 8.04021C21.879 7.91021 21.678 8.44721 21.588 8.04021C21.156 8.10621 22.453 8.62921 21.588 8.72021C22.174 9.02521 21.761 9.26421 21.725 9.67121C21.52 9.55321 21.762 9.46721 21.588 9.12821C21.442 9.16221 21.496 9.39921 21.317 9.40021C21.126 9.23421 21.01 8.88121 21.182 8.72121C20.961 8.65521 20.93 9.08721 20.774 9.53621C20.577 9.46221 20.072 9.69421 20.096 9.40021C20.182 9.98621 19.711 9.88121 19.823 10.8942C19.433 11.2162 19.203 11.0832 18.873 10.8942C18.788 11.3952 19.478 11.4622 18.737 11.5742C18.824 11.8852 19.007 12.3932 18.737 12.6602C18.535 12.6652 18.541 11.8532 18.466 12.5242C18.145 12.4822 18.214 12.0522 17.786 12.1162C17.758 12.6932 17.813 13.3262 17.243 13.4742C17.319 13.6702 17.455 13.8062 17.65 13.8822C16.868 13.9922 17.232 14.0642 16.7 14.4252C16.497 14.3662 16.753 14.2522 16.7 14.0182C16.029 14.4442 17.031 15.6732 15.886 15.7842C15.762 15.7472 15.525 15.1822 15.75 15.2412C15.531 14.8172 15.32 15.5202 15.07 15.5132C15.091 15.8512 15.53 15.5532 15.613 15.5132C15.514 15.9572 15.126 16.1122 14.799 16.3282C14.751 16.8002 15.436 16.8972 15.613 16.7352C15.613 17.0072 15.613 17.2782 15.613 17.5502C15.253 17.3122 15.475 17.2692 15.206 16.8712C14.779 16.8062 14.675 17.0642 14.392 17.1432C14.259 18.2942 13.913 18.4952 14.12 19.5872C14.086 19.7342 13.85 19.6792 13.849 19.8592C13.71 19.7712 13.708 19.5462 13.442 19.5872C13.467 19.6972 13.577 19.7232 13.577 19.8592C13.388 20.0452 12.907 20.1512 12.763 19.9952C12.746 19.7502 12.929 19.7082 12.899 19.4522C13.008 19.5232 13.119 19.5942 13.306 19.5872C13.045 18.9502 12.785 19.8082 12.355 19.4522C12.664 20.0682 12.485 19.7692 12.219 20.2662C12.378 20.2442 12.461 20.2962 12.491 20.4022C12.623 20.3982 12.595 20.2352 12.626 20.1302C12.735 20.1562 12.761 20.2662 12.898 20.2662C12.864 20.5052 12.664 20.5762 12.355 20.5372C12.351 21.3812 11.642 23.0172 12.219 22.8462C11.926 23.7952 11.479 23.9012 10.725 24.4762C11.259 24.2082 11.138 24.8072 11.676 25.1552C11.572 25.2902 11.031 25.3882 11.133 24.7482C10.876 25.2162 10.687 25.7502 10.046 25.8342C10.012 26.2542 9.909 26.6022 9.775 26.9212C9.562 26.8732 9.893 26.6822 9.639 26.6502C9.163 27.0882 9.584 27.7422 9.096 28.2792C9.206 28.2072 9.317 28.1372 9.503 28.1442C9.649 28.6512 9.166 28.5312 9.232 28.9582C9.594 28.7022 9.378 29.1252 9.639 29.5012C9.614 29.6112 9.503 29.6372 9.503 29.7732C8.908 29.7032 9.058 29.7312 8.553 29.6372C8.698 30.4382 8.214 30.8392 8.825 31.2672C8.345 31.1212 8.638 31.3252 8.282 31.9472C8.143 31.6562 8.226 30.8452 8.282 30.1812C8.101 30.1812 7.92 30.1812 7.739 30.1812C7.715 30.5572 7.947 30.6472 8.146 30.4522C7.885 30.8882 8.226 31.1382 8.01 31.6752C7.605 31.6732 8.202 30.6692 7.603 30.8612C7.799 31.4502 7.358 31.8682 7.739 32.4912C6.951 32.6732 7.096 34.0582 6.516 34.8002C6.527 35.0632 7.097 34.5132 6.923 35.2072C6.815 35.1352 6.702 35.0652 6.516 35.0712C6.616 35.1982 6.763 35.2772 6.923 35.3422C6.811 35.6832 6.551 35.8762 6.516 36.2942C6.783 36.0432 7.194 36.4132 7.332 36.7012C7.212 36.7982 6.786 36.8262 6.38 36.9722C6.805 36.9612 6.65 38.0622 6.38 37.6522C5.956 37.8712 6.921 37.8202 6.652 38.3302C6.109 37.7082 6.476 38.7842 5.701 38.8742C5.558 39.2582 5.924 39.8062 5.701 39.8252C5.834 40.2422 6.063 39.6692 6.244 39.6892C5.787 40.2412 5.504 41.2732 6.108 41.8632C6.004 41.8852 5.392 42.2972 5.701 42.6782C4.922 42.3492 4.802 43.3132 5.158 44.3082C4.421 43.6742 5.581 44.8282 4.751 44.5802C5.248 44.9312 5.125 46.0392 4.886 46.7532C4.927 47.0362 5.254 46.5512 5.293 47.0242C4.845 47.5302 4.839 48.3952 4.479 48.6542C5.263 48.7982 5.24 49.7572 5.022 50.2842C4.672 50.2512 5.209 50.0512 5.022 49.7412C4.347 49.5622 4.934 50.4852 4.615 50.1482C4.355 50.2452 4.779 50.7852 4.886 50.9622C5.064 50.9142 5.101 50.7242 5.293 50.6912C5.091 50.8502 5.134 51.2552 4.751 51.2352C4.88 51.5122 5.028 51.7722 5.158 52.0492C5.133 52.1592 5.022 52.1852 5.022 52.3202C4.761 52.2652 4.915 51.7942 4.479 51.9132C4.395 52.5852 4.921 51.9822 4.886 52.7272C4.044 53.1762 4.727 54.0232 4.343 54.4942C4.941 54.1592 4.36 55.3832 4.615 55.5812C4.793 55.5332 4.828 55.3422 5.022 55.3092C4.993 55.8062 4.835 55.8302 5.022 56.2602C4.889 56.4442 4.66 56.5312 4.479 56.6672C4.993 56.7302 5.215 58.2792 4.751 58.5692C4.771 58.8202 5.21 58.6522 5.293 58.8402C5.137 59.0002 5.14 59.3192 5.158 59.6542C4.178 59.4262 5.508 60.3062 5.022 60.8782C5.568 60.8582 5.381 61.2262 5.293 61.5572C5.565 61.6032 5.718 61.5302 5.702 61.2862C5.917 61.5692 5.983 62.0002 5.973 62.5082C5.837 62.5082 5.702 62.5082 5.566 62.5082C5.389 61.9722 6.065 62.1802 5.702 61.8292C5.22 62.3792 5.43 63.6242 5.973 63.7302C6.028 64.0562 5.355 63.6552 5.566 64.1382C6.18 63.7852 6.055 64.7672 6.109 65.3602C6.335 65.7932 6.154 64.6972 6.38 64.6802C6.669 65.2712 6.303 65.5082 6.516 66.1742C6.8 66.2332 6.875 66.0812 7.059 66.0392C7.083 66.3792 6.851 66.4642 6.652 66.5822C6.798 67.1142 7.289 67.3032 7.332 67.9392C7.719 67.9212 7.579 67.3742 7.603 66.9892C7.995 67.0662 7.839 67.0892 8.283 67.2612C7.697 67.5572 8.027 67.4452 7.603 67.8042C7.763 68.3552 7.54 68.6532 7.603 69.0262C8.638 69.2982 7.996 70.3692 9.097 70.9272C9.021 71.3192 8.999 71.1632 8.826 71.6072C9.302 71.6682 9.402 71.8942 9.233 72.2872C9.449 72.7872 9.202 71.7372 9.64 72.0152C9.99 72.0492 9.453 72.2492 9.64 72.5602C9.832 72.5472 10.025 72.5382 10.047 72.6952C10.202 72.5022 10.085 71.9602 10.047 71.7452C10.157 71.8162 10.268 71.8872 10.454 71.8812C10.426 72.1802 9.902 72.5262 10.454 72.2882C10.21 72.7402 10.133 73.0572 10.319 73.6462C10.434 73.6702 10.447 73.5932 10.454 73.5092C10.545 73.5092 10.635 73.5092 10.726 73.5092C10.692 73.3632 10.456 73.4182 10.454 73.2382C11.364 72.6722 11.423 74.6182 11.27 75.1402C11.489 75.1762 11.503 75.0112 11.677 75.0022C11.356 75.2662 12.132 75.4212 11.677 75.8172C11.757 76.1422 11.962 75.4882 12.084 75.4092C12.535 75.9122 12.588 76.8072 13.443 76.9032C13.367 77.2362 12.916 77.1942 13.036 77.7182C13.538 77.6482 13.377 77.4872 13.307 77.9902C13.898 78.0382 13.932 78.0112 14.258 78.1272C14.019 78.5832 14.349 78.8232 14.258 79.4842C14.516 79.4262 14.504 79.0952 14.938 79.2122C15.286 79.2272 15.155 79.7192 15.345 79.8922C14.911 79.9022 15.044 78.9852 14.529 79.4852C15.135 79.7892 14.77 79.8942 14.529 80.1642C14.555 80.2742 14.665 80.3002 14.665 80.4362C14.781 80.4112 14.794 80.4892 14.801 80.5712C14.927 80.4722 15.007 80.3242 15.072 80.1642C15.211 80.2522 15.212 80.4772 15.479 80.4362C15.42 80.5562 15.359 80.6782 15.208 80.7082C15.292 80.8402 15.939 80.6472 16.022 81.1152C15.877 81.5772 15.98 80.7352 15.615 80.9772C15.508 81.7052 16.552 81.4302 16.158 82.0642C16.592 81.9852 16.577 82.3192 16.837 82.0642C16.678 82.4682 17.18 82.7462 17.517 82.7442C17.446 82.8532 17.375 82.9662 17.381 83.1512C18.216 83.4822 18.966 84.2042 19.696 84.9822C19.471 84.9672 19.262 84.9252 19.088 84.8162C18.943 84.9842 19.08 85.0832 18.997 85.2342C18.563 84.9632 17.504 84.8462 16.548 84.5722C16.248 84.8802 16.736 84.9862 16.434 85.2942C16.18 83.8082 13.314 84.3612 12.303 83.4742C12.193 83.6912 12.013 83.6342 11.908 83.8712C10.731 82.6452 9.342 83.2462 8.126 82.2582C7.852 82.5272 8.22 82.6322 8.083 82.8642C7.256 81.8402 6.99599 82.3162 6.565 81.9632C6.124 82.0622 6.178 82.2922 5.963 82.7102C5.651 82.5262 5.928 82.1902 5.587 82.0142C5.246 82.4242 5.205 82.4382 5.219 82.9022C5.044 82.1662 4.809 81.5952 3.909 81.6492C4.271 81.3082 4.238 81.5562 4.585 81.5762C4.387 81.2532 2.473 80.4152 1.831 80.8912C1.606 80.6682 2.081 80.7922 1.924 80.4712C1.4 80.6252 0.728997 80.1912 0.317997 80.7812C0.693997 81.1522 0.862995 81.1132 1.065 81.3842C0.168995 80.8192 1.141 82.5422 0.346997 82.0632C0.0239965 81.9392 0.391998 82.4292 0.558998 82.5032C0.437998 82.8132 0.0639964 82.1242 -3.61262e-06 82.6472C0.433996 82.7182 0.492997 82.8722 0.748997 83.2502C1.243 82.8382 1.443 82.6342 2.142 82.4972C2.492 83.1182 2.996 82.6392 3.567 83.0262C3.675 83.3302 3.542 83.6952 3.617 84.0052C4.047 83.9302 3.964 83.9852 4.387 84.3052C4.217 84.4152 4.008 84.3732 3.782 84.2612C3.549 83.8582 3.001 83.5352 3.262 83.0042C3.011 82.9232 2.82 83.0832 2.54 82.8922C2.498 83.1012 2.538 83.2892 2.497 83.4982C3.052 83.1872 2.635 83.7062 3.011 83.9622C2.736 84.1782 2.203 83.3862 2.033 84.0132C2.421 83.9802 2.992 84.6672 3.243 84.1002C3.301 84.2172 3.361 84.3342 3.525 84.4252C3.407 84.4822 3.291 84.5432 3.199 84.7062C3.239 84.0402 2.527 84.8292 1.962 84.1302C2.085 84.6162 1.719 84.1092 1.567 84.5262C1.786 84.6362 1.729 84.8162 1.966 84.9212C1.657 85.1812 1.756 84.5682 1.43 84.7612C1.206 85.8192 2.226 84.8192 1.971 85.7142C1.762 85.5912 1.513 85.7392 1.693 86.1812C1.803 86.0312 2.616 85.4162 3.464 86.1262C3.533 85.8352 3.463 85.4222 3.763 85.3552C3.864 85.6622 3.42499 86.1022 3.62799 86.3812C3.34099 86.8132 2.722 85.9412 2.369 86.1082C2.69 86.2822 3.20599 87.2122 3.48899 86.6152C3.98099 87.1702 3.235 87.3582 2.77 87.2952C2.797 87.6492 3.105 87.3812 3.285 87.7582C3.191 87.3782 3.471 87.5532 3.726 87.5462C3.871 87.3782 3.735 87.2792 3.817 87.1262C4.314 87.4392 5.272 87.3972 5.846 87.7002C6.026 86.9842 5.902 87.3662 6.215 86.8132C6.851 87.0122 6.612 87.4392 6.941 87.7172C6.921 86.9232 7.244 87.5372 7.685 87.5282C7.847 87.3552 7.726 87.2542 7.591 87.1552C7.893 86.8722 7.925 87.4482 8.175 87.5012C8.028 87.5772 7.834 87.4632 7.733 87.7152C8.589 87.7892 8.851 88.2182 9.298 88.8022C9.433 88.4122 9.964 88.7962 9.948 88.2392C10.372 88.5102 10.14 88.5852 9.90499 88.8472C10.051 88.8352 10.197 88.8282 10.138 88.9852C10.417 89.0412 10.635 88.8582 10.836 88.6082C10.54 88.4252 10.641 88.6112 10.581 88.7722C10.13 88.4062 10.306 88.2572 10.645 87.8642C10.957 88.3902 11.634 88.5382 11.701 89.2802C11.75 89.1022 11.604 88.9732 11.674 88.7912C12.243 88.7622 12.404 89.2532 13.215 89.3902C13.371 89.0892 12.84 89.1202 12.747 89.1122C12.889 88.5002 13.32 89.0252 13.657 89.1782C13.829 88.9362 13.782 88.7492 13.513 88.6202C14.455 88.6732 14.842 89.2492 15.313 89.8462C14.838 88.9602 15.5 89.9002 15.941 89.5862C16.028 89.8292 15.75 90.1642 16.317 90.2842C16.41 90.1282 16.501 89.9712 16.594 89.8162C16.876 89.9092 16.718 90.1152 16.619 90.3042C16.901 90.3832 16.975 90.2712 16.945 90.0242C17.439 90.9642 18.968 89.2042 19.299 90.3162C19.478 90.3662 19.605 90.2192 19.788 90.2912C19.759 90.0972 19.593 90.1252 19.273 89.8272C19.403 89.5622 19.717 90.0192 19.926 90.0572C20.065 89.8242 20.203 89.5892 20.342 89.3552C20.459 89.4252 20.575 89.4952 20.694 89.5632C20.622 89.6752 20.497 89.5692 20.389 89.5422C20.097 89.8142 20.375 89.9422 20.16 90.1952C20.324 90.1892 20.439 89.9992 20.648 90.1702C20.711 90.0222 20.494 89.9452 20.366 89.8452C21.22 90.2212 20.655 90.0892 21.79 90.3752C21.936 90.2072 21.8 90.1082 21.883 89.9542C22.07 90.0502 22.24 89.7912 22.721 90.1372C21.915 90.3472 23.186 90.4242 23.492 90.4372C23.543 91.0242 23.463 90.7832 24.192 90.8532C24.013 89.9802 23.457 90.4202 23.371 89.5762C23.564 89.4232 23.684 89.6632 23.535 89.8312C23.759 89.9262 23.92 89.7892 24.047 89.5032C24.389 89.7752 24.177 90.1932 24.214 90.5462ZM8.92 83.0482C8.963 83.3342 9.664 83.3552 9.716 83.8362C9.324 83.9902 8.526 83.0732 8.92 83.0482ZM32.182 3.42021C32.097 3.14321 31.495 3.38121 31.639 2.87721C31.865 2.87721 32.091 2.87721 32.319 2.87721C32.295 3.08021 32.367 3.37821 32.182 3.42021ZM30.281 3.55621C29.938 3.31021 29.805 2.85321 29.467 2.60521C29.703 2.61521 29.889 2.57521 30.009 2.46921C30.024 2.68221 29.991 2.94021 30.281 2.87721C30.291 3.11421 30.251 3.29921 30.145 3.42021C30.29 3.41421 30.491 3.48421 30.281 3.55621ZM25.527 6.81621C25.499 6.42521 25.56 6.12621 25.799 6.00221C25.971 6.25421 26.493 5.71021 26.613 5.45821C26.371 5.42721 25.933 5.59521 26.069 5.18621C26.618 5.13121 27.211 5.20121 27.835 5.18621C27.618 5.87921 27.362 5.35621 26.613 5.59421C26.346 6.09621 25.864 6.38421 25.527 6.81621ZM26.07 6.95221C26.252 6.40921 26.499 5.93121 27.021 5.72921C26.994 6.70721 26.407 6.46721 26.07 6.95221ZM22.946 9.53221C23.003 9.20421 22.698 9.23721 22.809 8.85321C23.248 9.02021 22.913 8.41321 23.353 8.58121C23.448 9.13021 23.075 9.20821 22.946 9.53221ZM27.021 11.1622C26.779 10.8802 26.994 10.2332 27.157 9.93921C27.121 10.4812 27.498 10.8962 27.021 11.1622ZM21.045 11.2992C21.351 11.2422 21.025 10.5542 21.452 10.6192C21.417 11.0172 21.759 11.0362 21.723 11.4342C21.407 11.4752 21.139 11.7242 21.045 11.2992ZM20.5 12.7932C20.089 12.6882 19.278 13.1342 19.686 12.6572C19.907 12.9982 19.792 11.8682 20.095 11.8432C20.124 11.9482 20.208 12.0002 20.366 11.9782C20.485 12.4152 19.92 12.1642 19.959 12.5212C20.198 12.5512 20.637 12.3842 20.5 12.7932ZM25.663 13.3362C25.823 13.2702 25.971 13.1912 26.07 13.0652C25.934 13.0632 25.899 12.8272 26.07 12.7942C26.112 12.9772 26.262 13.0532 26.205 13.3372C26.122 13.3752 25.682 13.6742 25.663 13.3362ZM19.007 14.5582C18.744 13.9912 18.778 13.7982 19.143 13.3352C19.06 13.6882 19.196 13.8242 19.549 13.7422C19.452 14.0982 19.107 14.2052 19.007 14.5582ZM17.24 16.5962C17.218 16.8002 17.289 17.0972 17.104 17.1392C17.09 16.6572 16.656 17.4272 16.697 17.0032C16.861 16.9742 16.781 16.8522 16.697 16.7312C16.881 16.6882 16.957 16.5382 17.24 16.5962ZM19.415 18.0902C19.647 17.5732 19.012 17.2422 19.28 17.1402C19.286 17.2232 19.3 17.3012 19.415 17.2752C19.655 17.1532 19.811 16.9472 20.095 16.8682C20.054 17.1352 20.277 17.1382 20.366 17.2752C19.786 17.1772 19.276 17.5582 19.822 17.8182C19.628 17.8502 19.592 18.0422 19.415 18.0902ZM14.389 18.4972C14.286 17.9872 14.907 18.2022 14.932 17.8182C14.796 17.8182 14.66 17.8182 14.523 17.8182C14.523 17.5922 14.523 17.3652 14.523 17.1392C14.711 17.1442 14.822 17.0752 14.932 17.0032C14.866 17.4312 15.349 17.3102 15.203 17.8182C14.977 18.0912 14.838 18.4492 14.389 18.4972ZM12.487 21.8932C12.387 21.5222 12.757 21.6202 12.758 21.3502C12.466 21.2422 13.259 21.2252 13.301 21.3502C13.041 21.4092 13.055 21.7392 12.621 21.6222C12.633 21.8122 12.591 22.1412 12.487 21.8932ZM16.29 24.0672C16.229 23.6982 16.161 23.4312 16.29 23.2522C16.537 23.0632 17.33 24.1272 16.29 24.0672ZM16.969 23.7952C17.36 23.7672 17.658 23.8292 17.783 24.0662C17.505 23.9842 16.84 24.2862 16.969 23.7952ZM10.992 29.2282C11.009 28.8822 11.017 28.5292 11.399 28.5492C11.305 28.9672 11.305 28.8102 11.399 29.2282C11.264 29.2282 11.128 29.2282 10.992 29.2282ZM8.955 31.1302C8.831 30.7822 8.736 30.3602 9.091 30.1792C8.976 30.6622 9.484 30.9932 8.955 31.1302ZM12.079 32.2172C12.211 31.5522 12.199 31.2702 12.488 30.9952C12.508 31.3322 12.947 31.0342 13.031 30.9952C13.073 31.1782 13.223 31.2542 13.166 31.5372C12.781 31.1962 12.488 31.3812 12.488 32.0802C12.299 32.0752 12.188 32.1452 12.079 32.2172ZM8.548 34.1182C8.542 34.3052 8.612 34.4162 8.684 34.5262C8.368 34.4832 8.163 34.5482 8.004 34.6622C8.068 34.0172 7.836 34.5122 7.597 34.2552C7.477 33.9752 7.949 33.6452 8.004 33.9832C8.111 33.8442 8.067 34.2372 8.548 34.1182ZM9.634 34.9332C9.751 34.4992 9.421 34.5132 9.363 34.2542C9.799 34.5282 9.787 33.7172 9.905 34.1182C9.898 34.2912 9.731 34.3062 9.77 34.5262C9.875 34.5562 10.039 34.5292 10.041 34.6622C9.828 34.6742 9.935 35.0082 9.634 34.9332ZM7.869 38.8722C7.869 38.7362 7.869 38.6012 7.869 38.4642C9.183 38.5052 8.871 39.1362 8.14 38.6002C8.125 38.7662 8.099 38.9222 7.869 38.8722ZM8.004 41.3182C8.051 40.9432 7.615 40.3642 8.004 40.0952C8.16 40.2662 8.277 41.1662 8.004 41.3182ZM9.227 42.2682C9.498 41.9412 8.99 41.6102 9.363 41.3172C9.456 41.7402 9.776 41.5452 9.905 41.3172C9.895 41.5532 9.936 41.7392 10.041 41.8602C9.609 41.8502 9.634 42.0172 9.227 42.2682ZM7.19 45.5282C6.888 45.4702 7.083 44.8072 7.19 44.7132C7.613 44.5182 7.613 45.7222 7.19 45.5282ZM7.597 46.6132C7.596 46.3442 7.226 46.4412 7.326 46.0712C7.695 46.1702 7.598 45.8002 7.869 45.8002C7.897 46.1902 7.834 46.4882 7.597 46.6132ZM7.19 47.9732C6.921 47.6362 7.159 46.9362 7.326 46.6142C7.226 46.9852 7.596 46.8872 7.597 47.1582C6.928 47.1772 7.573 47.6672 7.19 47.9732ZM5.152 48.6522C5.149 48.3822 4.781 48.4792 4.88 48.1092C5.206 48.1632 4.806 47.4902 5.287 47.7012C4.96 48.1032 5.818 48.3632 5.152 48.6522ZM7.733 52.3192C7.755 51.9792 7.428 51.9902 7.326 51.7762C7.326 51.8522 7.215 51.9302 7.19 51.7762C7.566 51.7572 8.061 51.5732 8.277 51.6402C8.17 51.6702 8.118 51.7542 8.141 51.9112C8.246 51.9412 8.409 51.9152 8.413 52.0472C8.074 52.0272 7.991 52.2612 7.733 52.3192ZM7.326 55.5792C7.66 55.5972 7.98 55.6002 8.14 55.4422C8.113 56.0202 7.423 56.0932 7.326 55.5792ZM8.004 56.2582C8.389 56.2792 8.321 55.8502 8.684 55.8512C8.684 56.0332 8.684 56.2132 8.684 56.3942C8.337 56.2452 7.984 56.8582 8.004 56.2582ZM8.004 60.6052C7.934 60.4042 7.803 60.2632 7.733 60.0612C8.019 59.8812 8.134 60.1282 8.547 59.9252C8.554 60.1802 8.443 60.2132 8.276 60.0612C8.314 60.3702 8.243 60.5722 8.004 60.6052ZM18.871 76.2272C18.554 76.1802 18.286 76.0862 18.191 75.8182C18.585 75.6502 18.812 75.7492 18.871 76.2272ZM19.958 78.3992C19.925 78.2062 19.735 78.1702 19.686 77.9922C20.48 77.9822 19.542 76.9742 20.366 76.9042C20.075 77.2472 20.474 78.2792 19.958 78.3992ZM20.365 79.6222C20.55 79.2902 20.636 79.5372 20.772 79.3502C20.717 79.1782 20.598 79.0722 20.365 79.0782C20.344 79.2382 20.389 79.4642 20.23 79.4862C20.061 79.2312 19.645 78.3802 20.094 78.6712C19.781 78.8452 20.385 79.3212 20.499 78.8072C20.557 78.9772 20.676 79.0842 20.908 79.0782C21.108 79.6752 20.561 80.2222 20.365 79.6222ZM19.821 82.2032C20.048 81.6912 19.19 81.5832 19.55 81.3872C19.669 81.5922 19.753 81.3492 20.095 81.5242C20.114 81.8612 20.12 82.1822 19.821 82.2032ZM26.614 83.5612C26.275 83.5822 26.194 83.3472 25.934 83.2892C25.868 82.9812 26.275 82.4742 26.477 82.8822C26.028 83.0852 26.759 83.2142 26.614 83.5612ZM18.065 60.9902C18.222 61.0912 18.353 61.0882 18.483 61.0822C18.383 61.2392 18.386 61.3712 18.393 61.5012C18.11 61.5832 17.794 61.3212 18.065 60.9902ZM19.065 60.6362C18.765 60.4822 18.485 60.3222 18.62 60.0562C18.935 60.1532 19.268 60.2002 19.065 60.6362ZM19.323 61.2642C19.415 61.1102 19.183 61.0352 19.229 60.8922C19.47 60.9582 19.252 60.7382 19.25 60.5892C19.561 60.7752 19.873 60.9592 20.184 61.1442C20.121 61.2922 19.969 61.4632 20.094 61.5642C20.194 61.4402 20.354 61.5462 20.514 61.6552C19.829 62.1282 19.896 60.7422 19.323 61.2642ZM18.542 63.6452C18.41 63.6752 18.258 63.5412 18.103 63.3652C18.21 63.3992 18.326 63.4462 18.464 63.4582C18.502 63.5152 18.532 63.5752 18.542 63.6452ZM19.411 65.1092C19.58 64.6052 20.057 65.3042 20.224 64.8022C20.686 65.0172 19.712 65.3862 19.411 65.1092ZM24.299 69.1142C24.399 68.9562 24.396 68.8252 24.391 68.6942C24.729 68.6852 24.701 68.9572 25.16 68.9952C24.96 69.3732 24.552 68.9412 24.299 69.1142ZM24.573 72.9102C24.768 72.6632 24.313 72.5812 24.431 72.3522C24.577 72.4652 24.983 71.7652 24.919 72.3252C24.844 72.2902 24.77 72.2612 24.732 72.3732C24.626 72.5202 24.999 73.0082 24.573 72.9102ZM26.169 80.3352C26.358 80.1692 26.436 79.5632 26.702 79.7032C26.571 79.8892 26.638 80.6692 26.169 80.3352ZM27.929 82.9582C28.147 82.6722 27.993 82.4782 27.669 82.3302C27.779 82.1212 27.91 81.9822 28.064 81.9332C27.905 81.8322 27.773 81.8352 27.643 81.8412C27.84 81.5932 27.891 81.3832 27.872 81.1892C28.077 81.5112 28.274 81.3462 28.271 81.5832C27.907 81.7152 28.258 82.5072 28.298 82.8632C28.145 82.7732 28.073 83.0062 27.929 82.9582ZM15.048 88.4232C15.433 88.1032 15.526 88.4542 15.745 88.0472C15.999 88.1662 16.976 88.3982 16.375 88.5802C16.43 88.2052 15.854 88.5582 15.653 88.4672C15.991 88.7602 16.244 88.7102 16.54 88.8362C16.456 89.2822 16.187 89.0102 16.029 89.1652C16.147 89.2332 16.112 89.3422 16.193 89.4192C16.302 89.2012 16.471 89.2152 16.682 89.3942C16.537 89.6022 16.373 89.7382 16.171 89.7242C16.154 89.0032 15.443 89.6632 15.306 89.0512C15.612 89.2122 15.86 89.1512 16.05 88.8622C15.842 88.8202 15.654 88.8592 15.445 88.8172C15.793 88.4712 15.183 88.3912 15.048 88.4232ZM26.341 85.7332C26.38 85.8802 26.408 86.0462 26.421 86.2102C26.296 86.1762 26.172 86.1412 26.047 86.1072C26.082 85.9602 26.157 85.8282 26.341 85.7332ZM17.774 88.6202C17.899 88.0532 17.49 88.4182 17.19 88.2722C17.502 87.6812 16.706 87.6332 16.512 87.5552C16.636 87.3922 16.725 87.0972 16.907 87.1562C17.191 87.6762 17.554 88.1952 18.24 88.1052C18.319 88.3902 18.041 88.6342 17.774 88.6202ZM16.209 87.5332C16.153 88.0022 15.335 87.4122 15.439 87.2322C15.657 87.1812 15.93 87.3452 16.209 87.5332ZM12.392 88.1092C12.846 87.9612 13.52 88.9182 13.209 88.5952C12.961 88.3172 12.358 88.5682 12.392 88.1092ZM10.852 87.5112C11.249 87.6492 11.84 88.2402 11.343 88.2782C11.304 87.9802 10.703 88.0292 10.852 87.5112ZM9.168 86.3542C9.412 86.6882 9.898 86.9622 10.384 87.2342C10.148 87.5572 10.594 87.9462 10.037 87.8192C10.093 87.6372 10.003 87.4972 10.197 87.2812C10.097 87.2342 8.956 86.7902 9.168 86.3542ZM30.399 88.3742C30.368 87.8672 29.905 87.4962 29.465 87.8192C29.16 87.5362 29.725 87.6362 29.741 87.3532C29.451 87.0012 29.483 87.1842 29.041 86.9372C28.571 86.8752 29.455 87.2782 29.369 87.4472C28.708 87.6622 28.792 86.9732 28.271 86.6362C27.743 86.5452 27.118 86.3962 26.499 86.2292C26.863 85.4102 28.038 86.2002 27.971 84.7832C28.202 84.7332 28.228 84.8872 28.243 85.0542C28.397 85.0472 28.465 84.9542 28.496 84.8232C28.534 84.9432 28.544 85.0732 28.497 85.1922C28.644 85.1822 28.789 85.1732 28.73 85.3312C29.304 84.8512 29.141 85.9222 29.618 85.6992C29.661 86.0842 29.558 86.5082 30.088 86.7692C29.979 86.9862 29.799 86.9282 29.695 87.1652C30.535 87.0042 29.56 87.3202 30.325 87.6972C30.232 87.4592 30.475 87.1302 30.136 86.9532C30.267 86.6892 30.582 87.1472 30.79 87.1832C30.218 87.4962 30.728 87.8582 30.399 88.3742ZM30.239 88.9122C30.04 88.8902 28.969 88.4282 29.395 87.9352C29.757 88.2402 29.963 88.5852 30.239 88.9122ZM28.006 89.4812C28.365 89.2122 27.961 88.6502 28.305 88.7102C28.238 88.8932 28.482 88.9962 28.517 89.1522C28.99 89.1022 28.758 88.7012 29.213 88.7772C29.143 89.0032 29.379 88.8412 29.565 88.9842C29.158 89.2042 28.735 89.3592 28.309 89.5022C28.668 89.7082 28.841 89.9622 28.802 90.2692C28.638 90.1892 28.029 90.1062 28.45 90.0612C28.526 90.0972 28.599 90.1252 28.638 90.0132C28.23 89.8872 28.413 89.6092 28.006 89.4812Z" fill="#D0222B"/>
</svg>
