<svg width="40" height="85" viewBox="0 0 40 85" fill="none" xmlns="http://www.w3.org/2000/svg">
<path d="M34.5344 44.2935C34.1608 44.0226 34.3246 44.6824 33.9517 44.4127C33.972 44.2556 34.0705 44.0543 33.9255 43.9926C33.8975 44.07 33.8663 44.1403 33.7626 44.0867C33.9447 43.4108 34.4257 44.0231 34.5344 44.2935ZM34.7068 43.6502C34.6908 43.443 34.6039 43.2768 34.5875 43.0675C34.4148 43.2717 34.1612 43.3332 34.029 43.6063C34.3647 43.8101 34.4116 43.5152 34.7068 43.6502ZM34.5982 40.4542C34.8127 40.5116 35.0271 40.5691 35.2415 40.6266C35.2711 40.5009 35.1101 40.4837 35.019 40.4292C35.4754 40.2679 35.3901 40.3309 35.705 39.9246C35.5766 39.8902 35.4481 39.8558 35.3206 39.8216C35.3007 40.0388 35.1396 40.0102 35.0886 40.1735C34.9772 40.0174 35.1112 39.9229 35.1315 39.4955C34.7149 39.5744 34.8951 39.9374 34.5982 40.4542ZM31.7164 50.6994C31.7094 50.8839 32.0096 50.8918 32.1958 50.9656C32.3216 50.639 32.4107 50.3336 31.9472 50.3482C32.0426 50.5715 32.0021 50.6994 31.7164 50.6994ZM33.4842 41.5326C33.6113 41.4714 33.8893 41.4269 33.8696 41.6359C34.3615 41.6507 34.0162 40.965 34.333 40.9339C34.1498 40.567 33.7741 41.4591 33.4842 41.5326ZM35.1936 37.7222C35.0981 37.2442 35.3543 37.2383 35.469 36.6944C34.9773 36.9955 34.5505 37.3097 35.1936 37.7222ZM35.8089 24.1169C36.289 23.8707 36.3524 24.0668 36.6588 23.5184C36.1379 23.3064 36.0338 23.8148 35.8089 24.1169ZM35.7308 24.9221C35.8472 24.9284 35.8391 25.0049 35.8258 25.0852C36.0495 24.9381 36.0159 24.5419 36.0324 24.3144C35.8127 24.6241 35.5177 24.8018 35.3706 25.2386C35.6299 25.3723 35.6652 25.1209 35.7308 24.9221ZM29.2588 49.076C28.9503 49.2304 28.6663 49.4287 28.5047 49.8388C28.9831 49.9774 29.0781 49.4531 29.2588 49.076ZM35.7168 16.2427C36.0084 16.062 36.0504 16.4967 36.3935 16.2863C36.3867 15.7979 35.7958 16.2452 35.9829 15.7632C35.9454 15.308 35.7447 16.069 35.7168 16.2427ZM24.6819 50.7412C24.512 50.7298 24.4839 50.9625 24.6128 50.9991C24.5755 51.1226 24.4284 51.0573 24.3214 51.0587C24.3698 51.1949 24.4144 51.33 24.2523 51.3166C24.2334 51.472 24.4573 51.4864 24.6036 51.5474C24.7061 51.2342 24.7888 50.9334 24.6819 50.7412ZM26.6366 28.5437C26.439 28.4929 26.0994 29.4206 26.5585 29.349C26.7563 28.9816 26.5524 28.8463 26.6366 28.5437ZM33.3044 48.37C33.1433 48.3683 32.8003 48.9648 32.7214 48.4902C32.5611 48.5477 32.6034 48.8727 32.2924 49.0637C31.9745 48.8512 32.5797 48.7101 32.4989 48.2929C32.1758 48.2623 32.2829 47.9825 31.8912 47.9914C31.8939 48.3255 32.3971 48.9935 31.7443 49.0536C31.746 49.5147 32.0021 49.2427 32.2582 49.1912C32.1109 49.3122 31.997 49.4898 31.9586 49.7994C32.0947 49.751 32.2301 49.7055 32.2155 49.8683C32.1862 49.8542 32.6745 48.9591 32.6707 49.7149C33.1221 49.5563 33.0715 48.5282 33.6573 48.6023C33.6548 48.0322 33.0831 49.0686 33.3044 48.37ZM25.6327 21.5568C25.6358 21.5494 25.6371 21.5404 25.6399 21.5339C25.6334 21.5311 25.6298 21.5291 25.6245 21.5257C25.6265 21.5376 25.6315 21.5461 25.6327 21.5568ZM29.8744 22.1126C29.8855 22.1062 29.8874 22.0912 29.8856 22.0711C29.8712 22.1014 29.8629 22.1209 29.8744 22.1126ZM34.0349 39.4771C34.714 39.3267 34.432 38.6714 34.9275 38.2016C34.6441 38.5326 33.7935 38.8637 34.0349 39.4771ZM34.5906 33.2922C34.9799 33.5124 35.1738 32.4411 35.2759 32.7863C35.8745 32.751 34.6368 32.0922 35.4136 32.2724C35.4172 32.1626 35.3193 32.1105 35.355 31.9813C35.27 31.9586 35.184 31.9355 35.098 31.9125C34.9957 32.615 35.0332 32.8807 34.5906 33.2922ZM36.4722 21.1277C36.2981 21.2518 36.3568 21.6278 35.8907 21.2462C36.1345 21.0703 36.0867 20.9861 35.7023 20.9214C35.6619 21.2346 36.0847 21.2795 35.9156 21.667C36.2708 21.5313 36.5912 21.3325 37.0811 21.4285C37.1666 20.8002 36.3975 21.3406 36.4722 21.1277ZM35.9995 22.3779C35.8711 22.799 36.5925 22.3826 36.1624 22.2839C36.224 22.1389 36.4261 22.2386 36.5832 22.2589C36.6495 22.0034 36.2763 22.0017 36.4629 21.676C35.9667 21.8163 36.2857 22.2796 35.9995 22.3779ZM35.595 17.7247C35.6967 17.7778 35.7292 17.7068 35.7577 17.6316C36.0144 17.8712 36.437 17.0589 36.4347 17.6743C36.8006 17.5953 36.4652 17.0157 36.0582 17.0237C36.0687 16.602 36.5438 16.985 36.4876 16.4492C35.7801 16.5703 35.9607 17.2294 35.595 17.7247ZM24.4741 22.732C24.9621 23.2562 24.3732 23.8697 24.7397 24.3178C24.5375 23.983 25.2721 23.3434 24.9899 22.8702C24.8636 22.8395 24.8473 23.0007 24.7926 23.0927C24.6835 22.9745 24.7385 22.7614 24.4741 22.732ZM2.67019 83.7861C2.623 83.6068 2.91386 83.5336 3.07974 83.4207C2.8447 83.1889 2.16249 83.5559 2.35568 82.9005C1.75254 83.4553 1.24584 83.2947 0.818247 83.4069C0.686689 82.7774 0.220825 83.2178 0.0885601 82.5871C0.52184 82.5696 0.339638 82.9753 0.86874 82.9286C0.813788 82.5039 1.55234 82.5372 1.74369 82.0201C1.29846 82.0127 1.36328 82.2692 0.739899 82.3972C0.470563 81.7101 0.43476 82.2378 0.0779323 81.9931C0.393608 81.3675 1.04835 82.3742 1.38464 81.9074C0.889575 81.344 0.217901 81.6755 -0.0013792 80.9831C0.686633 80.9925 0.258019 79.9107 0.924067 79.5964C0.265858 77.6135 2.84935 76.3522 2.72244 74.1482C4.16696 73.0227 4.30558 69.6849 6.01442 68.9677C6.10178 68.634 6.23306 68.314 6.59093 68.0642C6.44768 67.9999 6.28349 67.9983 6.11393 68.013C6.44883 66.7206 6.46877 66.6887 7.19053 65.1966C7.3632 65.5452 6.87637 65.6891 7.20731 66.0884C7.24944 65.7031 7.92922 65.0053 7.41932 64.7755C7.42105 64.514 7.65157 64.3222 8.0032 64.169C8.18118 64.3895 8.08626 64.5235 8.13275 64.7016C8.23036 63.5569 9.42765 62.5349 10.4772 62.8721C10.9628 62.2071 9.87013 62.6918 9.69083 62.2328C9.80904 62.1702 9.927 62.1087 10.045 62.0471C9.39864 62.1255 9.61636 61.6993 9.6679 61.0433C9.87138 61.0026 9.70087 61.2178 9.85384 61.3965C9.89767 61.2136 10.2694 61.132 10.022 60.8576C10.3045 61.0358 10.1877 61.1049 10.5658 61.3243C10.8756 61.223 10.7102 60.9747 11.0933 60.8972C10.9563 60.7052 10.7503 60.736 10.499 60.9088C10.3201 60.688 10.4157 60.5552 10.3685 60.3759C10.5897 60.4082 10.7697 60.5672 10.9692 60.6611C11.1037 60.2944 10.8751 60.0271 10.9472 59.4719C11.6891 59.2762 11.1956 58.6957 11.9394 58.5006C12.3437 58.6379 12.2089 58.7622 12.4832 58.9672C12.8052 58.3795 13.3037 57.9644 13.9477 57.7477C13.8869 57.2096 13.4098 58.0011 13.348 57.4628C13.0945 57.6785 13.3367 58.0499 12.8276 58.1878C12.7447 58.0299 12.6627 57.8724 12.5804 57.7157C12.7639 57.6531 12.8055 58.0463 13.0013 57.9455C12.9576 57.6253 12.831 57.4837 13.3441 57.1646C13.0391 56.8075 13.1137 56.5676 13.5674 56.4469C13.1161 56.3074 13.4607 55.9142 13.2532 55.5604C13.5704 55.6475 13.7966 55.1511 14.1335 54.9484C14.2437 55.1477 14.206 55.3001 14.0823 55.4254C14.7133 55.7094 14.4881 54.9078 15.0307 55.2282C15.095 55.0849 15.0956 54.9204 15.0809 54.7509C15.5032 54.7243 15.9978 54.4665 16.2588 54.1337C15.9222 54.057 15.4569 54.3909 15.0758 54.4534C15.0036 54.2011 15.6097 54.1606 15.1819 53.7986C14.9798 53.8262 14.9793 53.7588 14.6156 53.8063C14.7172 53.6782 15.1077 53.0167 15.6419 52.9549C15.5577 52.5969 15.2802 52.8559 15.1035 52.7889C15.0281 52.6993 15.0913 52.6531 15.1599 52.6094C15.2718 52.5783 15.2468 52.5053 15.2153 52.4296C15.8101 52.7328 16.4697 52.8288 16.9614 53.4668C17.1334 53.3887 17.305 53.3125 17.2529 53.1629C17.6069 53.0435 17.4534 53.5314 17.1411 53.5222C17.9894 53.4358 17.425 54.1087 17.9775 53.6852C17.7438 54.1206 18.3375 54.5592 18.8801 54.2615C18.8784 55.0831 18.3451 55.7363 17.731 56.3668C18.0984 56.9933 17.3732 57.505 16.9341 58.286C17.1541 57.9287 17.0219 57.8271 16.8081 57.7594C16.8067 57.757 16.807 57.756 16.8058 57.7526C16.8043 57.7543 16.8029 57.756 16.8007 57.7564C16.596 57.6933 16.3237 57.6586 16.2052 57.4674C16.1434 57.5782 16.0792 57.6904 15.9141 57.7694C16.4768 58.1034 15.8241 58.2287 15.7518 58.6069C16.0381 58.6898 16.4516 57.9849 16.8007 57.7564C16.8023 57.7579 16.8055 57.7577 16.8081 57.7594C17.1409 58.6385 16.0434 57.8817 16.5864 58.7684C15.8592 58.9866 15.8535 59.1238 14.8768 59.5154C15.1154 59.6953 15.4624 59.5325 15.8252 59.3181C15.9616 59.6901 15.537 60.1851 15.1862 60.1035C15.2701 60.362 15.4046 60.4592 15.607 60.3333C15.2273 60.6415 14.1602 60.4746 13.7229 61.3223C13.9863 61.425 14.3685 61.1423 14.6139 61.3043C14.4495 60.9362 14.5826 60.7679 15.1414 60.8773C15.2854 61.0701 15.1572 61.1776 15.085 61.0568C14.9571 61.1478 15.0985 61.3234 15.1537 61.4728C14.7232 61.9009 14.579 61.4151 14.261 61.4893C14.316 61.9254 14.4145 61.9828 14.5201 62.5546C14.0697 62.8947 12.9325 63.8199 13.4314 64.7786C13.0748 65.0931 12.9824 65.0093 12.7308 65.446C13.0769 65.3907 13.3381 65.6057 13.6289 65.726C13.5731 65.9689 13.3192 66.229 13.1007 66.1518C13.1295 65.9981 13.222 65.8613 13.3304 65.731C13.1044 65.512 12.6459 66.0331 12.3257 66.1078C12.4658 66.1877 12.6603 66.0877 12.7478 66.3368C12.3564 66.7506 11.9055 66.7716 11.3963 67.1963C12.0776 66.972 12.287 67.1679 12.5796 66.8756C12.5879 67.262 12.5309 67.374 12.1149 67.4199C13.1812 67.4665 11.1012 69.1671 11.7953 69.3893C11.9263 69.7081 11.5078 69.334 11.3242 69.6368C11.2845 69.4605 11.4342 69.3422 11.3744 69.1595C11.1187 69.1169 11.191 69.597 10.7792 69.1709C10.5104 69.4591 11.1158 69.3946 10.9097 69.7038C10.1294 70.0507 10.3587 70.3036 9.50209 70.7419C9.72364 70.823 9.64515 70.9034 9.68705 71.0948C10.1094 70.7627 10.6195 70.0567 11.0947 70.0567C11.1492 70.2049 10.9325 70.2679 10.8034 70.3596C11.0505 70.8089 10.3562 70.2936 10.2207 70.9655C10.4921 70.9843 11.2247 70.8929 11.0457 70.5333C11.6504 70.9075 10.7752 71.2373 10.4064 71.3196C10.5992 71.4385 10.7784 71.6004 11.0634 71.4252C11.1248 71.6094 10.7317 71.6511 10.8334 71.8471C10.3765 71.6936 10.0559 71.8044 9.87395 71.4482C9.35983 71.945 9.35583 72.6014 9.13392 73.19C8.7878 73.1449 9.06797 72.8566 8.70715 72.6615C8.43716 72.9505 9.04249 72.886 8.83644 73.1952C8.67884 73.2772 8.52247 73.3585 8.36585 73.4407C8.34131 73.2696 8.38845 73.1207 8.59464 73.0196C8.49854 72.9069 8.31908 73.0628 8.23533 72.9078C8.11311 73.5262 8.00912 73.6516 8.02332 74.2207C7.66496 74.5574 6.99204 74.9051 7.50838 75.2422C7.20249 75.387 7.00004 74.9486 7.08135 74.7147C7.00278 74.7568 6.92376 74.7967 6.84493 74.8398C7.1043 75.0811 6.80824 75.4635 6.86671 75.9099C7.40288 75.7171 7.76156 75.2169 8.36889 75.1487C8.60261 74.5933 8.44167 75.9126 8.83815 75.9629C8.8785 75.0782 9.26034 75.956 9.52414 75.4583C9.52384 74.4664 10.104 73.8236 10.5636 73.1206C10.5593 73.5926 10.662 74.0053 10.7669 74.4133C11.0043 73.8868 10.84 73.3718 11.1201 72.5813C11.66 72.7726 11.5931 72.207 11.5846 71.8796C12.4304 72.5866 12.4808 70.5016 12.8376 70.2866C13.1302 70.481 12.4216 71.2519 12.9817 71.2901C12.9379 69.9625 13.726 70.0774 14.1152 69.1154C14.4053 69.2345 14.5964 69.5373 14.7923 69.1581C14.8878 68.7551 14.7902 68.2113 15.3255 68.1994C15.2629 68.7924 14.7554 69.0136 15.1439 69.3911C15.4931 69.2434 15.6029 68.6827 15.8384 68.3369C15.1282 67.8619 15.9139 67.1976 15.6436 66.4947C16.032 66.6681 16.1053 67.0242 16.5683 67.1545C16.875 65.0015 18.6378 64.2222 18.973 62.2912C19.9107 62.2225 19.8493 60.4233 20.7488 60.2885C20.7394 59.4195 21.3921 58.1543 22.1832 57.5049C22.0076 57.4724 21.4107 57.5557 21.7978 57.4017C22.3216 57.4944 22.3277 56.6875 22.8098 56.7079C22.6788 56.0144 22.9097 55.0638 23.4546 54.8153C23.3643 54.8315 22.8744 55.0026 22.9407 54.6777C23.4242 54.5463 23.2449 53.8243 23.7988 53.5307C23.6018 53.5317 23.5401 53.627 23.4134 53.4274C23.4783 52.7874 23.8359 52.6544 23.9205 52.0487C24.5362 52.3203 23.953 52.7313 23.6796 52.9479C24.1054 53.0279 23.8552 53.4981 24.0213 53.728C24.1012 53.5537 24.2908 53.5683 24.3806 53.4112C24.4467 53.2456 23.9615 52.8848 24.3895 52.8638C24.977 52.4912 24.9076 50.7913 25.8331 49.5319C25.7046 49.4975 25.5762 49.4631 25.4477 49.4286C25.0982 50.0566 25.2304 50.3788 24.8819 50.5163C24.6307 50.1674 24.9278 49.5761 25.2261 49.2316C25.206 49.3877 25.1063 49.5898 25.2504 49.6512C25.3675 49.2757 26.0489 48.9158 25.7233 48.3999C25.8007 48.7023 25.3583 48.9585 25.3982 48.5893C25.6707 48.685 25.5786 48.1479 25.6979 47.9811C25.855 48.0014 26.0563 48.0999 26.1177 47.9559C25.1894 47.5912 26.6775 47.7984 26.0676 47.1153C26.3115 46.9736 26.8108 47.274 26.8483 46.7747C26.678 46.7301 26.6704 46.9672 26.5225 46.9628C26.7041 46.293 26.9505 46.8259 27.2078 46.4569C27.1524 46.2889 27.4847 45.1915 27.9384 45.2758C27.5981 45.1277 28.2708 44.1474 28.574 43.9315C28.3832 42.8585 28.7838 41.8965 29.5187 41.4297C29.3432 41.3775 29.2203 41.415 29.0998 41.4552C29.2028 41.0708 29.3061 40.6854 29.4096 40.299C29.6574 40.2898 29.9604 40.3762 30.1205 40.2151C29.7009 40.17 29.9003 39.6809 29.5129 39.9136C30.2114 38.7632 29.364 36.9842 30.7773 35.7086C29.9241 35.4965 31.1515 35.139 30.7616 34.7395C30.7007 34.8857 30.685 35.1103 30.5299 35.0904C30.5532 34.7985 30.5535 34.3027 30.8993 34.2256C30.5489 33.64 30.6978 32.041 31.4937 31.4933C30.868 29.8142 32.402 29.4943 31.2819 28.6828C31.3574 27.999 31.3887 27.5539 31.8142 27.7239C31.9477 27.4304 31.2107 27.6388 31.5318 27.2362C31.8405 27.2743 32.02 27.3887 32.1398 27.5367C32.1985 27.8082 31.6404 27.8626 32.0023 28.0496C32.2806 28.031 32.4018 27.7374 32.6546 27.6747C32.4548 27.2112 32.5369 27.2601 32.0457 27.3738C31.7617 26.9696 32.2226 26.7638 32.03 26.4048C31.7676 26.2288 31.7582 27.4035 31.6351 26.8507C31.6552 25.8291 32.2823 25.4826 32.1859 24.7953C32.0531 25.005 31.9773 25.3108 31.7568 25.3688C31.771 25.2887 31.7784 25.211 31.6637 25.2061C31.6984 25.0767 31.6006 25.0246 31.6032 24.9145C31.8771 25.0127 32.0409 24.919 32.0918 24.6324C31.9555 24.4571 31.647 24.3838 31.6822 24.1095C32.0681 23.5079 32.5541 22.2001 31.531 21.5906C31.6289 21.3642 32.2497 21.103 31.9007 20.7247C31.7529 20.9709 31.5359 21.097 31.2489 21.1019C31.4062 20.5995 31.04 21.0894 30.9316 20.7405C30.9618 20.5425 31.105 20.2786 30.9408 20.1922C30.5217 20.1761 30.6704 20.216 30.2985 20.0201C30.5079 20.4789 30.1243 21.1453 30.9316 20.7405C30.5745 21.2929 30.5667 21.4378 30.2364 21.7934C30.2813 21.7454 30.1854 21.582 30.1105 21.506C30.1014 21.4819 30.0852 21.4651 30.0483 21.4676C30.0641 21.4667 30.0859 21.4818 30.1105 21.506C30.1476 21.6185 29.9443 21.9522 29.8873 22.0684C29.8763 21.9588 29.6911 21.7032 29.6537 21.9127C29.705 22.208 29.6492 22.5668 29.9954 22.6927C30.3301 22.3941 30.3671 21.58 30.7585 21.3825C30.6151 21.9912 31.2231 21.3756 31.3422 21.2636C31.1518 21.5335 31.6421 21.9371 31.2973 21.941C31.2113 21.4624 30.8284 22.3154 30.654 21.7687C30.5591 22.293 30.2341 22.4202 30.1813 23.0189C29.7015 22.9162 29.8188 23.3711 29.6592 23.4298C29.6858 23.234 29.3807 23.2289 29.1797 23.1636C29.3145 22.7069 29.7025 22.2829 29.2326 21.9386C29.1979 22.068 29.0871 22.0642 29.0353 22.1611C29.6517 21.9587 28.7479 22.7042 28.7599 23.1888C29.2762 22.8809 28.7667 23.5499 29.042 23.6775C29.2028 23.5798 29.3657 23.4857 29.5307 23.3954C29.471 23.6837 30.0608 23.5964 30.2671 23.7304C29.906 24.6803 29.4727 24.4503 29.6911 25.366C29.3164 25.366 29.5016 25.0419 29.2471 24.9717C29.0938 25.2733 28.7591 25.0697 28.4317 25.4416C28.5611 25.4763 28.5573 25.5871 28.6542 25.6389C28.9391 25.7577 28.8965 25.3063 29.1428 25.3568C29.0354 25.8156 29.6408 25.1983 29.4929 25.5883C29.1026 25.4413 29.7197 26.0476 29.2611 25.9393C29.2401 25.562 28.7235 25.8594 28.7734 26.2217C28.914 26.2728 29.0243 26.0891 29.0304 26.2905C28.6635 26.3537 28.1272 27.0993 27.9245 26.8203C28.156 26.7333 28.1826 26.1741 27.7449 25.9492C27.3822 26.1978 27.0367 26.4789 26.6977 26.7701C26.728 26.5722 26.8712 26.3083 26.7079 26.2221C26.8111 26.7373 26.0986 26.769 26.3729 26.9585C26.7559 27.059 26.8981 26.741 27.246 26.7793C27.2317 27.0416 27.7163 27.0141 27.4937 27.3965C27.1265 27.4803 27.2278 26.7817 27.0143 27.1303C26.6722 27.5801 27.5568 27.3233 27.4249 27.6534C27.192 27.8581 27.5263 29.1372 26.7549 29.1262C27.0036 28.6462 27.1033 28.4752 26.4122 28.3459C26.3495 28.796 25.906 28.732 25.6239 29.2362C26.2348 28.6794 25.8488 30.0698 25.3829 30.1355C25.8271 30.4057 25.966 29.6944 26.0253 30.3076C25.4232 30.0935 26.0806 30.986 25.4684 30.8479C25.3627 30.6901 25.555 30.3628 25.1853 30.359C25.1907 30.7176 25.0846 31.1405 25.3308 31.3618C24.7246 31.1165 23.9509 31.7706 24.3178 32.0552C24.0868 32.1559 23.7142 32.0126 23.6662 32.4314C23.9217 32.4978 23.9234 32.1245 24.2489 32.3122C24.257 32.8268 23.7486 32.4483 23.5973 32.6883C23.8189 32.758 24.005 32.7665 24.1459 32.6966C24.2812 33.4047 23.7736 33.5451 23.3481 34.1362C23.505 34.1575 23.7002 33.9851 23.7326 34.2392C22.9913 34.4557 22.6009 35.4257 21.9408 35.2737C21.9772 35.7638 22.3908 35.5299 22.3172 35.9243C21.8896 36.1679 22.2712 35.6904 21.8375 35.6591C21.839 36.1015 21.4328 35.8364 21.3144 36.0697C21.1748 36.2776 21.548 36.7048 21.1423 36.712C20.7298 36.3427 20.6793 37.2578 20.2931 37.3117C20.3199 37.1501 20.336 36.9971 20.1041 36.9856C20.2109 37.4139 19.7772 37.2552 19.8631 37.8849C19.6578 37.9055 19.2387 37.5571 19.1864 37.8413C19 38.6216 18.6962 38.4688 18.5849 39.0581C17.997 38.9999 18.7569 38.8298 18.3959 38.732C18.271 39.4336 17.4288 39.4088 17.2362 40.4867C16.0979 40.4001 16.0851 41.491 15.3511 41.3595C15.5304 41.9035 14.9131 41.6148 15.1448 42.1294C14.6911 42.0647 14.8887 42.4324 14.4671 42.0854C14.364 42.6169 14.3428 42.3638 14.0135 42.2403C13.9883 42.4738 13.4807 42.784 13.8073 43.0102C13.8731 42.6872 13.951 42.3809 14.237 42.4379C14.3127 43.2026 12.9281 43.8648 12.4098 43.6006C12.3751 43.7301 12.3407 43.8585 12.3066 43.986C11.9252 43.5588 11.8664 44.2377 11.5358 43.7795C11.5093 44.2994 10.874 43.7647 10.8495 44.2851C10.0208 43.7887 9.70556 44.5438 9.2393 44.128C9.57421 45.1422 8.19715 44.1614 8.06368 44.9145C7.29946 44.7491 7.21085 44.8827 6.65053 44.5359C5.89264 45.6952 5.17488 43.5752 4.14053 44.1397C4.11838 43.9713 4.08153 43.8113 3.98589 43.6852C3.69694 44.1068 3.06492 43.8691 2.79526 43.5039C3.20192 43.4969 2.71486 43.1355 2.96737 42.8615C2.52402 42.9011 2.71018 42.5773 2.52332 42.4672C2.47081 42.6902 2.33556 42.7699 2.16214 42.7835C2.08367 42.3577 2.37903 42.2484 1.98328 41.9094C2.49288 42.1132 2.12236 41.4715 1.89045 41.7458C1.89637 41.3799 2.05047 40.9284 1.90794 40.649C1.70601 40.7998 1.60776 41.1317 1.35016 41.189C1.09725 40.7651 1.68319 41.1323 1.651 40.5801C1.32495 40.5103 1.18343 40.7178 1.17155 40.3139C1.34806 40.3043 1.4788 40.2182 1.53246 39.9986C1.39714 39.8236 1.08694 39.7488 1.12211 39.4746C1.22755 39.3786 1.77897 39.1443 1.51648 39.0305C1.32687 39.0118 1.24344 39.1841 1.0632 39.1844C1.14576 38.7759 1.40274 38.265 1.24428 37.9947C1.69017 38.4248 1.85685 37.9032 1.73295 37.7126C1.43167 37.8866 1.335 37.3896 1.19317 37.1539C1.35026 37.1742 1.55234 37.2739 1.613 37.1287C1.15717 37.1028 1.26155 36.7519 1.07393 36.5711C1.64306 36.8272 1.63725 36.5668 1.59703 36.1605C1.89829 36.1181 2.365 36.3622 2.37609 35.8185C2.18647 35.7998 2.10305 35.9721 1.92281 35.9725C1.97068 35.5929 1.74369 34.0175 2.10414 34.7818C2.50099 34.2628 1.64098 34.4703 1.89111 34.0352C2.02736 33.7084 2.57707 34.0948 2.7659 33.8576C2.25432 33.5839 2.6207 33.4336 2.09739 33.2654C2.73581 32.4592 1.91552 31.8925 2.9303 31.6986C2.34832 31.3553 2.89498 31.4479 3.00837 30.8934C2.77343 30.8004 2.68652 30.9624 2.46007 30.8841C2.89615 30.0371 2.4707 29.9211 2.71026 29.4366C3.30809 29.1257 3.91949 26.3493 4.15258 26.1053C4.16345 26.2811 4.24955 26.4119 4.46914 26.4656C4.812 25.8389 4.3912 25.8214 4.25611 25.719C4.66814 25.6379 4.53753 25.0821 4.94209 25.2143C4.46189 24.7192 5.67526 24.3134 4.90189 23.8266C5.23322 23.8999 5.41419 23.7113 5.64653 23.6131C5.58977 23.2956 5.85558 22.5199 5.27131 22.9618C5.84817 22.4703 5.22222 22.2177 5.86326 22.2942C5.70493 22.1317 5.50714 21.9928 5.61554 21.6771C6.80262 20.9019 6.13726 19.4596 6.26984 19.2352C6.60515 18.6677 7.90832 18.5334 7.36793 17.1887C7.70983 17.153 7.98146 16.997 8.18335 16.7187C7.77314 16.6192 8.74776 15.2229 8.89727 14.5682C8.96971 14.862 9.59326 14.5363 9.77109 14.3903C9.64262 14.3559 9.64643 14.2451 9.54884 14.1921C9.49633 14.4151 9.36206 14.495 9.18863 14.5086C9.09903 13.4908 11.0922 13.7681 10.7419 12.3087C11.2814 12.2503 10.6133 12.8892 11.1518 12.8306C11.1588 12.6461 11.036 12.5366 11.1611 12.2823C11.486 12.7814 11.9574 12.0846 11.8126 11.9061C11.6424 11.8615 11.6364 12.1001 11.4868 12.0942C11.8332 11.2728 11.8503 10.9813 12.4138 10.6903C12.4151 10.7972 12.3489 10.9441 12.4725 10.9814C13.1841 10.4391 13.5336 9.35458 13.8801 9.84288C14.129 9.47787 14.0308 9.51988 13.9237 9.16611C14.4718 8.68558 15.0106 8.70678 15.4232 8.19098C15.4255 8.29823 15.3593 8.44509 15.4828 8.48234C15.7941 8.29037 16.0037 8.40451 15.9121 7.90788C16.2879 7.90814 16.1036 8.2325 16.3581 8.30276C16.6909 7.67137 17.7891 7.05771 18.0811 7.52521C18.6788 6.61592 19.8518 6.70454 20.747 6.31184C20.7493 6.4191 20.684 6.56621 20.8075 6.60346C20.9233 6.31456 21.2287 6.39951 21.3558 6.61268C21.3869 6.0371 22.1734 6.20436 22.3584 6.46824C22.419 6.32299 22.4347 6.09839 22.5899 6.11822C22.7895 6.55166 23.6719 5.86256 24.003 6.49687C24.3063 6.33485 23.9339 6.05181 24.3986 6.05211C24.3637 6.32538 24.672 6.3997 24.8092 6.5752C24.8788 6.31949 25.2026 6.50566 25.2038 6.13018C26.0274 6.38709 26.5775 6.3357 27.157 7.06661C28.5998 6.82478 29.9402 8.39832 31.0707 8.39065C31.3055 8.77762 30.8155 8.57799 30.7701 8.99857C30.8986 9.03299 30.895 9.14282 30.9936 9.19614C31.1965 8.58173 31.4931 9.10534 31.9365 8.76034C31.9584 8.92978 31.9955 9.0888 32.0899 9.21556C32.3064 9.15346 32.6148 9.24646 32.6121 8.8047C32.4268 8.73123 32.1256 8.72301 32.1326 8.53854C32.3664 8.1643 32.3914 7.83143 32.7347 7.32296C32.5944 7.27087 32.4839 7.45555 32.4768 7.25385C32.628 7.26537 32.7151 7.16447 32.8036 7.06602C32.6732 7.03108 32.6211 7.12893 32.5113 7.12539C32.754 6.40879 32.8477 6.0436 33.2409 5.94397C33.3309 5.9712 33.361 6.00203 33.3679 6.03392C33.3531 6.06618 33.337 6.09914 33.3234 6.13068C33.2196 6.22815 33.0181 6.32324 33.2651 6.36354C33.271 6.28747 33.2939 6.20975 33.3234 6.13068C33.3581 6.09755 33.3761 6.06511 33.3679 6.03392C33.582 5.57882 34.0603 5.09203 34.0052 4.63313C33.8781 4.7906 33.5055 4.51993 33.4235 4.75263C34.0254 5.2069 33.0687 6.08419 32.6332 5.64242C32.9455 5.60911 33.4039 4.86025 33.2 4.55506C33.1246 4.92516 32.6971 4.68947 32.7365 5.25702C32.475 5.49131 32.4658 5.01159 32.3176 5.28248C32.6668 5.44748 32.058 5.41686 31.9919 5.47057C32.3243 4.73972 32.741 4.49834 32.499 4.09184C32.7537 4.16114 32.5673 4.48596 32.943 4.48621C32.8027 3.75808 33.1827 4.12493 33.6038 3.56173C33.141 3.27208 33.7723 2.25687 34.0857 1.76318C33.872 1.91192 33.3422 1.81035 33.5627 2.17379C33.3907 2.12772 33.2197 2.0819 33.0497 2.03635C33.1816 1.82632 33.2576 1.51954 33.4778 1.4626C33.4789 1.97638 33.7931 1.56881 34.0271 1.47208C33.0471 1.16912 33.7285 1.46973 33.9078 0.889363C34.4231 0.786206 34.4538 1.49842 34.6442 1.22437C34.6729 1.1482 34.7054 1.07719 34.8071 1.13032C34.7557 1.60417 34.2675 1.32428 34.2161 1.79812C34.4017 1.87062 34.7016 1.87954 34.6946 2.06402C34.6241 2.04513 34.5218 2.12952 34.6602 2.19249C35.0929 2.13864 34.6397 1.71283 34.8667 1.42168C35.2584 1.41275 35.1513 1.69257 35.4756 1.72252C35.5331 1.50809 35.5903 1.29462 35.648 1.07922C35.995 1.11732 36.1369 0.800238 36.5221 0.900351C36.5215 1.33915 36.2136 1.24422 36.0921 1.47359C36.2888 1.64742 36.3586 1.98189 36.7009 1.77443C36.4317 2.0605 36.0508 2.15306 35.8167 2.50133C35.9827 2.53857 36.0384 2.38475 36.2375 2.47639C36.2456 3.08732 36.127 2.95822 35.7823 2.6298C35.8428 3.21129 35.6504 3.4465 35.8932 3.76107C36.2031 3.48175 36.4194 3.04173 36.7169 2.74255C36.5885 2.70813 36.46 2.6737 36.3325 2.63954C36.8466 1.86833 37.0639 1.65634 37.7287 2.04981C38.0691 1.88428 38.1747 1.31626 38.612 1.32265C38.2058 1.76045 38.3125 1.92258 38.3366 2.35039C38.5148 1.76249 38.7427 1.95917 38.7749 1.2286C39.0491 1.48015 39.4757 1.10892 39.4172 1.40072C39.1063 1.42508 38.9752 1.76369 38.7312 1.90537C39.053 2.18416 39.4779 1.73066 39.503 2.11216C38.9057 2.37865 39.6725 2.77772 38.9443 2.65194C38.9554 3.11665 39.1332 3.5929 38.952 4.16862C39.0171 3.94898 38.9408 3.81258 38.7974 3.71411C38.7093 4.62227 38.7237 4.80419 38.7018 5.61619C38.4581 5.50949 38.3992 5.72147 38.2466 5.7696C38.6321 4.79829 38.6911 4.42378 38.6093 3.38833C38.1008 3.07195 38.2861 3.95705 37.8292 3.73009C38.0255 3.18324 38.0079 3.14437 38.1987 2.86523C37.8756 2.83457 37.9824 2.55571 37.5907 2.56465C37.4727 2.73077 38.0082 3.01194 37.6169 2.98474C37.1445 2.64592 37.5953 2.48201 37.5321 2.27355C37.2185 2.16882 36.9146 2.0822 36.8199 2.35811C37.29 2.58967 36.5282 3.08746 36.7326 3.71164C36.4692 3.68247 36.5242 3.46944 36.4161 3.35143C36.1101 3.85957 36.3961 4.58529 36.8519 4.29436C36.7057 4.23344 36.4808 4.21874 36.5009 4.06262C36.749 4.05248 37.0517 4.13981 37.2121 3.9778C36.7996 4.08778 37.0062 3.32837 37.2223 3.42976C37.2025 3.63877 37.4805 3.5942 37.6067 3.53277C37.4803 4.09729 37.7682 3.82657 38.1802 3.96182C37.9583 4.79787 37.6117 4.63461 37.8018 5.37401C37.2238 5.01207 37.7132 4.25597 37.3418 4.01152C37.2372 4.77652 36.0097 4.58219 36.0971 5.05594C36.512 4.96007 36.8294 4.69519 37.3912 4.85091C37.4297 5.4182 37.0394 5.24426 36.8337 5.38998C36.9971 5.441 36.9681 5.60304 37.1847 5.62172C37.1872 6.06445 36.78 5.79902 36.6616 6.03232C36.9378 6.32684 36.6472 6.88569 37.3199 7.17256C37.3707 7.01017 37.532 7.03786 37.5516 6.82158C37.182 6.81779 37.3746 6.48943 37.2692 6.33387C37.6503 6.55399 37.7213 6.23863 37.9807 6.24808C37.689 6.83456 37.6044 7.46309 37.602 7.66123C37.5671 7.43239 36.8353 7.57071 36.7289 7.84036C36.8574 7.87478 36.9092 7.7779 37.0203 7.78074C36.7838 8.45862 37.5355 8.2418 37.6534 8.50115C37.096 8.8891 37.3691 9.56586 37.1453 9.87962C37.3688 9.49745 36.8835 9.52373 36.8986 9.26273C37.0782 9.1566 37.1731 8.8021 37.0707 8.62039C36.8513 8.55436 36.7146 8.63163 36.6164 8.77406C37.1719 9.75732 35.819 9.64433 35.9714 10.6676C35.8038 10.5472 35.2674 10.6405 35.3634 10.367C35.793 10.5681 35.7115 9.96441 35.3979 10.2386C35.4435 9.81703 35.8699 10.0534 35.8613 9.53661C36.1776 9.63896 36.1974 9.88962 36.4087 9.54558C36.3334 9.17342 35.748 9.49589 35.8008 9.24499C36.0075 9.15338 35.703 8.43923 35.5278 8.20802C35.1054 8.02651 35.1975 9.1434 34.8763 8.58421C34.4726 8.93157 34.9989 10.6224 34.3357 10.0917C34.5975 10.4475 34.7359 10.8739 35.1566 11.1388C35.3425 10.9319 34.8874 10.606 35.2946 10.624C35.1625 11.1093 36.0673 10.7461 36.125 11.1219C35.9043 11.5555 35.5308 10.8011 35.2509 11.3007C35.8234 11.4324 35.1903 11.6738 35.1133 11.8146C35.4589 12.0315 35.4773 12.0364 35.8841 12.0212C35.5877 12.3237 35.3474 12.7221 34.8723 12.7139C34.7063 12.3174 35.1637 12.1594 34.9513 11.9089C34.4994 11.9804 34.9581 12.5909 34.6163 12.6453C34.9261 12.7914 35.0699 13.035 35.121 13.3313C35.4541 13.023 35.3029 12.7527 35.6785 12.7922C35.4705 13.4177 34.93 13.8857 34.5979 13.7419C34.4941 14.0557 34.4075 14.3597 34.6824 14.454C34.8623 14.262 34.8634 13.7633 35.2402 13.914C35.0129 14.5229 35.0256 14.3752 35.1275 14.8487C34.856 14.8225 34.5857 15.1746 34.6643 15.5497C34.272 15.6226 33.9957 15.8965 33.7807 16.2778C33.8247 16.5774 34.0543 16.7714 34.4473 16.8695C34.3559 17.2105 34.2991 17.6156 34.0778 17.7343C34.8704 17.9177 33.7118 18.6446 34.4448 18.9342C34.53 18.369 34.6029 17.8109 34.8926 17.2631C34.4968 16.7233 34.6802 16.2165 34.466 15.7719C34.8674 16.0741 35.0793 15.1018 35.2125 15.5589C35.6151 16.4173 35.1917 17.3288 35.4084 17.4014C35.4096 17.8448 35.0027 17.5784 34.8843 17.8117C35.2325 17.9185 35.2013 17.6679 35.3991 17.9497C35.3119 18.5185 35.0093 18.0212 34.9095 18.2315C35.0968 18.7186 35.0461 18.3437 34.703 19.0023C34.8327 19.0361 34.8288 19.1468 34.9267 19.1989C34.9733 18.6348 35.3705 19.5053 35.5426 18.9519C34.9767 18.7765 35.4 18.1166 35.6905 17.89C35.6675 18.1924 35.8551 18.3731 35.9028 18.6354C35.9623 18.4598 36.2675 18.5881 36.1253 18.8327C35.9432 19.0872 35.7226 18.5353 35.4486 18.789C35.8834 19.0091 35.2239 19.8594 35.8155 19.9889C35.2864 20.1401 35.494 19.8365 35.1145 19.5257C35.1274 19.7714 34.7556 20.2391 35.0365 20.3309C35.2058 20.3753 35.2146 20.1374 35.3622 20.1428C35.4389 20.2586 35.4559 20.9371 35.1557 20.9136C35.2849 20.5859 35.0911 20.4439 34.7451 20.3905C34.7107 20.519 34.6763 20.6475 34.6418 20.776C35.1328 20.5472 34.9505 21.2428 35.5411 21.0169C35.4401 21.3284 35.3559 21.6309 35.463 21.8221C34.9778 21.8133 34.8899 21.3145 34.6578 21.7441C35.2892 21.8294 35.0207 22.2906 35.8392 22.4737C35.6526 22.6794 36.1087 23.0056 35.7015 22.9876C35.7722 22.55 35.1527 22.2152 34.9307 22.781C35.0858 23.1684 35.6706 22.6894 35.6327 23.2445C35.2353 23.1163 35.4383 24.0124 35.0659 24.3319C34.8876 24.2903 34.8002 24.1955 34.715 24.1001C34.723 24.6148 34.3325 24.4418 34.1574 24.6392C34.0565 25.2592 34.1418 25.6248 34.0023 25.871C33.9806 25.8632 33.9604 25.8847 33.9407 25.9581C33.9657 25.9306 33.9848 25.9016 34.0023 25.871C34.0932 25.9068 34.2105 26.5004 34.4555 26.096C34.3705 26.0732 34.2846 26.0502 34.1986 26.0272C34.524 25.516 34.5308 25.1969 34.4146 24.7071C34.8623 24.5434 35.255 24.2832 35.6824 24.0829C35.6857 24.1905 35.6184 24.3371 35.742 24.3743C35.3251 24.8175 34.7626 25.3905 35.166 26.01C35.2195 25.7872 35.3547 25.7075 35.5262 25.6934C35.9575 26.2552 35.2552 26.5929 34.9251 26.9092C35.4433 27.3049 35.2729 26.5076 35.5773 26.5343C35.6762 26.9304 35.4474 27.1776 35.2331 27.819C35.5415 27.8581 35.7203 27.9713 35.841 28.1196C35.429 29.4523 35.3726 28.5541 35.5831 28.0504C34.8027 27.9262 35.5058 28.6405 35.1197 28.7524C34.9169 28.2457 35.2801 29.2044 34.8889 29.1037C34.9539 28.884 34.8776 28.7476 34.7342 28.6491C34.5872 28.8965 34.3535 28.9923 34.1767 29.1882C34.5119 29.3629 34.2152 30.4626 34.741 30.1656C34.2498 30.0785 34.9743 29.5924 34.9131 29.5232C34.8985 29.686 35.0339 29.6405 35.17 29.5921C35.1698 29.9678 34.8457 29.7826 34.7754 30.0371C35.0433 30.3936 34.956 30.4489 35.3157 30.5939C35.2151 31.2088 35.1662 31.1636 35.2973 31.6905C34.4095 30.9816 34.9658 31.7994 34.4576 31.7409C34.3639 32.0947 34.5053 32.4825 34.8685 32.263C34.4834 32.7883 33.9668 33.0857 33.3671 33.2376C33.8089 33.2038 33.7231 33.2689 33.976 33.5385C34.023 33.1194 34.2778 33.0572 34.5335 32.9994C34.5195 33.4263 34.6183 34.1744 35.098 33.9758C35.0314 34.3017 34.7883 34.3204 34.6687 34.5503C34.7 34.7502 35.1578 34.7031 35.1137 34.9449C34.8019 34.9069 34.526 34.9282 34.3681 35.1582C34.625 35.4051 34.6726 35.1694 34.8122 35.5525C35.0361 35.2502 35.6467 35.6178 35.8501 35.2799C35.5586 35.8964 35.218 35.5256 34.897 36.2637C35.0432 36.3246 35.2681 36.3393 35.248 36.4955C34.7616 36.3403 35.1724 36.5881 35.0162 36.8464C34.4964 36.6885 34.6147 37.3445 34.4587 37.3855C34.4565 37.2741 33.701 37.4392 33.5502 37.6928C33.8055 37.7602 33.8074 37.386 34.1329 37.5736C33.998 38.7881 33.3286 39.8334 33.8207 40.7945C33.8207 40.6361 33.7958 39.8789 33.9584 40.2807C33.8744 40.5822 34.0783 40.7176 33.8803 41.0859C33.4222 41.134 33.8931 40.6441 33.4353 40.6913C32.979 41.741 32.9401 41.7357 32.8501 42.8752C33.1043 42.6876 33.5661 42.8611 33.6657 42.4043C33.3856 42.2557 33.0477 42.9375 32.9536 42.4889C33.3718 42.4001 33.1886 42.1874 33.4515 41.6584C34.0464 41.6481 33.8862 41.7594 34.6087 41.9685C34.6633 41.8765 34.6794 41.7162 34.806 41.746C34.7234 41.9806 34.6058 42.153 34.4104 42.1907C34.409 42.0837 34.343 42.0133 34.1879 41.9934C34.1529 42.2439 33.9681 42.2379 33.9229 42.4722C34.192 42.5111 34.4209 43.1098 34.0075 43.1843C33.9698 42.9889 33.7974 42.8713 33.5625 42.7897C33.7132 43.4637 32.8116 43.9809 33.209 44.6227C33.3362 44.6733 33.6174 44.1378 33.6286 44.5984C33.2927 44.5964 33.4483 45.1941 33.5849 45.2752C33.6286 44.9732 33.7462 44.8008 33.9805 44.8304C33.9592 44.9873 33.8605 45.1896 34.0057 45.2503C34.0928 44.8481 34.3384 45.7359 34.0641 45.5423C34.0842 45.3862 33.8991 45.3469 33.7144 45.3099C33.4573 45.9139 33.2163 46.7708 32.9746 47.0393C33.2507 47.2955 33.5135 46.6392 33.5238 47.0488C32.9533 47.455 32.9827 47.9826 32.4088 48.127C32.5475 47.0491 31.6486 46.1498 32.6682 46.1311C32.3711 45.9531 32.1747 45.8632 31.863 46.053C32.3325 46.6074 31.6918 47.4182 31.9982 47.6039C31.6898 47.4643 31.4509 48.4563 31.9456 48.828C31.5917 48.8387 31.3047 48.8591 31.2092 48.493C31.6716 48.5485 31.4666 47.7948 31.321 47.558C31.1778 47.8064 31.0478 47.7778 30.9021 47.5835C31.1095 47.0914 31.0759 47.217 31.1431 46.6842C31.3043 46.9324 31.4783 47.1716 31.8542 46.5994C31.2202 46.6397 32.1475 45.7793 31.5135 45.8196C31.4286 46.1209 31.6332 46.2575 31.4356 46.6239C30.9715 46.602 31.3509 46.0939 31.0592 45.9733C31.2231 46.3661 30.777 46.5437 30.6983 46.2886C30.9494 46.3984 30.7719 45.9097 30.6738 45.87C30.3358 45.6438 29.1559 45.4343 29.3111 46.331C29.6794 46.4359 29.693 46.1186 29.9881 46.3737C30.0575 46.1532 30.066 45.967 29.9973 45.8254C30.2475 45.8614 30.2425 46.0464 30.4765 46.0925C30.2798 46.6952 30.0993 46.6965 30.1325 47.3762C29.9129 47.3112 29.7762 47.3884 29.6778 47.5318C30.0708 47.5719 29.7805 47.929 29.7042 47.951C29.6739 47.9056 29.2124 47.6225 29.0618 47.7788C29.083 47.9471 29.1208 48.1073 29.2145 48.2328C29.4573 48.3393 29.5161 48.1273 29.67 48.0785C29.3606 48.3486 29.6962 48.5679 29.3682 48.6871C29.1316 48.3763 29.0488 49.234 28.5196 49.2848C28.2809 50.2375 28.5057 49.7811 28.594 50.545C28.8266 50.2564 29.0785 50.004 29.35 49.7827C29.2573 49.7268 29.097 49.7108 29.1265 49.5851C29.4507 49.5964 29.794 49.2308 29.591 48.8834C29.9313 48.7841 29.9852 49.3442 30.1048 49.0211C30.0071 48.8604 29.9133 48.6965 29.8227 48.5325C30.2294 48.5255 29.7433 48.1643 29.9948 47.8901C30.2024 47.954 30.5454 48.7178 30.7656 48.0966C30.4184 48.3069 30.4303 47.8298 30.0292 47.7616C30.5015 47.4596 30.2237 46.7578 30.8876 46.6137C30.841 46.9884 30.3365 47.3181 30.8784 47.162C30.7065 47.587 30.7206 47.9055 31.2189 47.9427C31.2193 48.3818 30.9764 48.3995 30.7911 48.5155C31.5891 48.7325 31.2251 50.1143 31.8944 50.0504C31.8673 50.5069 31.5176 50.4018 31.3367 50.5904C31.3795 50.4114 31.4731 50.3247 31.5684 50.2394C31.2969 50.2982 31.2425 49.7401 31.0545 50.1017C31.2417 50.4231 30.9399 50.8578 30.7791 51.1295C30.7925 51.6207 30.5607 49.8079 31.0041 49.2621C30.4725 49.2408 30.8965 48.7788 30.5342 48.4467C30.3693 48.9771 30.7433 49.1963 30.7714 49.6128C30.5747 49.5818 30.3096 49.4394 30.2244 49.6029C30.4875 49.633 29.5292 50.7252 30.1715 50.8279C30.0499 50.6132 30.1306 50.3045 30.4374 50.3495C30.2266 50.7961 30.5826 50.9164 30.4534 51.3176C30.0688 51.0913 30.1604 51.6884 29.9303 51.7282C30.1086 51.7697 30.196 51.8646 30.2812 51.9599C30.1351 51.6475 30.3366 51.7998 30.4187 51.447C30.7727 51.5284 30.6203 51.7298 30.9325 51.5847C30.9238 51.8184 30.654 51.8631 30.8295 51.9691C31.2656 51.9721 31.5577 51.7243 31.9009 51.5678C31.4912 52.2469 30.9465 52.9467 30.2631 53.0555C30.6042 53.0227 30.512 52.3468 30.3411 52.2503C30.2245 52.5928 30.0935 51.9728 29.6057 51.9156C29.4508 52.7872 29.0739 52.2969 29.2019 52.9089C29.4896 52.9052 29.6894 52.7507 29.9475 52.6956C29.9059 52.9008 29.8115 53.1375 30.1011 53.1498C30.0123 53.6861 29.4486 53.3984 29.2522 53.7485C29.5104 53.9057 29.7584 53.4939 29.6023 53.98C29.4162 54.3422 29.3608 53.7838 29.0894 53.8426C28.8579 54.7413 28.9666 55.0272 28.8045 55.4196C29.0408 55.2023 29.423 55.2364 29.6192 54.9484C29.0841 54.8475 29.6881 54.7764 29.6291 54.4013C29.5362 54.3464 29.3771 54.3297 29.4066 54.204C30.4936 54.8224 29.6369 55.2223 29.6015 56.0462C29.2193 55.8227 29.3123 56.4222 28.9846 56.293C29.0271 56.088 29.1223 55.8526 28.8316 55.8399C28.7319 56.2315 28.6798 56.7041 28.2397 56.5075C28.2593 56.2063 28.8235 55.9165 28.5747 55.7711C28.3131 56.0054 28.3042 55.5247 28.1539 55.796C28.0064 56.0412 28.0871 56.683 27.7854 56.6611C27.9623 55.6184 28.0077 55.086 28.567 54.2544C28.1379 54.1674 28.2323 54.4681 27.7615 54.1773C27.7823 54.3817 27.434 54.8008 27.7181 54.8531C27.7845 54.6556 27.821 54.4034 28.0793 54.5368C28.0258 54.713 28.0633 54.8359 28.1035 54.9564C27.1318 54.7695 28.193 55.8086 27.5365 56.0447C27.5642 55.8834 27.5787 55.7289 27.348 55.7167C27.3492 56.419 27.377 57.088 26.7717 57.3534C27.3034 57.1852 26.8507 57.9201 26.9862 58.0983C26.7136 58.1577 26.6594 57.5987 26.4714 57.9603C26.6917 58.39 27.4957 58.241 27.8855 58.3392C27.8758 57.8231 28.3024 58.0586 28.349 57.6373C27.9824 57.715 27.9638 57.4637 27.8004 57.629C27.7571 57.7986 27.9932 57.8059 27.9885 57.9548C27.7788 57.822 27.4729 57.7462 27.4141 57.5255C27.6638 57.5593 27.3986 57.2936 27.6116 57.302C27.769 57.7386 28.0168 56.9644 28.0911 57.5682C28.3025 57.2894 28.2068 57.3062 28.4261 56.8318C28.9705 56.9021 28.7122 57.5027 28.3825 57.5085C28.5879 57.6961 28.9143 57.239 28.8954 57.646C28.4523 57.7229 27.6295 58.4062 28.038 58.7942C27.654 58.6043 27.4302 58.8715 27.1724 58.4235C26.8171 58.436 26.4097 58.3569 26.1699 58.568C26.124 58.7389 26.0782 58.9099 26.0322 59.0818C26.3862 59.1632 26.2336 59.3656 26.5451 59.2193C26.3473 59.5866 26.666 59.6565 26.4682 60.0238C26.2496 60.0863 25.9433 59.9929 25.9439 60.4351C26.325 60.091 26.2365 61.1823 26.029 61.1453C26.0762 60.8339 25.482 60.9149 25.4817 61.1364C25.5943 61.7204 24.8303 62.4392 25.0237 63.3555C24.7673 63.412 24.3714 63.2283 24.1838 63.4068C24.1187 63.5726 24.6026 63.9342 24.1748 63.9542C24.0234 63.4104 23.7762 64.248 23.7455 64.5286C23.6171 64.4942 23.4886 64.4598 23.3601 64.4253C23.4176 64.2109 23.475 63.9965 23.5325 63.782C23.2159 63.6807 23.1961 63.43 22.9852 63.7731C23.5267 64.1128 22.987 65.076 23.0159 65.71C22.3988 65.3935 22.8444 66.9178 22.2279 66.5994C22.4072 66.1733 22.842 65.6055 22.1166 65.4691C22.0501 66.5518 22.2286 67.5934 21.2662 68.1327C21.1071 67.7723 20.6381 68.0659 20.3577 68.4401C20.4312 68.1078 20.5118 67.7722 20.1444 67.6945C19.7524 68.3617 19.9381 69.0285 19.44 69.2957C19.3349 68.7955 19.8585 68.4295 19.7496 68.1405C19.5189 68.2246 18.8749 69.2333 19.4053 69.4251C19.0622 70.238 18.6807 70.0085 18.3155 70.9231C18.0061 70.8837 17.8273 70.7706 17.7066 70.6223C17.3928 71.3105 17.8591 71.5483 17.7141 72.1399C17.4918 72.069 17.3057 72.0605 17.1651 72.1295C17.6284 71.826 17.2489 71.1715 16.7896 71.4791C16.8493 71.9403 16.8947 72.5281 16.5394 72.9267C16.0967 72.9292 16.477 72.4565 16.1288 72.4036C16.0996 72.667 15.8863 72.613 15.7686 72.7202C15.6076 73.9432 14.8574 75.6108 13.9052 76.0773C14.1429 75.1823 13.3816 75.9142 13.2118 75.0643C13.078 75.6486 12.9346 76.2147 12.4819 76.2467C12.5022 76.0896 12.601 75.8872 12.4567 75.8268C12.3121 76.548 12.1321 76.6519 11.8061 76.2033C11.7714 76.3327 11.6609 76.3279 11.6088 76.4258C11.5486 76.9439 11.6404 77.4167 11.1705 77.5476C11.1564 77.3026 11.5281 76.8349 11.2486 76.7423C11.0958 77.5172 11.0608 77.0337 10.6658 76.8616C10.5843 77.0965 10.4657 77.2686 10.2712 77.3066C10.3685 77.0324 10.2744 76.8696 9.98785 76.8186C9.95536 76.9476 9.84482 76.9429 9.79053 77.0412C9.86218 77.9445 9.32805 79.0106 9.52534 77.5209C9.36303 78.0996 8.72813 78.062 8.92321 78.7364C8.70997 78.1606 8.36846 78.2027 8.06758 77.8187C7.86792 77.8491 7.91574 78.3081 7.67295 78.2637C7.65176 78.0955 7.61395 77.9353 7.51832 77.8092C7.47709 78.4577 6.95855 77.5878 6.93631 77.9297C6.94941 78.1744 6.57891 78.6415 6.8585 78.734C7.03613 78.5424 7.03724 78.0437 7.41479 78.1956C7.43464 78.3997 7.08797 78.8203 7.37237 78.8717C7.49302 78.7073 7.65714 78.6125 7.85982 78.5902C7.58303 78.9664 7.6033 78.8134 7.43076 79.1637C7.20926 79.094 7.02311 79.0856 6.88151 79.1543C6.86725 78.9061 7.40302 78.7225 7.05336 78.5129C6.98823 78.8371 6.84603 79.0278 6.62553 79.0857C6.60252 78.8818 6.50874 78.7179 6.3434 78.597C6.28215 78.0992 6.92394 77.8715 6.61852 77.5702C6.31284 77.919 6.23298 78.6575 5.76042 78.7172C6.0233 78.2307 6.32411 77.8112 6.46723 77.1187C5.85692 77.2057 5.68066 78.0798 5.49175 78.5531C5.20758 78.2574 4.7786 78.7688 4.90909 79.1589C4.76456 79.1419 4.62364 79.1269 4.67292 79.283C4.13771 78.7845 4.24099 79.8402 3.78735 79.5975C3.72525 79.9722 3.80359 80.3908 3.27241 80.6191C3.36793 80.8382 3.547 80.792 3.6369 81.0283C2.82305 80.8279 3.75916 81.1864 2.99145 81.5169C3.0955 81.287 2.87308 80.9541 3.21506 80.7983C3.10116 80.5318 2.76884 80.9645 2.56416 80.9904C3.10724 81.3243 2.59088 81.6519 2.88482 82.1737C2.94113 81.6815 3.41332 81.3411 3.82679 81.6797C4.13829 81.4174 3.58333 81.4871 3.58025 81.2088C3.88243 80.8809 3.84112 81.0582 4.28727 80.8382C4.74995 80.8038 3.86381 81.1513 3.93859 81.3204C4.57705 81.565 4.52825 80.8893 5.05586 80.5855C6.27162 80.4412 8.0281 80.0216 8.96652 79.7378C9.18241 80.1994 9.08506 79.7281 9.38151 79.6688C9.51445 79.8411 9.37687 79.9295 9.44922 80.0845C10.0268 79.3935 10.8098 79.6778 11.756 79.3267C11.7943 79.4695 11.5631 79.5287 11.6442 79.686C12.1825 78.9596 13.4227 79.6822 14.1349 79.2809C14.2685 79.4544 14.1303 79.5416 14.2029 79.6956C14.6416 79.4529 15.6838 79.3926 16.6318 79.1735C16.9098 79.4881 16.4277 79.5681 16.7052 79.8847C17.0309 78.4449 19.804 79.1342 20.8385 78.3181C20.934 78.5373 21.1131 78.4911 21.2039 78.7276C22.4175 77.591 23.7444 78.2488 24.9844 77.346C25.2385 77.6222 24.8747 77.7049 24.9967 77.9415C25.8584 76.9818 26.088 77.4616 26.5279 77.1374C26.9546 77.2569 26.8897 77.4797 27.0781 77.9008C27.3923 77.7365 27.1386 77.3932 27.4812 77.2386C27.7939 77.6557 27.8339 77.6726 27.7957 78.1242C28.0044 77.415 28.2646 76.8687 29.1421 76.9672C28.8048 76.6149 28.8251 76.8595 28.485 76.8615C28.6944 76.5553 30.6105 75.8336 31.2122 76.3313C31.4441 76.1263 30.9729 76.2237 31.1452 75.9168C31.6482 76.0951 32.3284 75.7048 32.6989 76.3042C32.312 76.6467 32.1486 76.5998 31.9364 76.8546C32.8434 76.3481 31.8037 77.9837 32.6045 77.5564C32.926 77.45 32.5425 77.9115 32.3741 77.9761C32.4759 78.2839 32.8769 77.6294 32.9129 78.1443C32.4852 78.1911 32.4192 78.337 32.1495 78.6944C31.6873 78.2672 31.5026 78.0562 30.8243 77.8869C30.4525 78.4747 29.9839 77.9827 29.4061 78.331C29.2838 78.6212 29.3956 78.9845 29.3049 79.2843C28.8883 79.1892 28.9666 79.2485 28.5373 79.5372C28.6973 79.6547 28.9043 79.6242 29.1325 79.5259C29.3801 79.1429 29.9321 78.856 29.7041 78.3239C29.9551 78.2565 30.1323 78.422 30.4163 78.2507C30.4468 78.4576 30.3981 78.6392 30.4276 78.8459C29.9008 78.5132 30.2807 79.0426 29.9006 79.271C30.1585 79.4985 30.7201 78.7514 30.8537 79.3732C30.4754 79.3205 29.881 79.9625 29.6642 79.3961C29.6024 79.5069 29.5382 79.6191 29.3719 79.6987C29.4846 79.761 29.5959 79.825 29.6758 79.9903C29.6737 79.3375 30.3269 80.1451 30.9165 79.4904C30.7727 79.9612 31.1553 79.484 31.281 79.8997C31.0625 79.9964 31.1087 80.1755 30.8724 80.2654C31.1606 80.5342 31.0961 79.9288 31.4053 80.1349C31.5679 81.1817 30.6232 80.1521 30.8266 81.0389C31.0386 80.928 31.2724 81.0869 31.0741 81.51C30.9765 81.3565 30.2133 80.7162 29.3465 81.366C29.2946 81.0767 29.3829 80.6779 29.0941 80.5964C28.9793 80.8897 29.3867 81.3436 29.1722 81.6071C29.4312 82.043 30.0805 81.2231 30.4183 81.4037C30.0946 81.5571 29.5422 82.4402 29.2959 81.8411C28.7865 82.3589 29.5066 82.5808 29.9649 82.5432C29.9201 82.8883 29.6325 82.6094 29.4377 82.9692C29.5494 82.6026 29.2671 82.7599 29.0175 82.7407C28.8839 82.5672 29.0227 82.4781 28.9489 82.3247C28.4467 82.6032 27.5128 82.5145 26.9354 82.7801C26.7969 82.0722 26.8963 82.4508 26.6199 81.8943C25.9872 82.0571 26.1995 82.4856 25.8629 82.7412C25.9235 81.9665 25.5755 82.5503 25.144 82.5186C24.9962 82.3402 25.1195 82.247 25.2561 82.1583C24.975 81.8666 24.9137 82.4279 24.667 82.4674C24.8061 82.5471 25.0014 82.4483 25.0879 82.6971C24.2457 82.7261 23.9691 83.1324 23.5005 83.6798C23.3891 83.2917 22.8506 83.6402 22.8947 83.0971C22.4654 83.3392 22.6883 83.4228 22.9062 83.6914C22.7629 83.6737 22.6211 83.6584 22.6713 83.8148C22.3953 83.8557 22.1916 83.6655 22.0071 83.4111C22.3065 83.248 22.1973 83.4238 22.2497 83.5838C22.7087 83.2502 22.5454 83.0946 22.2317 82.6927C21.8995 83.1907 21.2301 83.3012 21.127 84.0221C21.0882 83.8461 21.237 83.7276 21.1772 83.5449C20.6225 83.4863 20.4399 83.9591 19.6398 84.0512C19.5047 83.7479 20.0209 83.8075 20.1109 83.8037C20.0042 83.1974 19.5559 83.6881 19.2189 83.8214C19.0622 83.5755 19.1189 83.395 19.3869 83.2836C18.4617 83.2862 18.0549 83.8305 17.5626 84.3891C18.0728 83.5475 17.3773 84.4316 16.9622 84.1029C16.8646 84.3356 17.1189 84.6771 16.5581 84.7649C16.4758 84.6083 16.3938 84.4507 16.3108 84.2928C16.0313 84.3701 16.175 84.5795 16.2613 84.7713C15.9815 84.8341 15.9156 84.717 15.9577 84.4788C15.4252 85.3724 14.0212 83.5727 13.641 84.6438C13.4638 84.6833 13.3465 84.5338 13.1638 84.5936C13.2026 84.4062 13.364 84.4412 13.6906 84.1653C13.5783 83.9002 13.2456 84.3308 13.0397 84.3574C12.9165 84.1215 12.7922 83.8863 12.669 83.6504C12.5511 83.7119 12.4341 83.7738 12.3168 83.8366C12.379 83.9485 12.5082 83.8526 12.6146 83.8304C12.8859 84.1122 12.6077 84.223 12.8057 84.481C12.6458 84.4672 12.5421 84.2748 12.3284 84.4308C12.2749 84.2829 12.4918 84.2189 12.6205 84.1291C11.768 84.4515 12.3268 84.3517 11.2025 84.5722C11.0686 84.3997 11.2071 84.3115 11.1347 84.1565C10.9458 84.2394 10.7914 83.9775 10.3043 84.2922C11.0813 84.5377 9.83598 84.5487 9.53574 84.5449C9.45602 85.1167 9.54603 84.8852 8.82872 84.9155C9.04669 84.0712 9.57067 84.5304 9.69778 83.7083C9.51587 83.5488 9.38857 83.7766 9.52441 83.9497C9.30208 84.0299 9.14971 83.8876 9.04126 83.6007C8.69086 83.8537 8.87664 84.273 8.82257 84.6178C8.42453 84.6312 7.98039 84.7897 7.63337 84.6398C7.51996 84.3443 8.01835 84.6094 8.16508 84.51C7.62528 84.1831 7.84327 84.2312 8.15446 83.916C8.05408 83.711 7.90632 83.6559 7.73262 83.6859C7.42344 84.3723 7.3759 83.9393 6.79654 84.4787C6.94242 84.0695 5.99592 84.1555 6.4259 83.7717C6.3342 83.6425 6.15863 83.7839 6.01047 83.8384C5.70264 83.9402 6.35714 84.3413 5.84351 84.3765C5.71057 84.2043 5.84814 84.1159 5.77553 83.9618C5.69721 84.0029 5.61864 84.0451 5.54033 84.0862C5.71369 84.7683 3.79876 84.1102 3.2848 84.367C2.85472 84.2372 3.07388 83.5236 2.67019 83.7861ZM23.3407 78.8053C23.715 78.977 24.5415 78.1218 24.1582 78.0761C24.0999 78.3555 23.415 78.3386 23.3407 78.8053ZM20.5018 82.8473C20.0658 82.6777 19.3562 83.5797 19.6775 83.2807C19.9337 83.0201 20.5105 83.2979 20.5018 82.8473ZM22.8201 82.6837C22.7739 82.5047 22.8698 82.3709 22.6906 82.151C22.7904 82.1105 23.9296 81.7345 23.7446 81.2967C23.4875 81.6109 22.9993 81.8528 22.5101 82.0944C22.7243 82.4231 22.2683 82.7802 22.8201 82.6837ZM21.5179 83.0657C21.5734 82.7772 22.1569 82.856 22.0392 82.3409C21.6424 82.4541 21.0345 83.0035 21.5179 83.0657ZM17.5672 81.8332C17.3573 81.7707 17.0807 81.9182 16.7989 82.0849C16.8297 82.5497 17.6595 82.0143 17.5672 81.8332ZM15.2115 83.0676C15.1186 82.5064 15.4993 82.8859 15.801 82.7607C15.5277 82.1657 16.3079 82.1594 16.5021 82.0913C16.3892 81.9255 16.3153 81.6334 16.1364 81.6828C15.8312 82.1766 15.449 82.6643 14.7852 82.5413C14.6908 82.8162 14.9505 83.068 15.2115 83.0676ZM16.7211 84.2299C16.7749 83.5268 17.4356 84.2101 17.6015 83.6179C17.2942 83.7602 17.0541 83.6865 16.8841 83.3936C17.0908 83.3641 17.2717 83.4115 17.4784 83.382C17.1583 83.027 17.758 82.9796 17.8886 83.0177C17.5284 82.6852 17.4179 83.0241 17.2257 82.6134C16.9712 82.717 16.0045 82.8939 16.5812 83.1022C16.5464 82.7337 17.0927 83.1099 17.2931 83.03C16.9468 83.2986 16.7034 83.2375 16.4076 83.3446C16.4676 83.7851 16.7433 83.5329 16.8903 83.6913C16.7711 83.7536 16.8003 83.8608 16.7159 83.9324C16.6207 83.7122 16.4547 83.7175 16.2387 83.8822C16.3688 84.092 16.5234 84.2338 16.7211 84.2299ZM34.8064 3.1924C35.0319 3.27042 35.12 3.10768 35.3537 3.20136C35.5423 2.8761 35.1681 2.87417 35.2354 2.6189C34.9494 2.56194 34.8737 2.86776 34.8064 3.1924ZM36.506 7.64086C35.9808 7.85422 36.3825 8.20203 36.265 8.54013C36.6517 8.48017 36.4446 7.86978 36.506 7.64086ZM35.224 5.23095C35.2855 5.36855 35.2044 5.77955 35.241 6.19933C35.6601 6.21535 35.5113 6.1755 35.8833 6.37144C35.9407 6.15701 35.9979 5.94354 36.0554 5.7291C35.6231 6.19096 35.8642 5.46148 35.6448 5.20601C36.1297 5.88463 36.0994 4.40953 35.5944 4.36635C35.9101 3.82564 35.9077 4.68842 36.2712 4.41C36.2312 4.28853 36.1928 4.16538 36.246 3.99017C35.8358 3.84404 35.5869 3.97714 35.465 4.33167C35.3496 4.32561 35.3577 4.24909 35.3709 4.16878C34.8857 4.31829 35.907 4.50187 35.7481 4.8206C35.5126 4.71403 33.9359 5.40964 35.224 5.23095ZM34.4932 6.41307C34.847 6.46026 35.0184 6.19146 35.1804 5.90771C35.0299 5.70797 34.8957 5.67199 34.6655 5.76976C34.6716 5.6544 34.7491 5.66274 34.8282 5.67668C34.5704 5.28253 34.5012 6.07773 34.4932 6.41307ZM33.9618 7.37222C33.9865 6.90157 33.75 6.58249 34.1431 6.18159C34.0217 6.22151 33.8985 6.25995 33.7233 6.20679C33.6653 6.55463 33.8751 6.69885 33.3631 6.52335C33.7551 6.69465 33.3741 7.3131 33.9618 7.37222ZM34.2255 8.95749C34.8562 9.1265 34.5577 7.75241 34.9462 8.3234C35.1204 8.24483 35.0507 8.09569 35.2467 7.71549C34.9971 7.84737 34.673 7.85162 34.3717 7.8941C34.0823 8.50293 34.6297 8.55022 34.2255 8.95749ZM29.142 17.6479C28.9261 17.6501 28.9244 18.0234 28.5593 17.7672C28.6002 17.8889 28.6377 18.0118 28.5855 18.1872C29.0509 18.2509 29.2027 18.0628 29.142 17.6479ZM29.829 17.1435C29.8491 16.9874 29.6235 16.9715 29.477 16.9115C29.6546 16.3763 29.7911 16.2958 29.7524 15.8838C29.1956 15.7325 29.8398 16.7437 29.0671 16.3897C28.8671 16.8309 29.0492 17.0516 29.0831 17.3578C29.2976 17.2372 29.6063 17.3178 29.5623 17.6249C30.0223 17.7088 29.4825 16.9917 29.829 17.1435ZM30.3521 16.7329C30.52 16.5968 30.5231 16.3263 30.5586 15.9621C30.3876 15.9163 30.2167 15.8705 30.0447 15.8244C30.2838 16.2187 30.0753 16.197 29.9322 16.7581C30.1388 16.8642 30.2016 16.7226 30.259 16.5703C30.3734 16.5761 30.3653 16.6526 30.3521 16.7329ZM31.3798 17.0083C31.6443 16.9021 31.8407 16.6794 31.9708 16.3405C31.4008 16.1339 31.1732 17.3236 31.1219 16.9392C31.0183 16.8855 30.9877 16.9571 30.959 17.0332C30.936 17.1192 30.913 17.2052 30.8902 17.2902C31.3917 17.3542 31.519 17.2847 31.5921 17.7537C31.9911 17.6556 31.3492 17.2538 31.3798 17.0083ZM33.8392 16.5657C33.081 16.8606 34.1541 17.1367 33.5638 17.5935C33.7192 17.6124 33.7852 17.6828 33.7863 17.7908C34.1141 17.6726 33.7786 17.4523 34.0869 17.1829C33.5154 17.0205 34.0013 16.8452 33.8392 16.5657ZM33.3253 16.4281C33.6944 16.3758 33.6597 15.6283 33.9861 15.5036C33.8027 14.6811 33.398 15.8978 33.3253 16.4281ZM32.7957 15.3213C32.6428 15.3704 32.5842 15.5814 32.3405 15.4747C32.2355 15.7892 32.4355 15.9277 32.426 16.1871C32.7247 16.1543 32.9603 15.6035 32.7957 15.3213ZM31.0934 12.9385C30.4454 13.3747 30.725 14.3213 30.2169 15.1821C30.3422 15.2126 30.3585 15.0513 30.4142 14.9596C30.4991 15.0558 30.5868 15.1497 30.7651 15.1913C30.3459 14.2756 31.1482 13.8311 31.0934 12.9385ZM30.1003 12.5337C30.0221 12.7601 30.1841 12.847 30.0911 13.082C30.2758 13.119 30.46 13.158 30.4402 13.3132C30.6171 13.3099 30.4606 12.5878 30.1003 12.5337ZM33.013 11.9372C32.3857 11.8519 32.9263 12.62 32.7131 12.5463C32.7238 13.0047 33.0054 12.4715 33.1319 12.5209C33.1996 12.2647 32.8273 12.2632 33.013 11.9372ZM34.0693 10.568C33.9501 10.7348 34.4856 11.0159 34.0945 10.9878C34.1915 11.1049 34.7034 11.1727 34.5992 11.6738C34.9961 11.6414 34.7094 11.1194 34.8057 10.903C34.2905 11.0061 34.5129 10.7324 34.0693 10.568ZM27.8079 8.7525C27.6524 8.73363 27.637 8.95727 27.5761 9.10348C27.4608 9.09742 27.4691 9.01994 27.4821 8.94059C27.0298 8.97471 27.5076 9.33981 27.7986 9.3008C27.8185 9.14564 27.888 9.07938 27.995 9.07802C28.0014 8.93065 27.7642 8.92302 27.8079 8.7525ZM22.3172 7.14359C22.0907 7.06531 22.0045 7.22856 21.7689 7.13436C21.831 7.26179 21.8737 7.53928 21.6656 7.51977C21.7579 7.90579 22.2269 7.38027 22.3172 7.14359ZM24.7993 9.18557C25.2603 8.81735 24.9832 8.34453 25.6835 8.45867C25.6835 8.17292 25.5556 8.13245 25.3325 8.22693C25.2078 8.19039 25.2752 8.04283 25.2729 7.93557C24.9684 8.22978 24.799 8.86974 24.7993 9.18557ZM20.1121 9.72067C20.2675 9.73954 20.3335 9.81002 20.3348 9.91702C20.4872 9.93195 20.4407 9.8077 20.369 9.78951C20.5205 9.54852 21.0279 9.92674 21.0206 9.41333C20.5216 9.33969 20.5089 8.98532 20.3874 8.69292C19.9732 8.80142 20.4133 9.31895 20.1121 9.72067ZM19.0155 9.70222C19.0854 9.84312 19.0769 10.0293 19.0072 10.2508C19.5999 10.4344 19.5223 10.5927 19.8376 10.7487C19.9865 10.7534 19.9932 10.516 20.1634 10.5606C20.0912 10.3124 19.6562 10.2745 19.4624 10.0974C19.7137 10.0984 20.4424 9.33399 19.8643 9.10353C19.7159 9.66525 19.4038 10.061 19.0155 9.70222ZM17.3524 10.7702C17.6302 10.7494 17.7862 10.5189 17.9099 10.2311C17.5186 10.1035 17.2102 10.5281 17.3524 10.7702ZM17.0955 10.7013C17.1937 10.4274 17.0994 10.2655 16.8131 10.2136C16.8019 10.4446 16.6476 10.4292 16.4873 10.4017C16.3905 10.6739 16.9277 10.5818 17.0955 10.7013ZM17.8318 11.0363C18.2511 10.7698 18.5148 10.5236 18.5261 9.98313C18.1397 10.0649 17.9146 10.426 17.8318 11.0363ZM16.143 11.6864C16.4163 11.7213 16.3922 11.2396 16.6664 11.2748C16.7983 10.9447 15.9135 11.2025 16.2558 10.7517C15.8253 10.8362 16.0679 11.0088 15.7904 11.4532C16.0773 11.5725 16.0327 11.1206 16.28 11.1713C16.6038 11.2922 16.0437 11.3461 16.143 11.6864ZM16.4344 11.6268C16.6198 11.9549 17.2608 11.2705 17.2491 11.1556C17.0701 10.738 16.7872 11.7244 16.4344 11.6268ZM13.226 14.3471C13.5166 14.3597 13.4224 14.5954 13.3806 14.8016C13.6293 14.5421 13.79 14.1317 14.0405 13.8768C13.912 13.8424 13.7835 13.808 13.656 13.7738C13.668 13.4199 13.8312 13.3249 14.1435 13.4924C14.2618 13.3253 13.7272 13.0444 14.1183 13.0726C14.4691 13.4285 14.4523 13.4333 14.8808 13.8277C14.8472 13.389 14.8585 13.3817 15.3683 13.5462C15.2563 13.1953 15.1069 13.266 14.7604 13.2457C14.7639 12.877 15.0925 13.0686 15.25 12.9638C15.3582 12.8882 14.7982 12.7992 14.9764 11.9256C14.847 11.8909 14.7185 11.8565 14.591 11.8223C14.5335 12.0368 14.4761 12.2512 14.4186 12.4656C14.6539 12.5111 14.6478 12.6958 14.8981 12.7318C14.8116 12.896 14.5477 12.7528 14.3498 12.7226C14.3127 12.9073 14.2737 13.0914 14.118 13.0735C13.3254 12.6779 13.6699 13.1968 13.226 14.3471ZM12.9104 13.9871C12.8499 14.1666 12.7919 14.3446 12.9356 14.407C12.8482 14.5709 12.5865 14.4273 12.3883 14.398C12.4455 14.6173 12.6369 14.7607 12.9608 14.8268C12.4995 14.8409 12.3845 15.2852 12.4288 15.7847C12.654 15.7364 12.7321 14.6526 12.8234 15.3397C13.1537 15.1425 13.3453 14.1026 12.9104 13.9871ZM11.2781 16.992C11.4455 16.4561 11.0803 16.9421 10.8927 16.8888C10.4416 16.7524 11.2809 16.5373 10.8682 16.4702C11.3155 16.4234 11.6384 16.0492 11.5283 15.5445C11.6144 15.3812 11.8793 15.5247 12.0775 15.5539C12.3194 15.478 11.5781 15.2348 12.1205 14.876C11.902 14.8568 11.9316 14.6959 11.7692 14.6452C11.9267 14.3975 12.2625 14.1645 12.1042 13.9088C11.5668 14.1064 11.5306 15.1724 11.2022 15.7335C10.976 15.7008 10.9287 15.4252 10.8178 15.6305C11.1552 16.0905 10.5181 16.2159 10.5676 17.0781C10.3728 16.6035 10.4699 16.9442 10.1487 17.1035C10.4275 17.6358 10.8866 16.8882 11.2781 16.992ZM8.03844 17.7773C8.48482 17.5294 7.96255 17.4578 8.08209 17.1005C7.87747 17.0219 7.59805 17.8715 8.03844 17.7773ZM9.87168 18.1298C9.39433 18.1572 9.7787 18.6391 9.4414 18.704C9.7407 19.1673 9.90135 18.5291 9.87168 18.1298ZM9.76664 20.5811C10.1013 20.3136 9.66633 19.7385 10.1109 19.2965C9.53722 19.4823 9.49188 20.1731 9.76664 20.5811ZM6.64705 19.8829C7.04834 19.9501 7.00796 19.2508 7.36747 19.2498C7.37408 19.1015 7.13602 19.0936 7.17938 18.924C6.92496 19.2824 6.9578 19.3916 6.64705 19.8829ZM7.50118 22.8656C8.11839 22.7722 7.7424 22.1238 8.47853 22.3014C8.70586 21.8084 8.55326 21.5356 8.65986 21.1107C8.41408 21.7344 8.41432 21.5905 8.09312 22.1981C7.7005 22.2068 7.80757 21.927 7.4852 21.8975C7.65383 22.1259 7.33255 22.6372 7.50118 22.8656ZM9.59084 23.2889C9.77647 23.0829 8.87699 23.0127 9.40275 22.9631C9.23016 22.8693 9.16845 22.7595 9.15503 22.346C8.91907 22.4577 9.01276 22.7572 8.91407 23.2453C9.21016 23.3805 9.25734 23.0846 9.59084 23.2889ZM6.33977 26.6862C6.48405 26.7466 6.38531 26.949 6.36522 27.1051C6.84654 27.1015 6.42071 26.1716 6.61541 25.6575C7.21693 25.8622 7.01055 25.1101 7.31062 24.6046C6.47493 24.9532 6.07675 26.8487 5.61039 27.8667C6.06725 28.279 5.98565 27.1887 6.33977 26.6862ZM5.05261 28.4067C4.95184 28.211 5.01122 28.113 5.24993 28.1842C5.23538 28.0105 5.15612 27.8775 4.93337 27.824C4.8889 28.0595 4.70416 28.0535 4.66721 28.3034C4.79568 28.3379 4.92318 28.372 5.05261 28.4067ZM6.6975 28.4344C6.54387 28.4822 6.485 28.6942 6.24422 28.5883C6.24459 28.869 6.56206 28.9437 6.23499 29.1366C6.30106 29.4773 6.6807 28.7984 6.6975 28.4344ZM4.60168 32.1413C4.88618 31.9411 5.19485 31.7898 5.35773 31.379C4.56336 30.9435 5.84625 30.5294 5.18713 29.9563C5.03551 29.9426 5.08193 30.0669 5.1527 30.0848C4.62404 30.7828 4.51624 31.2508 4.60168 32.1413ZM6.60098 30.3362C6.55491 30.5081 6.5091 30.6791 6.46303 30.851C6.93807 31.2496 7.1061 31.2252 7.84272 31.3584C7.86185 31.202 7.63725 31.1864 7.49078 31.1264C7.4971 31.0101 7.57458 31.0184 7.65463 31.0326C7.14073 31.0264 6.90756 30.7993 6.60098 30.3362ZM7.0014 31.4073C6.67987 31.4289 6.66378 32.1689 7.08718 32.1188C7.38142 31.9171 7.05885 31.842 7.35309 31.6403C7.76193 31.374 6.84726 31.9903 7.0014 31.4073ZM4.1115 34.4884C4.53965 34.5596 4.35044 33.7086 4.09552 33.5202C3.80583 34.0141 4.23165 34.094 4.1115 34.4884ZM4.52185 35.0124C4.67476 34.9633 4.73434 34.7526 4.97538 34.8575C4.93265 34.5572 4.92815 34.2341 4.79749 33.9837C4.50218 33.8456 4.97097 34.9474 4.6598 34.4976C4.48649 34.5764 4.4938 34.7616 4.52185 35.0124ZM5.61869 35.0299C5.64087 34.6921 5.39167 34.5094 5.43982 34.1558C4.93277 34.1318 5.20429 34.9344 5.61869 35.0299ZM5.86518 35.6478C6.13199 35.4325 6.66896 35.0629 6.52597 34.7233C6.18826 34.8129 5.72748 35.3117 5.86518 35.6478ZM3.14161 36.5703C3.34225 36.5826 3.14623 35.9928 3.5697 35.9965C3.353 35.3525 2.8859 36.3423 3.14161 36.5703ZM4.2627 37.0073C4.51221 36.393 4.19124 36.1072 4.22248 35.6196C4.0261 35.6571 3.90943 35.8298 3.82689 36.0644C4.63018 36.0995 3.50598 36.7559 4.2627 37.0073ZM5.63622 41.6448C6.14948 41.5453 5.32173 41.3349 5.67986 40.9681C5.48177 40.8767 5.42605 41.0305 5.26074 40.9945C5.23771 41.0805 5.21493 41.1655 5.1919 41.2514C5.49441 41.2932 5.66684 41.4108 5.63622 41.6448ZM4.95946 41.6012C4.50062 41.4938 5.11797 42.0992 4.72772 41.9522C4.77147 42.1057 5.26847 42.0784 5.1039 42.6037C4.64236 42.7151 4.55018 42.0661 4.28173 41.5573C4.16688 42.04 4.32852 41.9622 4.07519 42.3281C4.78395 43.1371 5.32362 43.789 6.63629 43.5651C6.70196 43.1655 6.23732 43.072 6.32896 42.6566C5.97845 43.0027 5.8403 42.5484 5.45488 42.8355C5.29876 42.599 5.24527 42.3041 5.27724 41.9607C5.03919 42.0957 4.842 41.9507 4.95946 41.6012ZM14.4299 38.6311C14.2786 38.5233 14.203 39.2536 14.551 39.2143C14.4062 39.5927 14.0299 39.5675 14.0168 40.1727C14.6777 40.2059 14.7909 38.9452 14.4299 38.6311ZM16.3923 39.0192C15.6777 38.9468 15.9351 39.3885 15.603 39.9093C15.8727 39.8149 16.0972 39.5023 16.3923 39.0192ZM16.5644 38.3769C16.3046 38.3653 16.2335 38.6806 15.8532 38.4617C15.819 38.5892 15.7844 38.7187 15.7502 38.8462C16.0265 38.5258 16.3352 39.0081 16.5644 38.3769ZM17.3973 36.8101C16.9498 36.7223 17.1278 37.7193 16.4553 37.2461C16.3632 37.443 16.5168 37.4997 16.4805 37.666C16.5037 37.9351 16.7175 37.5814 16.515 37.5375C16.6014 37.3733 16.8641 37.5172 17.0623 37.5465C17.0759 37.1288 17.3201 37.1135 17.3973 36.8101ZM21.1552 34.0983C21.2208 33.7722 20.7297 33.9439 20.6404 33.9604C20.7477 34.3132 20.8479 34.2717 20.5977 34.6374C20.9837 34.8081 20.8509 34.0747 21.1552 34.0983ZM21.5043 34.3295C21.7116 34.2474 21.9492 34.222 22.1231 34.0833C22.2387 34.0884 22.2313 34.1661 22.2171 34.2462C22.6918 34.0431 21.4181 33.5962 21.5043 34.3295ZM22.4828 33.7645C22.6331 34.0036 22.8431 34.2089 22.8243 34.5455C23.3548 34.4164 22.892 33.9373 23.0995 33.5188C22.6636 33.198 22.9206 34.0858 22.4828 33.7645ZM22.8809 31.2551C22.8465 31.3835 22.812 31.512 22.7776 31.6405C23.0239 31.8959 23.3494 31.4386 23.2915 31.7782C23.6279 32.2151 23.0928 31.2446 23.3948 31.3928C23.4524 31.0541 23.1262 31.5102 22.8809 31.2551ZM25.2883 24.326C24.9856 24.7833 25.9693 24.7673 26.5385 24.7987C26.4348 24.2316 25.6599 24.9174 25.2883 24.326ZM28.5526 23.9625C28.5296 24.0485 28.5065 24.1345 28.4838 24.2195C28.5867 24.2719 28.618 24.2016 28.6466 24.1254C28.7705 24.1617 28.7049 24.3098 28.7063 24.4168C28.8985 24.3099 29.2 24.3938 29.5115 24.4948C29.3642 23.9781 28.7322 24.4165 28.7155 23.8685C28.6128 23.8151 28.5806 23.8851 28.5526 23.9625ZM27.5433 22.5905C27.3697 22.9757 27.7051 23.1961 27.2427 23.1985C27.3715 23.7071 27.8063 23.1932 27.7648 22.7876C27.952 22.8968 27.7668 23.2209 28.2108 23.1825C28.0566 22.8502 28.0228 22.7252 28.2889 22.3773C27.855 22.1264 28.0613 22.9871 27.5433 22.5905ZM26.8748 21.9983C26.6537 22.8429 27.4282 21.9189 27.5777 22.4621C27.9607 22.4042 27.772 21.7832 27.329 21.8447C27.226 22.3761 27.205 22.122 26.8748 21.9983ZM29.2411 21.3932C29.386 20.7094 28.7369 21.0841 28.9165 21.5805C28.7582 21.418 28.5592 21.2798 28.6688 20.9634C28.3682 20.7793 28.2179 21.7847 28.0516 21.2111C27.6426 21.3158 28.3516 21.6797 27.9382 22.1446C28.0744 22.0961 28.2097 22.0506 28.1961 22.2137C28.4845 22.2733 28.3962 21.6834 28.5311 21.4773C29.0528 21.5974 28.7819 21.8975 28.6157 22.1894C29.1799 22.058 28.7601 21.2291 29.6274 21.4967C29.6927 21.2957 29.6971 20.9894 29.8936 21.0172C29.5083 20.5196 29.6326 21.5084 29.2411 21.3932ZM27.5368 21.0732C27.7623 21.1512 27.8504 20.9884 28.0858 21.0836C28.0283 20.827 27.9658 20.5732 27.5458 20.5258C27.615 20.6655 27.6063 20.8526 27.5368 21.0732ZM26.0481 19.435C26.2106 19.7364 26.4025 19.4182 26.8189 19.6416C26.8945 19.1276 27.3564 18.9222 26.8029 18.6734C26.8184 18.7625 26.9901 19.2537 26.6652 19.1873C26.8506 18.7659 26.595 18.1394 27.2067 17.6801C27.5542 17.8902 26.9529 17.9589 27.0344 18.3234C27.3898 18.2758 27.6038 17.624 27.2756 17.4232C27.6428 17.2969 27.8393 16.5907 27.5854 16.267C27.664 16.0665 28.1397 16.6402 28.2025 16.0193C27.9456 15.9504 27.6887 15.8816 27.4308 15.8125C28.0617 15.6099 28.2722 15.9023 29.1101 15.7117C29.12 15.1956 29.2648 15.1071 29.2226 14.778C28.8898 14.7023 28.8884 15.2019 28.6648 15.318C27.7138 14.9648 28.4832 14.6316 28.7877 13.8353C28.8864 13.9228 28.9864 14.0097 28.9749 14.1608C29.2035 13.9912 29.5468 14.0201 29.5668 13.4933C29.4107 13.4732 29.395 13.6978 29.3351 13.8443C28.7654 13.026 29.3153 12.2063 29.2195 11.1961C28.9659 11.1882 28.0397 11.5384 28.3547 10.8267C27.5634 10.7658 27.0402 10.5821 27.3698 9.87333C26.6342 10.5324 26.7027 9.19867 26.2982 10.2757C26.2208 9.95782 26.1907 9.61432 26.1538 9.27313C26.0131 9.34208 25.8263 9.33238 25.6048 9.26268C24.8393 10.3113 24.0063 9.27023 23.0421 10.0906C22.8092 10.0676 22.7086 9.35319 22.8541 9.76486C23.2684 9.72161 22.8019 9.30261 22.5729 9.27644C22.6092 9.15261 22.7563 9.21791 22.8642 9.21682C22.4039 8.92575 22.6177 8.48714 22.5904 8.17959C22.1477 8.37881 22.3774 8.76958 21.8365 8.94144C22.6036 8.60552 21.9567 10.0462 22.8203 9.89455C21.9176 10.7252 20.9937 11.1402 19.8631 11.1675C19.6672 11.9992 19.2179 11.8985 18.7229 11.8259C18.598 12.2997 18.1959 12.2934 17.8728 12.4253C17.6675 13.566 16.0907 14.5825 15.0517 15.2493C15.2266 15.7983 14.1465 17.1053 13.3091 17.1242C13.291 17.5935 13.0381 17.6562 12.7525 17.6635C13.2784 18.1968 12.2949 18.3629 12.1514 18.8794C12.0526 18.7918 11.9517 18.7048 11.9623 18.5533C11.8224 18.5034 11.7304 19.3298 12.0137 19.3932C11.8887 19.7397 11.4571 19.5578 11.2336 19.735C11.0304 20.1381 11.4439 20.0129 11.5836 19.9665C11.1409 20.3903 11.0818 21.4802 10.4604 21.5932C10.9446 22.8421 8.77879 24.3799 9.59055 25.3532C9.18293 25.4023 8.99617 25.6898 9.34933 26.2534C8.80886 26.385 9.28596 26.8338 8.72297 27.0494C8.7168 27.3583 8.96458 26.9475 9.07395 27.2812C8.57797 28.1276 8.55687 29.0216 8.44512 30.1419C8.28382 30.2995 8.14367 30.498 7.82797 30.3896C7.96749 30.8773 8.40737 31.4341 7.9632 31.9404C7.85428 32.2001 7.66901 31.6628 7.41515 31.9302C7.70868 32.16 7.82636 32.4897 7.8507 32.8741C7.75223 33.0175 7.61513 33.0926 7.39768 33.0271C7.34488 33.2241 7.63327 33.5426 7.65461 33.0959C8.01653 33.283 7.45721 33.3381 7.51666 33.6108C7.32188 33.2791 7.24575 33.5941 7.06241 33.7644C6.97016 34.1435 7.22916 34.3205 7.40417 34.5445C6.7917 34.8173 6.8398 35.5921 6.28791 35.6233C6.38727 35.9171 6.75812 36.0206 6.33927 36.4632C7.27731 36.8223 6.40588 38.4015 6.32758 39.0762C6.5332 39.1821 6.59694 39.0408 6.65336 38.8882C6.92811 39.1958 6.24516 39.4186 6.24976 39.8805C6.63512 39.5396 6.92258 39.8848 6.85768 40.1811C6.66318 40.3661 6.06349 40.1391 6.33555 40.592C7.07596 40.0967 6.21858 41.071 6.87392 41.1483C6.96575 40.9523 6.81122 40.8954 6.84846 40.7294C6.93443 40.7524 7.02039 40.7755 7.10539 40.7982C6.93679 41.1454 7.75021 41.4866 7.5664 42.161C7.7349 42.2817 8.27107 42.1893 8.17529 42.4618C8.6051 42.0014 10.4994 42.4158 9.67572 41.487C9.90292 41.1606 10.2119 41.6689 10.4465 41.6935C10.4999 41.5908 10.4287 41.5593 10.3525 41.5306C10.1589 41.1827 11.1064 41.2129 11.1415 40.6415C11.2977 40.731 11.2828 40.9216 11.4571 41.0015C11.2064 41.0678 11.0327 41.2677 10.9948 41.7027C11.1975 41.6804 11.3604 41.5864 11.4825 41.4203C11.8089 41.6475 11.3006 41.9565 11.276 42.1911C11.6613 41.6494 13.0435 40.324 13.0358 39.2204C13.1643 39.2548 13.2928 39.2892 13.4213 39.3237C13.1395 39.8227 13.2365 39.8819 13.1112 40.4808C13.5131 39.6185 14.0501 39.0284 14.5445 37.697C14.6655 37.8443 14.8441 37.9584 15.1534 37.9978C15.0108 38.2402 14.6998 38.1454 14.8873 38.4773C15.1998 38.5165 15.1623 37.9494 15.4448 37.9382C15.6188 38.0459 15.3489 38.0874 15.3415 38.3236C15.7154 38.1184 15.7159 38.3017 16.0517 38.2385C16.0222 37.6995 16.2322 37.6502 16.2333 37.0469C16.0882 37.1095 15.9766 37.2286 15.8722 37.3632C15.588 36.9786 16.2264 36.6092 16.6878 36.8923C16.5004 36.5449 16.8584 36.0818 17.1857 36.0618C17.3656 36.1825 17.1578 36.1972 17.0229 36.1559C17.0175 36.3035 17.2558 36.3104 17.2109 36.4817C17.6743 36.4795 17.3389 36.2592 17.5118 35.8728C17.597 35.9681 17.6854 36.0632 17.8628 36.1045C17.8167 36.2765 17.7709 36.4474 17.7248 36.6194C17.8652 36.5783 18.0147 36.314 18.0171 36.56C18.3539 36.497 17.9021 35.9846 17.8041 35.8134C18.1318 35.3981 17.9164 36.1634 18.2836 36.0796C17.7564 35.6205 18.8393 35.4738 18.0703 35.334C18.1359 35.0078 18.379 34.9891 18.5005 34.7598C18.6677 35.4071 18.8346 34.4289 19.2714 34.9663C19.4224 34.132 19.1174 34.1807 18.613 33.8261C19.2486 33.6796 18.9947 32.6104 19.9496 32.945C19.9163 32.6907 19.7208 32.864 19.5642 32.8417C19.9599 32.5512 20.0201 32.1025 20.4567 31.5663C20.9858 31.7401 20.1837 32.0056 20.5416 32.2774C20.4809 32.4227 20.2786 32.324 20.1227 32.3029C19.9967 32.5569 20.1195 32.6665 20.1135 32.8512C20.2885 32.7273 20.2301 32.3503 20.6962 32.7319C20.6009 32.8172 20.506 32.9046 20.4645 33.0829C20.9649 32.8071 20.5854 33.6516 21.2959 33.5811C21.1624 33.3683 21.2788 32.7524 21.6299 32.8444C21.6548 32.2879 21.3017 31.948 21.3318 31.3876C21.4554 31.4249 21.3901 31.572 21.3924 31.6793C21.5139 31.6393 21.637 31.6009 21.8122 31.6541C21.8428 30.9717 22.1885 31.1731 22.1567 30.3684C21.7477 30.9442 21.7088 31.3137 20.912 31.4128C21.1887 31.1412 21.4224 30.7908 21.7953 30.6857C21.828 30.4129 21.5151 30.3404 21.5478 30.0676C21.9461 29.5935 21.9783 29.6549 22.4321 29.3407C22.3978 29.0861 22.2025 29.2585 22.0467 29.2374C22.4288 28.7849 22.7521 28.6603 22.7419 28.1845C22.9027 28.0867 23.0646 27.9924 23.2286 27.9018C23.4578 27.9042 23.0884 28.3788 22.9625 28.3813C22.9547 28.5956 23.2195 28.33 23.1859 28.5788C23.3716 28.5851 23.3786 28.2847 23.4531 28.0996C23.7215 28.5391 23.3824 28.765 23.4349 29.1953C23.3484 29.3595 23.0835 29.216 22.8847 29.1855C23.2569 29.7708 22.5589 29.7059 22.506 30.5987C22.6691 30.1869 23.4188 30.6155 22.8577 30.8316C23.0089 31.3763 23.2561 30.5388 23.2867 30.2581C22.865 30.5106 23.1403 29.9777 23.0046 29.7695C23.5823 29.6302 23.9829 29.0895 24.5901 29.5048C24.6246 29.3763 24.6587 29.2488 24.6931 29.1204C24.2141 28.9185 24.0049 29.1813 23.5025 28.939C23.9771 28.7173 23.7084 28.3792 24.0348 27.9801C24.143 28.0981 24.0892 28.3105 24.3514 28.3403C24.6341 28.1428 24.3826 28.1737 24.4891 27.8265C24.2589 27.9242 24.1247 27.8883 23.9752 27.6888C24.3794 27.4668 24.188 27.3814 24.3446 26.8239C23.9473 26.6491 23.4742 27.3061 23.7183 27.6199C22.2627 28.2031 23.4177 26.8447 23.934 26.3008C23.7765 26.4056 23.4489 26.2143 23.4444 26.5827C23.2466 26.2274 23.8043 25.9658 23.1036 25.8029C23.3306 25.4424 23.8365 25.5676 23.9859 25.0755C24.5081 25.2092 24.1946 25.3902 24.5272 25.6326C24.7608 25.1589 24.293 24.8027 24.0206 24.9461C23.7894 24.8624 24.0601 24.4897 23.9014 24.3634C24.2147 24.6119 24.2558 24.8486 24.7672 24.733C24.7438 24.1056 25.4384 24.2255 25.171 23.7397C25.7952 24.2113 25.3505 23.325 25.8915 23.1066C25.6442 22.9938 25.4817 23.0248 25.4372 23.2603C25.0147 23.2144 25.5607 22.6101 25.061 22.6087C25.339 22.2359 25.5177 21.9205 25.636 21.5525C25.6942 21.9108 26.0813 21.8302 25.7126 22.2325C25.9445 22.2439 25.9281 22.3979 25.9016 22.5586C26.2033 22.5804 26.1233 21.9399 26.2711 21.6937C25.858 21.6783 25.993 21.7155 25.6441 21.5299C25.7559 21.1706 25.8115 20.762 25.8455 20.2028C25.9434 20.3087 26.0259 20.3909 26.1035 20.4375C26.1181 20.2748 26.021 20.1773 26.1006 19.9771C26.3041 20.0171 26.3353 20.1559 26.5033 20.2165C26.5213 20.184 26.538 20.1564 26.5566 20.1179C26.4856 20.0005 26.0138 19.6288 26.0083 20.1087C25.9115 20.0569 25.9146 19.9448 25.7858 19.9114C25.8261 19.6799 26.0108 19.6859 26.0481 19.435ZM30.3496 18.7976C29.804 18.8709 30.1431 18.9618 29.7073 18.6255C29.7456 19.0696 29.4215 18.8844 29.3117 19.0703C28.9642 18.8602 29.4987 18.6773 29.4838 18.4279C29.2257 18.483 29.025 18.6373 28.7382 18.6412C28.7853 18.7936 28.998 18.8537 28.8909 19.0952C28.7314 19.2575 28.4287 19.1702 28.1799 19.1791C28.1422 18.9453 28.5855 18.6894 28.5064 18.9922C28.886 18.7771 28.233 18.6953 27.9916 18.8543C27.9003 19.2336 28.406 19.2666 28.1717 19.7276C28.5143 19.8205 28.5595 19.3967 28.917 19.5153C28.9987 19.6625 28.8378 19.8999 28.839 20.3205C28.9249 20.3436 29.0099 20.3664 29.0959 20.3894C29.1912 20.3042 29.2851 20.2165 29.3276 20.0384C29.1992 20.004 29.0697 19.9693 28.9422 19.9351C29.2833 19.2728 29.4494 19.8505 29.619 19.9788C29.5245 19.0372 30.5578 19.3421 30.3496 18.7976ZM31.5824 20.3672C31.4173 19.6117 32.3197 19.6672 32.6974 19.289C32.8443 19.023 32.5 19.0405 32.5437 18.8348C32.5488 18.7192 32.6254 18.7272 32.7066 18.7407C32.4106 18.3001 32.0608 19.37 31.6008 19.2706C31.7516 19.7396 31.052 20.0708 31.5824 20.3672ZM34.2433 23.2832C34.4505 23.2673 34.6169 23.1794 34.826 23.164C34.9041 22.9385 34.742 22.8516 34.8353 22.6157C34.6582 22.8747 34.3159 22.8461 34.2433 23.2832ZM33.9501 31.0541C34.2123 31.0685 34.1848 30.5839 34.567 30.8074C34.59 30.7214 34.613 30.6355 34.6358 30.5505C34.5204 30.5444 34.5285 30.4679 34.5427 30.3878C34.2016 30.5946 34.1024 30.2771 34.0967 29.9929C33.7697 30.1124 34.1051 30.3327 33.7959 30.6018C34.3025 30.4653 34.1225 30.6076 33.9501 31.0541ZM33.8812 31.3111C33.8878 31.1627 33.6495 31.1558 33.6934 30.9843C33.1163 30.8701 33.5807 31.683 33.2299 31.6863C33.4329 32.2656 33.6796 31.3564 33.8812 31.3111ZM32.7392 34.0353C32.8653 33.7233 32.6219 33.4686 32.852 33.1007C32.6705 33.1017 32.5893 33.2736 32.3977 33.2543C32.586 33.8845 32.0473 33.7391 31.8654 34.2132C32.2591 34.444 32.6128 33.6494 32.7392 34.0353ZM33.0456 34.9436C33.3204 34.7874 33.7823 34.3925 33.5789 33.9849C32.9813 34.094 32.9481 34.3491 33.0456 34.9436ZM33.2254 35.8179C33.7532 35.5597 33.2627 36.2006 32.9944 36.1701C33.1021 36.5137 33.8093 35.7331 34.1601 35.9307C33.8942 36.1617 33.7236 36.555 33.4053 36.6922C33.5142 37.1666 33.8399 36.465 33.9281 36.2826C34.0733 36.3433 33.9734 36.5463 33.9533 36.7024C34.1335 36.7021 34.2148 36.5302 34.4073 36.5497C34.0215 36.3552 34.4687 35.9264 34.6039 36.326C35.3371 36.0007 33.9902 35.9659 34.426 35.4522C34.1179 35.7558 33.6403 35.8421 33.492 35.3406C33.3061 35.3312 33.2982 35.6314 33.2254 35.8179ZM32.8996 36.006C32.991 35.8079 32.8382 35.7524 32.8735 35.5859C32.7383 35.6346 32.6029 35.6801 32.6165 35.5171C32.2944 36.2403 32.2055 37.2559 32.8996 36.006ZM33.1606 39.6569C33.7245 39.631 33.3014 38.9886 33.6234 38.9537C33.7527 38.5329 33.0304 38.9491 33.4614 39.048C33.3347 39.1425 33.1754 39.1805 33.0072 39.2017C33.056 39.3556 33.2663 39.413 33.1606 39.6569ZM32.5754 41.8409C32.1487 41.7297 32.2504 42.5323 31.949 42.6369C31.8798 43.1619 32.2755 42.1798 32.206 42.7057C32.5293 42.2913 32.78 42.3098 32.5754 41.8409ZM31.0927 41.718C31.4748 41.6288 31.1771 41.0283 31.2052 40.7843C30.6992 40.9458 31.2161 41.4197 31.0927 41.718ZM30.9892 42.1043C31.5135 42.0367 31.5754 41.7324 31.9241 42.2161C32.1941 41.9002 31.3283 41.7117 31.8046 41.6344C31.6044 41.18 31.1954 41.9453 30.9892 42.1043ZM32.1933 45.3185C32.2195 45.1009 31.4678 44.4947 32.1085 44.6073C32.0888 44.2211 31.9334 43.9123 31.6727 43.6644C31.4738 43.7923 31.5684 43.8528 31.5694 44.0498C31.0802 43.7003 32.2721 42.5092 31.5031 42.242C31.4405 42.8619 31.2176 42.7277 30.8859 42.4897C30.9028 42.6972 30.9898 42.8633 31.0061 43.0727C31.8372 42.7529 30.8595 43.1525 31.2538 43.6898C31.1459 43.8649 31.1033 43.5946 30.8684 43.5866C30.7103 44.0877 31.0766 43.5978 31.185 43.9468C31.0988 44.11 30.8349 43.9668 30.636 43.9363C30.6121 44.3037 30.6534 44.2847 30.6874 44.7762C30.8087 44.7135 31.2389 44.3443 31.0718 44.8793C31.359 44.9355 31.4347 44.6297 31.5021 44.3051C31.4161 44.282 31.3311 44.2592 31.2442 44.2359C31.2984 43.9523 31.7156 44.3002 31.9219 44.2799C31.6996 44.3984 31.6448 44.804 31.5525 45.1447C31.7664 45.2041 31.9798 45.2613 32.1933 45.3185ZM28.4056 46.0936C28.4353 45.7703 28.7161 45.8776 28.7065 45.4847C28.2165 45.2116 27.8165 46.0631 28.4056 46.0936ZM29.7709 51.2797C29.6755 51.1526 29.6387 50.9927 29.6172 50.8254C29.1862 51.0008 29.4275 51.1742 29.1538 51.5274C29.3595 51.714 29.6857 51.2578 29.6676 51.6651C29.9987 51.7393 30.0981 51.2679 29.9682 51.0571C29.8419 51.0264 29.8268 51.187 29.7709 51.2797ZM27.3039 50.2055C27.4895 50.2429 27.6727 50.2816 27.6548 50.4373C27.8072 50.4522 27.7607 50.328 27.6893 50.3088C27.7009 50.0759 27.8549 50.0923 28.0153 50.1197C27.9751 49.9992 27.9369 49.8751 27.9898 49.7009C27.6681 49.7078 27.389 49.7873 27.3039 50.2055ZM26.6877 50.4535C26.8684 50.4512 26.9494 50.2803 27.1412 50.2986C27.0819 50.0757 26.9397 50.2819 26.6627 50.0327C26.6983 49.9077 26.8471 49.9744 26.9544 49.9721C26.959 49.8233 26.7217 49.8166 26.7663 49.6463C26.263 49.7744 26.8647 50.1562 26.6877 50.4535ZM26.2931 50.8985C26.678 50.7139 26.6163 50.7895 27.0983 50.9766C27.1797 50.6226 27.3821 50.7752 27.236 50.4627C27.0941 50.9072 26.2779 50.1822 26.2931 50.8985ZM28.0126 52.1854C28.047 52.057 28.0814 51.9285 28.1156 51.801C28.0129 51.7476 27.9814 51.8189 27.9537 51.8953C27.7579 51.4204 27.856 51.7614 27.5338 51.9205C27.5271 52.104 27.8263 52.1117 28.0126 52.1854ZM25.9808 54.1195C26.5866 53.995 26.9944 53.6363 27.3091 53.7869C27.5222 53.7954 27.2576 53.5309 27.5064 53.5644C27.5171 53.3933 27.2854 53.3654 27.2495 53.4956C27.1259 53.4583 27.1912 53.3112 27.1901 53.2032C26.9491 53.7898 26.1695 53.4422 25.9808 54.1195ZM24.771 55.0335C25.1686 55.0334 25.5753 54.3152 25.0119 54.1342C24.9315 54.4346 24.851 54.735 24.771 55.0335ZM25.9611 55.2168C26.1165 55.2356 26.1825 55.3061 26.1839 55.4131C26.6087 55.2381 25.8976 55.0983 26.3557 54.7717C25.9678 54.6626 26.058 55.3845 25.67 55.2754C25.6955 55.5162 25.9441 55.4348 25.9611 55.2168ZM25.001 56.7484C25.3841 56.9722 25.2901 56.3725 25.6178 56.5017C25.6102 55.9313 25.0989 56.3906 25.001 56.7484ZM24.3215 58.7705C25.1619 58.7482 24.8739 57.8139 25.6581 57.8894C25.071 57.7197 25.478 57.2707 25.8394 56.6988C25.4219 56.7267 25.2668 57.2131 24.862 57.263C24.5825 57.1705 24.953 56.7035 24.9401 56.4578C24.4535 56.4154 24.8098 57.0834 24.5018 57.5796C24.6495 57.585 24.6574 57.3469 24.8279 57.3905C25.0351 57.7608 24.3269 58.1435 24.3215 58.7705ZM24.901 60.7147C24.7367 60.4471 24.9589 59.9579 24.5937 59.8062C24.6387 60.1444 24.4168 60.6326 24.901 60.7147ZM24.3602 62.2231C24.4632 61.6917 24.4844 61.9448 24.8147 62.0685C24.8343 61.9143 24.9038 61.8481 25.012 61.846C25.1042 61.467 24.7203 61.362 24.6702 61.066C24.3957 61.2792 24.1107 61.4772 23.9154 61.8275C24.3732 61.7804 23.9014 62.27 24.3602 62.2231ZM21.0802 67.2661C21.3523 67.2976 21.491 67.1008 21.6964 67.0181C21.8359 66.5399 21.2469 66.4815 21.5873 65.8873C21.1012 66.1018 21.2276 66.8355 21.0802 67.2661ZM16.3549 56.0354C16.1952 56.1251 16.0685 56.115 15.9404 56.1024C16.0302 56.2621 16.0195 56.3907 16.0072 56.5178C16.2805 56.6107 16.602 56.3728 16.3549 56.0354ZM15.3945 55.6362C15.6961 55.4996 15.9775 55.3576 15.8602 55.0922C15.5462 55.1706 15.2177 55.1986 15.3945 55.6362ZM15.1093 56.2369C15.0287 56.0817 15.2592 56.0213 15.2209 55.8785C14.9823 55.9305 15.2062 55.7245 15.2157 55.581C14.9015 55.7453 14.5882 55.9098 14.2737 56.0751C14.328 56.2242 14.4684 56.3995 14.3405 56.4905C14.2492 56.3636 14.0875 56.461 13.9248 56.5582C14.5723 57.0548 14.5767 55.6977 15.1093 56.2369ZM14.824 59.9909C14.6849 59.4899 14.1841 60.1497 14.0438 59.6494C13.5827 59.8364 14.5159 60.248 14.824 59.9909ZM9.83715 63.6572C9.74742 63.4975 9.75878 63.3701 9.7704 63.2417C9.43972 63.2163 9.45248 63.4816 9.00181 63.4944C9.17831 63.8751 9.59961 63.4734 9.83715 63.6572ZM9.37447 67.3544C9.19583 67.1016 9.64674 67.0453 9.54241 66.8165C9.39342 66.9205 9.03173 66.2149 9.06444 66.7651C9.13894 66.7343 9.21382 66.7099 9.24396 66.8215C9.34408 66.9694 8.95188 67.4286 9.37447 67.3544ZM7.43058 74.5319C7.25493 74.3606 7.21036 73.7658 6.94173 73.8874C7.05912 74.0752 6.95341 74.8367 7.43058 74.5319ZM5.57354 77.0076C5.37516 76.7163 5.53442 76.5354 5.85968 76.4072C5.76157 76.1976 5.64051 76.0544 5.49423 75.9976C5.65511 75.9072 5.78277 75.9176 5.90991 75.9299C5.72934 75.6766 5.69139 75.4666 5.7188 75.2793C5.50264 75.5837 5.31778 75.412 5.30952 75.6438C5.65802 75.792 5.2732 76.5482 5.21378 76.8936C5.37156 76.8147 5.43075 77.0459 5.57354 77.0076ZM6.48713 77.0174C6.48779 77.0072 6.49276 77.0002 6.49341 76.9901C6.86133 76.9075 6.76007 77.6061 6.97357 77.2574C6.90222 76.9132 6.62429 76.3625 6.2709 76.7927C6.22546 76.7112 6.21753 76.6056 6.22965 76.4908C6.03409 76.7531 5.91206 77.1004 5.57995 77.3043C5.89611 77.6158 6.14766 76.3177 6.48713 77.0174ZM3.00632 82.7094C3.20202 82.6977 4.27309 82.3014 3.88056 81.7997C3.51106 82.0775 3.2943 82.4035 3.00632 82.7094ZM4.34307 84.1112C4.50799 84.0404 5.10918 83.9914 4.69622 83.9252C4.62146 83.957 4.54755 83.9817 4.5167 83.8688C4.92109 83.766 4.75653 83.4838 5.16189 83.3812C4.82533 83.0995 5.24976 82.5703 4.90946 82.6117C4.96632 82.7936 4.72227 82.8814 4.67971 83.0325C4.21954 82.961 4.46658 82.5799 4.01748 82.6294C4.07506 82.855 3.85258 82.6846 3.66433 82.8153C4.0497 83.0501 4.45621 83.2253 4.86538 83.3867C4.5016 83.5697 4.32075 83.8081 4.34307 84.1112ZM14.6149 53.805C14.6042 53.8063 14.5969 53.8064 14.5869 53.8089C14.5786 53.844 14.5921 53.8321 14.6149 53.805Z" fill="#D0222B"/>
</svg>
