<?xml version="1.0" encoding="UTF-8" standalone="no"?>
<!DOCTYPE svg PUBLIC "-//W3C//DTD SVG 20010904//EN" "http://www.w3.org/TR/2001/REC-SVG-20010904/DTD/svg10.dtd">
<svg version="1.0" xmlns="http://www.w3.org/2000/svg" width="640.000000pt" height="640.000000pt" viewBox="0 0 640.000000 640.000000" preserveAspectRatio="xMidYMid meet">
<metadata>
Created by potrace 1.11, written by Peter Selinger 2001-2013
</metadata>
<g transform="translate(0.000000,640.000000) scale(0.100000,-0.100000)" fill="#000000" stroke="none">
<path d="M2908 6395 c-1 -1 -47 -6 -102 -9 -156 -10 -273 -24 -446 -51 -14 -3 -38 -6 -55 -9 -222 -33 -603 -144 -830 -241 -575 -246 -1009 -630 -1171 -1036 -25 -63 -30 -79 -40 -128 -3 -14 -7 -28 -10 -32 -9 -14 -16 -149 -10 -183 9 -48 45 -85 97 -99 65 -18 5677 -16 5731 2 58 19 83 62 85 148 5 223 -143 517 -382 757 -120 121 -156 154 -255 228 -274 207 -637 381 -1020 489 -103 29 -285 73 -345 83 -16 2 -68 11 -115 19 -47 9 -110 18 -140 22 -30 4 -66 8 -80 10 -14 2 -59 7 -100 10 -41 4 -91 9 -110 11 -40 6 -697 14 -702 9z"/>
<path d="M3725 4395 c-101 -16 -177 -45 -250 -96 -68 -48 -71 -50 -118 -113 -83 -108 -125 -254 -122 -421 2 -116 12 -176 40 -251 70 -188 216 -312 410 -351 55 -11 220 -10 234 1 8 6 16 10 18 8 8 -8 72 12 123 39 146 77 229 224 225 404 -3 184 -111 283 -316 289 -179 5 -259 -48 -259 -174 0 -75 76 -146 160 -151 42 -3 60 -15 60 -40 0 -25 -42 -51 -83 -52 -92 -3 -171 47 -209 131 -25 56 -29 76 -29 142 -1 118 34 197 109 250 40 28 57 33 115 36 57 2 79 -2 125 -23 81 -37 150 -41 200 -13 102 58 113 207 20 285 -63 53 -180 94 -288 102 -36 2 -69 5 -75 7 -5 1 -46 -3 -90 -9z"/>
<path d="M1369 4390 c-62 -17 -89 -40 -121 -101 -22 -42 -22 -50 -23 -398 0 -196 3 -378 8 -406 24 -138 120 -248 262 -301 90 -33 282 -38 370 -9 78 26 133 56 180 97 41 36 93 122 110 183 12 44 14 763 1 805 -24 85 -93 134 -183 132 -83 -2 -135 -39 -167 -116 -14 -33 -16 -90 -16 -377 0 -230 -4 -346 -11 -363 -32 -70 -162 -59 -170 14 -1 8 -3 168 -4 355 -2 359 -4 378 -51 431 -39 44 -127 69 -185 54z"/>
<path d="M385 4383 c-32 -8 -105 -57 -105 -70 0 -7 -4 -13 -9 -13 -27 0 -32 -95 -29 -545 3 -525 0 -502 93 -560 l48 -30 221 0 c185 1 229 4 271 19 174 61 269 196 259 371 -4 85 -31 149 -91 215 -48 52 -51 59 -36 71 9 8 30 43 46 79 70 154 9 345 -135 421 -72 37 -153 49 -338 48 -96 -1 -184 -3 -195 -6z m337 -303 c28 -28 30 -35 26 -82 -7 -65 -41 -98 -103 -98 -63 0 -69 9 -70 92 -2 108 4 118 66 118 43 0 55 -4 81 -30z m-24 -409 c7 -1 26 -14 43 -31 25 -23 31 -38 31 -67 -1 -85 -41 -126 -123 -129 -66 -2 -74 10 -75 114 -1 117 4 122 124 113z"/>
<path d="M2417 4376 c-58 -21 -88 -49 -113 -104 -12 -28 -15 -108 -15 -492 -1 -480 1 -504 44 -561 57 -78 207 -85 274 -13 46 50 56 88 57 233 1 113 4 136 18 144 20 13 48 -6 48 -33 0 -30 40 -151 72 -216 94 -197 289 -240 390 -87 20 31 24 106 7 150 -11 30 -52 93 -84 131 -28 32 -95 143 -95 157 0 7 17 30 39 51 84 86 123 228 99 362 -24 128 -138 235 -299 277 -70 19 -391 19 -442 1z m380 -330 c39 -46 27 -129 -22 -162 -32 -21 -105 -20 -121 1 -6 8 -10 50 -10 95 2 95 8 103 80 97 39 -3 55 -11 73 -31z"/>
<path d="M4507 4376 c-64 -23 -101 -61 -118 -121 -13 -46 -16 -871 -4 -945 10 -60 72 -121 138 -137 71 -16 495 -11 527 6 66 35 92 77 96 153 3 65 -25 118 -78 148 -37 21 -59 24 -173 28 -71 2 -136 9 -142 14 -7 6 -13 28 -13 49 0 21 6 41 13 46 6 4 62 10 123 14 119 5 149 16 180 65 49 74 24 171 -53 210 -34 17 -62 22 -140 23 -53 1 -103 7 -110 13 -15 12 -17 66 -4 87 8 12 38 15 138 16 109 2 134 5 170 23 56 29 83 70 88 133 5 84 -25 139 -97 172 -31 15 -70 17 -270 17 -168 -1 -243 -5 -271 -14z"/>
<path d="M5355 4372 c-52 -21 -72 -39 -98 -87 -20 -39 -21 -52 -22 -500 -1 -418 0 -464 16 -509 10 -27 28 -59 39 -71 63 -67 203 -66 266 2 44 47 52 81 53 224 1 99 5 138 16 148 20 20 42 7 50 -31 15 -71 60 -195 88 -243 59 -99 146 -157 225 -149 96 10 159 67 169 156 7 55 -13 104 -76 188 -103 136 -133 202 -98 216 21 8 82 94 100 140 42 108 37 238 -13 334 -46 88 -164 167 -285 189 -93 18 -381 13 -430 -7z m377 -313 c25 -25 37 -55 34 -85 -2 -16 -4 -35 -5 -42 0 -7 -13 -24 -27 -37 -22 -20 -38 -25 -79 -25 -39 0 -54 4 -59 16 -8 20 -8 158 0 178 8 21 114 17 136 -5z"/>
<path d="M457 3025 c-86 -24 -143 -74 -185 -162 l-27 -58 0 -670 0 -670 28 -58 c34 -71 76 -112 145 -144 55 -26 142 -34 211 -19 55 11 123 55 158 100 58 75 66 111 70 316 2 155 6 187 19 197 26 19 42 5 75 -66 51 -105 140 -249 223 -356 130 -168 272 -229 434 -184 23 6 42 16 42 20 0 5 6 9 14 9 23 0 112 92 136 140 27 53 37 149 21 207 -13 49 -68 133 -131 200 -25 26 -81 91 -125 143 -44 52 -83 97 -86 100 -21 19 -69 102 -69 120 0 15 36 58 105 127 58 57 105 106 105 109 0 2 14 19 31 36 17 18 46 60 64 93 98 175 74 326 -69 424 -121 84 -276 73 -382 -26 -39 -36 -62 -67 -160 -218 -119 -185 -197 -268 -231 -247 -7 4 -13 69 -16 162 -4 137 -7 161 -29 210 -30 66 -82 120 -143 149 -56 26 -162 34 -228 16z"/>
<path d="M2205 3026 c-106 -25 -181 -97 -222 -213 -15 -43 -17 -116 -18 -658 -1 -713 -2 -703 82 -811 111 -143 383 -144 496 -2 15 18 31 38 36 44 5 7 18 40 29 75 19 61 20 95 20 671 1 640 -1 657 -46 743 -39 72 -86 113 -165 141 -55 20 -150 24 -212 10z"/>
<path d="M3077 3028 c-95 -20 -181 -97 -213 -191 -16 -48 -18 -104 -19 -702 -1 -606 0 -653 17 -698 29 -77 50 -105 108 -149 106 -79 300 -65 387 28 34 37 73 108 80 145 5 27 9 201 13 510 0 27 20 42 43 33 7 -2 37 -51 67 -107 29 -56 70 -133 90 -172 21 -38 63 -119 95 -180 89 -168 130 -221 212 -271 64 -39 141 -49 228 -29 71 16 107 37 153 90 79 90 77 67 77 800 0 725 1 710 -68 797 -56 71 -124 101 -231 101 -147 1 -239 -66 -286 -208 -10 -29 -14 -111 -15 -293 -1 -200 -4 -255 -15 -262 -31 -19 -40 -7 -145 195 -37 72 -80 153 -95 180 -15 28 -45 84 -66 125 -66 131 -134 207 -214 242 -49 22 -144 29 -203 16z"/>
<path d="M5337 3034 c-1 -2 -23 -5 -47 -8 -25 -4 -63 -11 -85 -16 -22 -6 -45 -12 -52 -13 -7 -2 -16 -6 -19 -10 -4 -4 -14 -7 -21 -7 -18 0 -147 -61 -151 -72 -2 -4 -8 -8 -14 -8 -17 0 -123 -89 -168 -142 -145 -169 -209 -363 -208 -633 0 -188 30 -319 105 -462 122 -231 364 -392 635 -420 361 -38 656 95 777 351 51 106 65 170 65 291 1 115 -3 134 -39 213 -43 95 -139 168 -265 203 -55 15 -100 19 -210 19 -144 1 -203 -13 -271 -61 -64 -45 -100 -177 -69 -254 33 -85 120 -142 228 -152 69 -6 98 -28 88 -67 -25 -100 -250 -86 -365 22 -81 76 -121 191 -116 335 6 175 70 287 205 354 49 25 66 28 155 28 95 0 104 -2 190 -41 61 -27 107 -41 142 -43 179 -9 304 154 252 327 -33 113 -243 233 -452 259 -46 5 -285 11 -290 7z"/>
<path d="M328 1030 c-62 -18 -88 -65 -84 -152 8 -178 182 -382 453 -531 95 -52 326 -145 383 -153 8 -1 47 -11 85 -22 64 -19 163 -41 255 -57 120 -22 149 -26 180 -30 19 -2 55 -7 80 -10 79 -12 80 -12 280 -30 146 -13 192 -17 275 -21 50 -2 142 -7 205 -11 63 -3 392 -6 730 -7 537 -1 703 2 1010 20 139 8 342 23 379 29 14 3 54 7 90 11 35 3 75 10 87 14 12 5 24 7 27 4 4 -4 92 7 157 21 14 3 39 7 55 10 49 7 135 24 179 36 41 11 61 16 104 25 33 7 249 79 297 99 309 130 531 332 590 539 31 107 3 191 -70 213 -43 14 -5702 16 -5747 3z"/>
<path d="M5932 234 c-46 -19 -66 -67 -45 -109 31 -61 83 -76 140 -40 44 29 38 120 -10 143 -40 19 -53 20 -85 6z m91 -36 c24 -28 21 -65 -7 -93 -43 -43 -116 -11 -116 49 0 39 9 52 40 65 32 12 60 5 83 -21z"/>
<path d="M5954 200 c-14 -6 -20 -16 -18 -32 1 -12 3 -31 3 -40 1 -10 6 -18 11 -18 6 0 10 8 10 18 1 16 1 16 14 0 18 -24 29 -23 21 1 -3 11 -1 22 5 26 31 19 -9 59 -46 45z m33 -27 c2 -6 -3 -13 -12 -16 -10 -5 -15 0 -15 14 0 21 21 22 27 2z"/>
</g>
</svg>